<mxfile host="app.diagrams.net" modified="2023-07-19T18:19:17.423Z" agent="Mozilla/5.0 (Windows NT 10.0; Win64; x64) AppleWebKit/537.36 (KHTML, like Gecko) Chrome/114.0.0.0 Safari/537.36" etag="iesVR28UI2teOw_l8XHg" version="21.6.2" type="device" pages="3">
  <diagram name="Логическая МД" id="sl6TpCGtKdi1u1eP5l2u">
    <mxGraphModel dx="1500" dy="2344" grid="0" gridSize="10" guides="1" tooltips="1" connect="1" arrows="1" fold="1" page="1" pageScale="1" pageWidth="1169" pageHeight="827" background="#ffffff" math="0" shadow="0">
      <root>
        <mxCell id="0" />
        <mxCell id="1" parent="0" />
        <mxCell id="2b9h-ejUGinJq_GWvg42-8" value="" style="edgeStyle=entityRelationEdgeStyle;fontSize=12;html=1;endArrow=ERoneToMany;startArrow=ERzeroToOne;rounded=0;exitX=1.008;exitY=0.148;exitDx=0;exitDy=0;exitPerimeter=0;entryX=0;entryY=0.25;entryDx=0;entryDy=0;strokeColor=#004C99;strokeWidth=2;" parent="1" source="drzOTBndSnc1gtW4sEnd-2" target="drzOTBndSnc1gtW4sEnd-15" edge="1">
          <mxGeometry width="100" height="100" relative="1" as="geometry">
            <mxPoint x="400.31999999999994" y="-1387.5900000000001" as="sourcePoint" />
            <mxPoint x="720" y="-1067.6" as="targetPoint" />
            <Array as="points">
              <mxPoint x="460" y="-780" />
              <mxPoint x="410" y="-770" />
              <mxPoint x="410" y="-770" />
            </Array>
          </mxGeometry>
        </mxCell>
        <mxCell id="2b9h-ejUGinJq_GWvg42-13" value="&lt;div&gt;&lt;font size=&quot;1&quot; style=&quot;background-color: rgb(150, 241, 255);&quot;&gt;&lt;b style=&quot;font-size: 22px;&quot;&gt;&amp;nbsp; &amp;nbsp; &amp;nbsp; &amp;nbsp; &amp;nbsp; &amp;nbsp; Логическая модель данных&amp;nbsp;Core Data Layer&amp;nbsp; &amp;nbsp; &amp;nbsp; &amp;nbsp; &amp;nbsp; &amp;nbsp;&lt;/b&gt;&lt;/font&gt;&lt;/div&gt;" style="text;html=1;strokeColor=none;fillColor=none;align=center;verticalAlign=middle;whiteSpace=wrap;rounded=0;" parent="1" vertex="1">
          <mxGeometry x="247" y="-1551" width="640" height="40" as="geometry" />
        </mxCell>
        <mxCell id="2b9h-ejUGinJq_GWvg42-134" value="&lt;font style=&quot;font-size: 18px;&quot;&gt;&lt;b style=&quot;border-color: var(--border-color);&quot;&gt;Проектирование компонентов DWH. Логическая модель данных&lt;/b&gt;&lt;br style=&quot;border-color: var(--border-color);&quot;&gt;&lt;font style=&quot;&quot;&gt;Primary Data Layer -&amp;gt; Core Data Layer -&amp;gt; Data Mart Layer&lt;/font&gt;&lt;/font&gt;" style="text;html=1;strokeColor=none;fillColor=none;align=left;verticalAlign=middle;whiteSpace=wrap;rounded=0;" parent="1" vertex="1">
          <mxGeometry x="40" y="-1640" width="720" height="40" as="geometry" />
        </mxCell>
        <mxCell id="drzOTBndSnc1gtW4sEnd-1" value="&lt;b&gt;Покупатель&lt;/b&gt;" style="swimlane;childLayout=stackLayout;horizontal=1;startSize=50;horizontalStack=0;rounded=1;fontSize=14;fontStyle=0;strokeWidth=2;resizeParent=0;resizeLast=1;shadow=0;dashed=0;align=center;arcSize=4;whiteSpace=wrap;html=1;strokeColor=#4D4D4D;" parent="1" vertex="1">
          <mxGeometry x="117" y="-1480" width="253" height="190" as="geometry" />
        </mxCell>
        <mxCell id="drzOTBndSnc1gtW4sEnd-2" value="&lt;div style=&quot;&quot;&gt;&lt;font style=&quot;font-size: 14px;&quot;&gt;&lt;u&gt;&lt;br&gt;&lt;/u&gt;&lt;/font&gt;&lt;/div&gt;&lt;div style=&quot;&quot;&gt;&lt;font style=&quot;font-size: 14px;&quot;&gt;&lt;u&gt;Код покупателя &lt;span style=&quot;white-space: pre;&quot;&gt;&#x9;&lt;span style=&quot;white-space: pre;&quot;&gt;&#x9;&lt;/span&gt;&lt;/span&gt;int&amp;nbsp;&lt;/u&gt;&lt;/font&gt;&lt;/div&gt;&lt;div style=&quot;&quot;&gt;&lt;font style=&quot;font-size: 14px;&quot;&gt;ФИО &lt;span style=&quot;white-space: pre;&quot;&gt;&#x9;&lt;/span&gt;&lt;span style=&quot;white-space: pre;&quot;&gt;&#x9;&lt;span style=&quot;white-space: pre;&quot;&gt;&#x9;&lt;span style=&quot;white-space: pre;&quot;&gt;&#x9;&lt;/span&gt;&lt;/span&gt;&lt;/span&gt;string&amp;nbsp;&lt;/font&gt;&lt;/div&gt;&lt;div style=&quot;&quot;&gt;&lt;font style=&quot;font-size: 14px;&quot;&gt;Телефон &lt;span style=&quot;white-space: pre;&quot;&gt;&#x9;&lt;span style=&quot;white-space: pre;&quot;&gt;&#x9;&lt;span style=&quot;white-space: pre;&quot;&gt;&#x9;&lt;/span&gt;&lt;/span&gt;&lt;/span&gt;string&amp;nbsp;&lt;/font&gt;&lt;/div&gt;&lt;div style=&quot;&quot;&gt;&lt;font style=&quot;font-size: 14px;&quot;&gt;email &lt;span style=&quot;white-space: pre;&quot;&gt;&#x9;&lt;/span&gt;&lt;span style=&quot;white-space: pre;&quot;&gt;&#x9;&lt;span style=&quot;white-space: pre;&quot;&gt;&#x9;&lt;span style=&quot;white-space: pre;&quot;&gt;&#x9;&lt;/span&gt;&lt;/span&gt;&lt;/span&gt;string&amp;nbsp;&lt;/font&gt;&lt;/div&gt;&lt;div style=&quot;&quot;&gt;&lt;font style=&quot;font-size: 14px;&quot;&gt;Дата регистрации &lt;span style=&quot;white-space: pre;&quot;&gt;&#x9;&lt;span style=&quot;white-space: pre;&quot;&gt;&#x9;&lt;/span&gt;&lt;/span&gt;timestamp&lt;/font&gt;&lt;/div&gt;" style="align=left;strokeColor=none;fillColor=none;spacingLeft=4;fontSize=12;verticalAlign=top;resizable=0;rotatable=0;part=1;html=1;" parent="drzOTBndSnc1gtW4sEnd-1" vertex="1">
          <mxGeometry y="50" width="253" height="140" as="geometry" />
        </mxCell>
        <mxCell id="drzOTBndSnc1gtW4sEnd-3" value="&lt;b&gt;Продукт&lt;/b&gt;" style="swimlane;childLayout=stackLayout;horizontal=1;startSize=50;horizontalStack=0;rounded=1;fontSize=14;fontStyle=0;strokeWidth=2;resizeParent=0;resizeLast=1;shadow=0;dashed=0;align=center;arcSize=4;whiteSpace=wrap;html=1;strokeColor=#4D4D4D;" parent="1" vertex="1">
          <mxGeometry x="120" y="-1240" width="250" height="160" as="geometry" />
        </mxCell>
        <mxCell id="drzOTBndSnc1gtW4sEnd-4" value="&lt;div style=&quot;&quot;&gt;&lt;div&gt;&lt;font style=&quot;font-size: 14px;&quot;&gt;&lt;u&gt;&lt;br&gt;&lt;/u&gt;&lt;/font&gt;&lt;/div&gt;&lt;div&gt;&lt;font style=&quot;font-size: 14px;&quot;&gt;&lt;u&gt;Код продукта&lt;span style=&quot;white-space: pre;&quot;&gt;&#x9;&lt;/span&gt;&lt;span style=&quot;&quot;&gt;&lt;span style=&quot;white-space: pre;&quot;&gt;&lt;span style=&quot;white-space: pre;&quot;&gt;&#x9;&lt;/span&gt;&lt;span style=&quot;white-space: pre;&quot;&gt;&#x9;&lt;span style=&quot;white-space: pre;&quot;&gt;&#x9;&lt;/span&gt;&lt;/span&gt;&lt;/span&gt;&lt;/span&gt;int&amp;nbsp;&lt;/u&gt;&lt;/font&gt;&lt;/div&gt;&lt;div&gt;&lt;font style=&quot;font-size: 14px;&quot;&gt;Себестоимость &lt;span style=&quot;&quot;&gt;&lt;span style=&quot;white-space: pre;&quot;&gt;&amp;nbsp;&amp;nbsp;&amp;nbsp;&amp;nbsp;&lt;/span&gt;&lt;/span&gt;&lt;span style=&quot;&quot;&gt;&lt;span style=&quot;white-space: pre;&quot;&gt;&amp;nbsp;&amp;nbsp;&amp;nbsp;&amp;nbsp;&lt;span style=&quot;white-space: pre;&quot;&gt;&#x9;&lt;/span&gt;&lt;span style=&quot;white-space: pre;&quot;&gt;&#x9;&lt;/span&gt;&lt;/span&gt;&lt;/span&gt;float&lt;/font&gt;&lt;/div&gt;&lt;div&gt;&lt;font style=&quot;font-size: 14px;&quot;&gt;Наименование продукта&amp;nbsp;&amp;nbsp;&lt;span style=&quot;&quot;&gt;&lt;span style=&quot;white-space: pre;&quot;&gt;&amp;nbsp;&amp;nbsp;&amp;nbsp;&amp;nbsp;&lt;span style=&quot;white-space: pre;&quot;&gt;&#x9;&lt;/span&gt;&lt;/span&gt;&lt;/span&gt;string&lt;/font&gt;&lt;/div&gt;&lt;div&gt;&lt;u style=&quot;border-color: var(--border-color); font-size: 14px;&quot;&gt;Код категории продукта&amp;nbsp;&amp;nbsp;&amp;nbsp;&amp;nbsp;&amp;nbsp;&lt;span style=&quot;white-space: pre;&quot;&gt;&#x9;&lt;/span&gt;&lt;span style=&quot;border-color: var(--border-color);&quot;&gt;&lt;/span&gt;int&lt;/u&gt;&lt;br&gt;&lt;/div&gt;&lt;/div&gt;" style="align=left;strokeColor=none;fillColor=none;spacingLeft=4;fontSize=12;verticalAlign=top;resizable=0;rotatable=0;part=1;html=1;" parent="drzOTBndSnc1gtW4sEnd-3" vertex="1">
          <mxGeometry y="50" width="250" height="110" as="geometry" />
        </mxCell>
        <mxCell id="drzOTBndSnc1gtW4sEnd-5" value="&lt;b&gt;Категория продукта&lt;/b&gt;" style="swimlane;childLayout=stackLayout;horizontal=1;startSize=50;horizontalStack=0;rounded=1;fontSize=14;fontStyle=0;strokeWidth=2;resizeParent=0;resizeLast=1;shadow=0;dashed=0;align=center;arcSize=4;whiteSpace=wrap;html=1;strokeColor=#4D4D4D;" parent="1" vertex="1">
          <mxGeometry x="117" y="-1000" width="263" height="150" as="geometry" />
        </mxCell>
        <mxCell id="drzOTBndSnc1gtW4sEnd-6" value="&lt;div style=&quot;&quot;&gt;&lt;div&gt;&lt;font style=&quot;font-size: 14px;&quot;&gt;&lt;u&gt;&lt;br&gt;&lt;/u&gt;&lt;/font&gt;&lt;/div&gt;&lt;div&gt;&lt;u style=&quot;border-color: var(--border-color); font-size: 14px;&quot;&gt;Код категории продукта&amp;nbsp;&lt;span style=&quot;white-space: pre;&quot;&gt;&amp;nbsp;&amp;nbsp;&amp;nbsp;&amp;nbsp;&lt;span style=&quot;white-space: pre;&quot;&gt;&#x9;&lt;/span&gt;&lt;/span&gt;int&lt;/u&gt;&lt;span style=&quot;font-size: 14px; background-color: initial;&quot;&gt;&lt;br&gt;&lt;/span&gt;&lt;/div&gt;&lt;div&gt;&lt;span style=&quot;font-size: 14px;&quot;&gt;Наименование категории&amp;nbsp; &amp;nbsp; &amp;nbsp; string&lt;/span&gt;&lt;/div&gt;&lt;div&gt;&lt;span style=&quot;font-size: 14px; background-color: initial;&quot;&gt;Описание категории&lt;span style=&quot;white-space: pre;&quot;&gt;&#x9;&lt;/span&gt;&lt;/span&gt;&lt;span style=&quot;font-size: 14px; background-color: initial;&quot;&gt;&lt;span style=&quot;white-space: pre;&quot;&gt;&amp;nbsp;&amp;nbsp;&amp;nbsp;&amp;nbsp;&lt;span style=&quot;white-space: pre;&quot;&gt;&#x9;&lt;/span&gt;&lt;/span&gt;&lt;/span&gt;&lt;span style=&quot;font-size: 14px; background-color: initial;&quot;&gt;string&lt;/span&gt;&lt;br&gt;&lt;/div&gt;&lt;div&gt;&lt;br&gt;&lt;/div&gt;&lt;/div&gt;" style="align=left;strokeColor=none;fillColor=none;spacingLeft=4;fontSize=12;verticalAlign=top;resizable=0;rotatable=0;part=1;html=1;" parent="drzOTBndSnc1gtW4sEnd-5" vertex="1">
          <mxGeometry y="50" width="263" height="100" as="geometry" />
        </mxCell>
        <mxCell id="drzOTBndSnc1gtW4sEnd-8" value="" style="edgeStyle=entityRelationEdgeStyle;fontSize=12;html=1;endArrow=ERoneToMany;startArrow=ERzeroToOne;rounded=0;entryX=0;entryY=0.25;entryDx=0;entryDy=0;exitX=0;exitY=0.25;exitDx=0;exitDy=0;strokeColor=#004C99;strokeWidth=2;" parent="1" source="drzOTBndSnc1gtW4sEnd-6" target="drzOTBndSnc1gtW4sEnd-4" edge="1">
          <mxGeometry width="100" height="100" relative="1" as="geometry">
            <mxPoint x="210" y="-912.62" as="sourcePoint" />
            <mxPoint x="410" y="-1080" as="targetPoint" />
            <Array as="points">
              <mxPoint x="370" y="-920" />
              <mxPoint x="200" y="-914.62" />
              <mxPoint x="230" y="-962.62" />
              <mxPoint x="550" y="-762.62" />
              <mxPoint x="500" y="-752.62" />
              <mxPoint x="500" y="-752.62" />
            </Array>
          </mxGeometry>
        </mxCell>
        <mxCell id="drzOTBndSnc1gtW4sEnd-12" value="&lt;b&gt;Возврат&lt;/b&gt;" style="swimlane;childLayout=stackLayout;horizontal=1;startSize=50;horizontalStack=0;rounded=1;fontSize=14;fontStyle=0;strokeWidth=2;resizeParent=0;resizeLast=1;shadow=0;dashed=0;align=center;arcSize=4;whiteSpace=wrap;html=1;strokeColor=#4D4D4D;" parent="1" vertex="1">
          <mxGeometry x="760" y="-1490" width="320" height="200" as="geometry" />
        </mxCell>
        <mxCell id="drzOTBndSnc1gtW4sEnd-13" value="&lt;div style=&quot;&quot;&gt;&lt;div&gt;&lt;font style=&quot;font-size: 14px;&quot;&gt;&lt;br&gt;&lt;/font&gt;&lt;/div&gt;&lt;div&gt;&lt;font style=&quot;font-size: 14px;&quot;&gt;&lt;u&gt;Код возврата &lt;span style=&quot;white-space: pre;&quot;&gt;&#x9;&lt;/span&gt;&lt;span style=&quot;white-space: pre;&quot;&gt;&#x9;&lt;/span&gt;&lt;span style=&quot;white-space: pre;&quot;&gt;&#x9;&lt;/span&gt;&lt;span style=&quot;white-space: pre;&quot;&gt;&#x9;&lt;/span&gt;&lt;span style=&quot;white-space: pre;&quot;&gt;&#x9;&lt;/span&gt;int&lt;/u&gt;&amp;nbsp;&lt;/font&gt;&lt;/div&gt;&lt;div&gt;&lt;font style=&quot;font-size: 14px;&quot;&gt;&lt;u&gt;Код заказа &lt;span style=&quot;white-space: pre;&quot;&gt;&#x9;&lt;/span&gt;&lt;span style=&quot;white-space: pre;&quot;&gt;&#x9;&lt;/span&gt;&lt;span style=&quot;white-space: pre;&quot;&gt;&#x9;&lt;/span&gt;&lt;span style=&quot;white-space: pre;&quot;&gt;&#x9;&lt;/span&gt;&lt;span style=&quot;white-space: pre;&quot;&gt;&#x9;&lt;/span&gt;int&amp;nbsp;&lt;/u&gt;&lt;/font&gt;&lt;/div&gt;&lt;div&gt;&lt;font style=&quot;font-size: 14px;&quot;&gt;Дата формирования возврата &lt;span style=&quot;white-space: pre;&quot;&gt;&#x9;&lt;/span&gt;timestamp&amp;nbsp;&lt;/font&gt;&lt;/div&gt;&lt;div&gt;&lt;font style=&quot;font-size: 14px;&quot;&gt;Описание причины возврата &lt;span style=&quot;white-space: pre;&quot;&gt;&#x9;&lt;/span&gt;string&lt;/font&gt;&lt;/div&gt;&lt;/div&gt;" style="align=left;strokeColor=none;fillColor=none;spacingLeft=4;fontSize=12;verticalAlign=top;resizable=0;rotatable=0;part=1;html=1;" parent="drzOTBndSnc1gtW4sEnd-12" vertex="1">
          <mxGeometry y="50" width="320" height="150" as="geometry" />
        </mxCell>
        <mxCell id="drzOTBndSnc1gtW4sEnd-14" value="&lt;b&gt;Заказ&lt;/b&gt;" style="swimlane;childLayout=stackLayout;horizontal=1;startSize=50;horizontalStack=0;rounded=1;fontSize=14;fontStyle=0;strokeWidth=2;resizeParent=0;resizeLast=1;shadow=0;dashed=0;align=center;arcSize=4;whiteSpace=wrap;html=1;strokeColor=#4D4D4D;" parent="1" vertex="1">
          <mxGeometry x="760" y="-1240" width="320" height="240" as="geometry" />
        </mxCell>
        <mxCell id="drzOTBndSnc1gtW4sEnd-15" value="&lt;div style=&quot;&quot;&gt;&lt;div&gt;&lt;font style=&quot;font-size: 14px;&quot;&gt;&lt;u&gt;&lt;br&gt;&lt;/u&gt;&lt;/font&gt;&lt;/div&gt;&lt;div&gt;&lt;font style=&quot;font-size: 14px;&quot;&gt;&lt;u&gt;Код заказа &lt;span style=&quot;white-space: pre;&quot;&gt;&#x9;&lt;/span&gt;&lt;span style=&quot;white-space: pre;&quot;&gt;&#x9;&lt;/span&gt;&lt;span style=&quot;white-space: pre;&quot;&gt;&#x9;&lt;/span&gt;&lt;span style=&quot;white-space: pre;&quot;&gt;&#x9;&lt;/span&gt;&lt;span style=&quot;white-space: pre;&quot;&gt;&#x9;&lt;/span&gt;int&amp;nbsp;&lt;/u&gt;&lt;/font&gt;&lt;/div&gt;&lt;div&gt;&lt;span style=&quot;font-size: 14px;&quot;&gt;&lt;u&gt;Код покупателя &lt;span style=&quot;white-space: pre;&quot;&gt;&#x9;&lt;/span&gt;&lt;span style=&quot;white-space: pre;&quot;&gt;&#x9;&lt;/span&gt;&lt;span style=&quot;white-space: pre;&quot;&gt;&#x9;&lt;/span&gt;&lt;span style=&quot;white-space: pre;&quot;&gt;&#x9;&lt;/span&gt;int&lt;span style=&quot;white-space: pre;&quot;&gt;&#x9;&lt;/span&gt;&lt;/u&gt;&lt;/span&gt;&lt;/div&gt;&lt;div&gt;&lt;span style=&quot;font-size: 14px;&quot;&gt;Стоимость заказа&lt;span style=&quot;white-space: pre;&quot;&gt;&#x9;&lt;/span&gt;&lt;span style=&quot;white-space: pre;&quot;&gt;&#x9;&lt;/span&gt;&lt;span style=&quot;white-space: pre;&quot;&gt;&#x9;&lt;/span&gt;&lt;span style=&quot;white-space: pre;&quot;&gt;&#x9;&lt;/span&gt;numeric&lt;/span&gt;&lt;/div&gt;&lt;div&gt;&lt;span style=&quot;font-size: 14px;&quot;&gt;Адрес доставки &lt;span style=&quot;white-space: pre;&quot;&gt;&#x9;&lt;/span&gt;&lt;span style=&quot;white-space: pre;&quot;&gt;&#x9;&lt;/span&gt;&lt;span style=&quot;white-space: pre;&quot;&gt;&#x9;&lt;/span&gt;&lt;span style=&quot;white-space: pre;&quot;&gt;&#x9;&lt;/span&gt;string&lt;/span&gt;&lt;/div&gt;&lt;div&gt;&lt;span style=&quot;font-size: 14px;&quot;&gt;Дата формирования заказа&lt;span style=&quot;white-space: pre;&quot;&gt;&#x9;&lt;/span&gt;&lt;span style=&quot;white-space: pre;&quot;&gt;&#x9;&lt;/span&gt;timestamp&amp;nbsp;&lt;/span&gt;&lt;/div&gt;&lt;div&gt;&lt;span style=&quot;font-size: 14px;&quot;&gt;Дата отгрузки &lt;span style=&quot;white-space: pre;&quot;&gt;&#x9;&lt;/span&gt;&lt;span style=&quot;white-space: pre;&quot;&gt;&#x9;&lt;/span&gt;&lt;span style=&quot;white-space: pre;&quot;&gt;&#x9;&lt;/span&gt;&lt;span style=&quot;white-space: pre;&quot;&gt;&#x9;&lt;/span&gt;timestamp&lt;/span&gt;&lt;/div&gt;&lt;/div&gt;" style="align=left;strokeColor=none;fillColor=none;spacingLeft=4;fontSize=12;verticalAlign=top;resizable=0;rotatable=0;part=1;html=1;" parent="drzOTBndSnc1gtW4sEnd-14" vertex="1">
          <mxGeometry y="50" width="320" height="190" as="geometry" />
        </mxCell>
        <mxCell id="drzOTBndSnc1gtW4sEnd-16" value="&lt;b&gt;Заказ-продукт&lt;/b&gt;" style="swimlane;childLayout=stackLayout;horizontal=1;startSize=50;horizontalStack=0;rounded=1;fontSize=14;fontStyle=0;strokeWidth=2;resizeParent=0;resizeLast=1;shadow=0;dashed=0;align=center;arcSize=4;whiteSpace=wrap;html=1;strokeColor=#4D4D4D;" parent="1" vertex="1">
          <mxGeometry x="450" y="-1080" width="240" height="150" as="geometry" />
        </mxCell>
        <mxCell id="drzOTBndSnc1gtW4sEnd-17" value="&lt;div style=&quot;&quot;&gt;&lt;div&gt;&lt;font style=&quot;font-size: 14px;&quot;&gt;&lt;u&gt;&lt;br&gt;&lt;/u&gt;&lt;/font&gt;&lt;/div&gt;&lt;div&gt;&lt;font style=&quot;font-size: 14px;&quot;&gt;&lt;u&gt;Код продукта&lt;span style=&quot;&quot;&gt;&lt;span style=&quot;white-space: pre;&quot;&gt;&amp;nbsp;&amp;nbsp;&amp;nbsp;&amp;nbsp;&lt;/span&gt;&lt;/span&gt;&lt;span style=&quot;&quot;&gt;&lt;span style=&quot;&quot;&gt;&lt;span style=&quot;&quot;&gt;&lt;span style=&quot;white-space: pre;&quot;&gt;&amp;nbsp;&amp;nbsp;&amp;nbsp;&amp;nbsp;&lt;/span&gt;&lt;/span&gt;&lt;span style=&quot;&quot;&gt;&lt;span style=&quot;white-space: pre;&quot;&gt;&amp;nbsp;&amp;nbsp;&amp;nbsp;&amp;nbsp;&lt;/span&gt;&lt;span style=&quot;&quot;&gt;&lt;span style=&quot;white-space: pre;&quot;&gt;&amp;nbsp;&amp;nbsp;&amp;nbsp;&amp;nbsp;&lt;span style=&quot;white-space: pre;&quot;&gt;&#x9;&lt;/span&gt;&lt;span style=&quot;white-space: pre;&quot;&gt;&#x9;&lt;/span&gt;&lt;/span&gt;&lt;/span&gt;&lt;/span&gt;&lt;/span&gt;&lt;/span&gt;int&amp;nbsp;&lt;/u&gt;&lt;/font&gt;&lt;/div&gt;&lt;div&gt;&lt;u style=&quot;border-color: var(--border-color); font-size: 14px;&quot;&gt;Код заказа&lt;span style=&quot;&quot;&gt;&lt;span style=&quot;white-space: pre;&quot;&gt;&amp;nbsp;&amp;nbsp;&amp;nbsp;&amp;nbsp;&lt;/span&gt;&lt;/span&gt;&lt;span style=&quot;&quot;&gt;&lt;span style=&quot;white-space: pre;&quot;&gt;&amp;nbsp;&amp;nbsp;&amp;nbsp;&amp;nbsp;&lt;/span&gt;&lt;/span&gt;&lt;span style=&quot;&quot;&gt;&lt;span style=&quot;white-space: pre;&quot;&gt;&amp;nbsp;&amp;nbsp;&amp;nbsp;&amp;nbsp;&lt;/span&gt;&lt;/span&gt;&lt;span style=&quot;&quot;&gt;&lt;span style=&quot;white-space: pre;&quot;&gt;&amp;nbsp;&amp;nbsp;&amp;nbsp;&amp;nbsp;&lt;span style=&quot;white-space: pre;&quot;&gt;&#x9;&lt;/span&gt;&lt;span style=&quot;white-space: pre;&quot;&gt;&#x9;&lt;/span&gt;&lt;/span&gt;&lt;/span&gt;&lt;span style=&quot;border-color: var(--border-color);&quot;&gt;&lt;/span&gt;int&lt;/u&gt;&lt;br&gt;&lt;/div&gt;&lt;div&gt;&lt;span style=&quot;border-color: var(--border-color); font-size: 14px;&quot;&gt;Количество продукта&lt;span style=&quot;white-space: pre;&quot;&gt;&#x9;&lt;/span&gt;&lt;span style=&quot;white-space: pre;&quot;&gt;&#x9;&lt;/span&gt;&lt;span style=&quot;border-color: var(--border-color); border-color: var(--border-color);&quot;&gt;&lt;/span&gt;int&lt;br&gt;&lt;/span&gt;&lt;/div&gt;&lt;/div&gt;" style="align=left;strokeColor=none;fillColor=none;spacingLeft=4;fontSize=12;verticalAlign=top;resizable=0;rotatable=0;part=1;html=1;" parent="drzOTBndSnc1gtW4sEnd-16" vertex="1">
          <mxGeometry y="50" width="240" height="100" as="geometry" />
        </mxCell>
        <mxCell id="iBcjReTXid5_ruqB0NQw-2" value="" style="edgeStyle=entityRelationEdgeStyle;fontSize=12;html=1;endArrow=ERoneToMany;startArrow=ERzeroToOne;rounded=0;entryX=1.01;entryY=0.338;entryDx=0;entryDy=0;entryPerimeter=0;dashed=1;exitX=-0.006;exitY=0.374;exitDx=0;exitDy=0;exitPerimeter=0;strokeColor=#004C99;strokeWidth=2;" parent="1" source="drzOTBndSnc1gtW4sEnd-15" target="drzOTBndSnc1gtW4sEnd-17" edge="1">
          <mxGeometry width="100" height="100" relative="1" as="geometry">
            <mxPoint x="600" y="-950" as="sourcePoint" />
            <mxPoint x="700" y="-1050" as="targetPoint" />
            <Array as="points">
              <mxPoint x="670" y="-960" />
            </Array>
          </mxGeometry>
        </mxCell>
        <mxCell id="iBcjReTXid5_ruqB0NQw-3" value="" style="edgeStyle=entityRelationEdgeStyle;fontSize=12;html=1;endArrow=ERoneToMany;startArrow=ERzeroToOne;rounded=0;entryX=-0.004;entryY=0.178;entryDx=0;entryDy=0;entryPerimeter=0;dashed=1;exitX=1.008;exitY=0.178;exitDx=0;exitDy=0;exitPerimeter=0;strokeColor=#004C99;strokeWidth=2;" parent="1" source="drzOTBndSnc1gtW4sEnd-4" target="drzOTBndSnc1gtW4sEnd-17" edge="1">
          <mxGeometry width="100" height="100" relative="1" as="geometry">
            <mxPoint x="400" y="-1130" as="sourcePoint" />
            <mxPoint x="518.8800000000001" y="-1065.3600000000001" as="targetPoint" />
          </mxGeometry>
        </mxCell>
        <mxCell id="iBcjReTXid5_ruqB0NQw-4" value="" style="edgeStyle=entityRelationEdgeStyle;fontSize=12;html=1;endArrow=ERone;endFill=1;rounded=0;entryX=1;entryY=0.25;entryDx=0;entryDy=0;exitX=1;exitY=0.25;exitDx=0;exitDy=0;strokeColor=#004C99;strokeWidth=2;" parent="1" source="drzOTBndSnc1gtW4sEnd-15" target="drzOTBndSnc1gtW4sEnd-13" edge="1">
          <mxGeometry width="100" height="100" relative="1" as="geometry">
            <mxPoint x="1040" y="-1170" as="sourcePoint" />
            <mxPoint x="1140" y="-1270" as="targetPoint" />
          </mxGeometry>
        </mxCell>
        <mxCell id="A9GiQOiHnfu9O3lFjF23-1" value="Факт выручки&lt;br&gt;" style="swimlane;childLayout=stackLayout;horizontal=1;startSize=50;horizontalStack=0;rounded=1;fontSize=14;fontStyle=0;strokeWidth=2;resizeParent=0;resizeLast=1;shadow=0;dashed=0;align=center;arcSize=4;whiteSpace=wrap;html=1;strokeColor=#4D4D4D;" parent="1" vertex="1">
          <mxGeometry x="1240" y="-1360" width="280" height="180" as="geometry" />
        </mxCell>
        <mxCell id="A9GiQOiHnfu9O3lFjF23-2" value="&lt;br&gt;&lt;div style=&quot;border-color: var(--border-color);&quot;&gt;&lt;font style=&quot;border-color: var(--border-color); font-size: 14px;&quot;&gt;&lt;u style=&quot;border-color: var(--border-color);&quot;&gt;Код продукта&lt;span style=&quot;&quot;&gt;&amp;nbsp;&amp;nbsp;&amp;nbsp;&amp;nbsp;&lt;/span&gt;&lt;span style=&quot;border-color: var(--border-color);&quot;&gt;&lt;span style=&quot;border-color: var(--border-color);&quot;&gt;&lt;span style=&quot;border-color: var(--border-color);&quot;&gt;&lt;span style=&quot;&quot;&gt;&amp;nbsp;&amp;nbsp;&amp;nbsp;&amp;nbsp;&lt;/span&gt;&lt;/span&gt;&lt;span style=&quot;border-color: var(--border-color);&quot;&gt;&lt;span style=&quot;&quot;&gt;&amp;nbsp;&amp;nbsp;&amp;nbsp;&amp;nbsp;&lt;/span&gt;&lt;span style=&quot;border-color: var(--border-color);&quot;&gt;&lt;span style=&quot;&quot;&gt;&amp;nbsp;&amp;nbsp;&amp;nbsp;&amp;nbsp;&lt;span style=&quot;&quot;&gt;&lt;span style=&quot;white-space: pre;&quot;&gt;&amp;nbsp;&amp;nbsp;&amp;nbsp;&amp;nbsp;&lt;/span&gt;&lt;/span&gt;&lt;/span&gt;&lt;/span&gt;&lt;/span&gt;&lt;/span&gt;&lt;/span&gt;int&amp;nbsp;&lt;/u&gt;&lt;/font&gt;&lt;/div&gt;&lt;div style=&quot;border-color: var(--border-color);&quot;&gt;&lt;span style=&quot;font-size: 14px;&quot;&gt;&lt;u&gt;Код месяца&lt;span style=&quot;&quot;&gt;&lt;span style=&quot;white-space: pre;&quot;&gt;&amp;nbsp;&amp;nbsp;&amp;nbsp;&amp;nbsp;&lt;/span&gt;&lt;/span&gt;&lt;span style=&quot;&quot;&gt;&lt;span style=&quot;white-space: pre;&quot;&gt;&amp;nbsp;&amp;nbsp;&amp;nbsp;&amp;nbsp;&lt;/span&gt;&lt;span style=&quot;&quot;&gt;&lt;span style=&quot;white-space: pre;&quot;&gt;&amp;nbsp;&amp;nbsp;&amp;nbsp;&amp;nbsp;&lt;span style=&quot;white-space: pre;&quot;&gt;&#x9;&lt;/span&gt;&lt;span style=&quot;white-space: pre;&quot;&gt;&#x9;&lt;/span&gt;&lt;/span&gt;&lt;/span&gt;i&lt;/span&gt;nt&lt;/u&gt;&lt;/span&gt;&lt;/div&gt;&lt;div style=&quot;border-color: var(--border-color);&quot;&gt;&lt;span style=&quot;font-size: 14px;&quot;&gt;Выручка&amp;nbsp;&lt;span style=&quot;&quot;&gt;&lt;span style=&quot;white-space: pre;&quot;&gt;&amp;nbsp;&amp;nbsp;&amp;nbsp;&amp;nbsp;&lt;/span&gt;&lt;/span&gt;&lt;span style=&quot;&quot;&gt;&lt;span style=&quot;white-space: pre;&quot;&gt;&amp;nbsp;&amp;nbsp;&amp;nbsp;&amp;nbsp;&lt;/span&gt;&lt;/span&gt;&lt;span style=&quot;&quot;&gt;&lt;span style=&quot;white-space: pre;&quot;&gt;&amp;nbsp;&amp;nbsp;&amp;nbsp;&amp;nbsp;&lt;/span&gt;&lt;/span&gt;&lt;span style=&quot;&quot;&gt;&lt;span style=&quot;white-space: pre;&quot;&gt;&amp;nbsp;&amp;nbsp;&amp;nbsp;&amp;nbsp;&lt;span style=&quot;white-space: pre;&quot;&gt;&#x9;&lt;/span&gt;&lt;span style=&quot;white-space: pre;&quot;&gt;&#x9;&lt;/span&gt;&lt;/span&gt;&lt;/span&gt;float&lt;/span&gt;&lt;/div&gt;&lt;div style=&quot;border-color: var(--border-color);&quot;&gt;&lt;div style=&quot;border-color: var(--border-color);&quot;&gt;&lt;font style=&quot;font-size: 14px;&quot;&gt;Количество возвратов&lt;span style=&quot;white-space: pre;&quot;&gt;&#x9;&lt;/span&gt;int&lt;/font&gt;&lt;span style=&quot;border-color: var(--border-color); font-size: 14px;&quot;&gt;&lt;/span&gt;&lt;/div&gt;&lt;div style=&quot;border-color: var(--border-color);&quot;&gt;&lt;span style=&quot;border-color: var(--border-color); font-size: 14px;&quot;&gt;Убыток&amp;nbsp;&lt;span style=&quot;border-color: var(--border-color);&quot;&gt;&lt;span style=&quot;white-space: pre;&quot;&gt;&amp;nbsp;&amp;nbsp;&amp;nbsp;&amp;nbsp;&lt;/span&gt;&lt;/span&gt;&lt;span style=&quot;border-color: var(--border-color);&quot;&gt;&lt;span style=&quot;white-space: pre;&quot;&gt;&amp;nbsp;&amp;nbsp;&amp;nbsp;&amp;nbsp;&lt;/span&gt;&lt;/span&gt;&lt;span style=&quot;border-color: var(--border-color);&quot;&gt;&lt;span style=&quot;white-space: pre;&quot;&gt;&amp;nbsp;&amp;nbsp;&amp;nbsp;&amp;nbsp;&lt;/span&gt;&lt;/span&gt;&lt;span style=&quot;border-color: var(--border-color);&quot;&gt;&lt;span style=&quot;white-space: pre;&quot;&gt;&amp;nbsp;&amp;nbsp;&amp;nbsp;&amp;nbsp;&lt;span style=&quot;white-space: pre;&quot;&gt;&#x9;&lt;/span&gt;&lt;span style=&quot;white-space: pre;&quot;&gt;&#x9;&lt;/span&gt;&lt;/span&gt;&lt;/span&gt;float&lt;/span&gt;&lt;/div&gt;&lt;/div&gt;" style="align=left;strokeColor=none;fillColor=none;spacingLeft=4;fontSize=12;verticalAlign=top;resizable=0;rotatable=0;part=1;html=1;" parent="A9GiQOiHnfu9O3lFjF23-1" vertex="1">
          <mxGeometry y="50" width="280" height="130" as="geometry" />
        </mxCell>
        <mxCell id="A9GiQOiHnfu9O3lFjF23-4" value="&lt;div&gt;&lt;font style=&quot;background-color: rgb(215, 207, 255); font-size: 18px;&quot;&gt;&lt;b style=&quot;font-size: 22px;&quot;&gt;&amp;nbsp; &amp;nbsp; &amp;nbsp; &amp;nbsp; &amp;nbsp; Логическая модель данных Data Mart Layer&amp;nbsp; &amp;nbsp; &amp;nbsp; &amp;nbsp; &amp;nbsp;&amp;nbsp;&lt;/b&gt;&lt;/font&gt;&lt;/div&gt;" style="text;html=1;strokeColor=none;fillColor=none;align=center;verticalAlign=middle;whiteSpace=wrap;rounded=0;" parent="1" vertex="1">
          <mxGeometry x="1447" y="-1546" width="600" height="40" as="geometry" />
        </mxCell>
        <mxCell id="A9GiQOiHnfu9O3lFjF23-5" value="&lt;b&gt;Продукт&lt;/b&gt;" style="swimlane;childLayout=stackLayout;horizontal=1;startSize=50;horizontalStack=0;rounded=1;fontSize=14;fontStyle=0;strokeWidth=2;resizeParent=0;resizeLast=1;shadow=0;dashed=0;align=center;arcSize=4;whiteSpace=wrap;html=1;strokeColor=#666666;" parent="1" vertex="1">
          <mxGeometry x="1640" y="-1250" width="280" height="160" as="geometry" />
        </mxCell>
        <mxCell id="A9GiQOiHnfu9O3lFjF23-6" value="&lt;div style=&quot;&quot;&gt;&lt;div&gt;&lt;font style=&quot;font-size: 14px;&quot;&gt;&lt;u&gt;&lt;br&gt;&lt;/u&gt;&lt;/font&gt;&lt;/div&gt;&lt;div&gt;&lt;font style=&quot;font-size: 14px;&quot;&gt;&lt;u&gt;Код продукта&lt;span style=&quot;white-space: pre;&quot;&gt;&#x9;&lt;/span&gt;&lt;span style=&quot;&quot;&gt;&lt;span style=&quot;white-space: pre;&quot;&gt;&lt;span style=&quot;white-space: pre;&quot;&gt;&#x9;&lt;/span&gt;&lt;span style=&quot;white-space: pre;&quot;&gt;&#x9;&lt;span style=&quot;white-space: pre;&quot;&gt;&#x9;&lt;/span&gt;&lt;/span&gt;&lt;/span&gt;&lt;/span&gt;int&amp;nbsp;&lt;/u&gt;&lt;/font&gt;&lt;/div&gt;&lt;div&gt;&lt;font style=&quot;font-size: 14px;&quot;&gt;Себестоимость &lt;span style=&quot;&quot;&gt;&lt;span style=&quot;white-space: pre;&quot;&gt;&amp;nbsp;&amp;nbsp;&amp;nbsp;&amp;nbsp;&lt;/span&gt;&lt;/span&gt;&lt;span style=&quot;&quot;&gt;&lt;span style=&quot;white-space: pre;&quot;&gt;&amp;nbsp;&amp;nbsp;&amp;nbsp;&amp;nbsp;&lt;span style=&quot;white-space: pre;&quot;&gt;&#x9;&lt;/span&gt;&lt;span style=&quot;white-space: pre;&quot;&gt;&#x9;&lt;/span&gt;&lt;/span&gt;&lt;/span&gt;float&lt;/font&gt;&lt;/div&gt;&lt;div&gt;&lt;font style=&quot;font-size: 14px;&quot;&gt;Наименование продукта&amp;nbsp;&amp;nbsp;&lt;span style=&quot;&quot;&gt;&lt;span style=&quot;white-space: pre;&quot;&gt;&amp;nbsp;&amp;nbsp;&amp;nbsp;&amp;nbsp;&lt;span style=&quot;white-space: pre;&quot;&gt;&#x9;&lt;/span&gt;&lt;/span&gt;&lt;/span&gt;string&lt;/font&gt;&lt;/div&gt;&lt;div&gt;&lt;u style=&quot;border-color: var(--border-color); font-size: 14px;&quot;&gt;Код категории продукта&amp;nbsp;&amp;nbsp;&amp;nbsp;&amp;nbsp;&amp;nbsp;&lt;span style=&quot;white-space: pre;&quot;&gt;&#x9;&lt;/span&gt;&lt;span style=&quot;border-color: var(--border-color);&quot;&gt;&lt;/span&gt;int&lt;/u&gt;&lt;br&gt;&lt;/div&gt;&lt;/div&gt;" style="align=left;strokeColor=none;fillColor=none;spacingLeft=4;fontSize=12;verticalAlign=top;resizable=0;rotatable=0;part=1;html=1;" parent="A9GiQOiHnfu9O3lFjF23-5" vertex="1">
          <mxGeometry y="50" width="280" height="110" as="geometry" />
        </mxCell>
        <mxCell id="A9GiQOiHnfu9O3lFjF23-11" value="&lt;b&gt;Категория продукта&lt;/b&gt;" style="swimlane;childLayout=stackLayout;horizontal=1;startSize=50;horizontalStack=0;rounded=1;fontSize=14;fontStyle=0;strokeWidth=2;resizeParent=0;resizeLast=1;shadow=0;dashed=0;align=center;arcSize=4;whiteSpace=wrap;html=1;strokeColor=#4D4D4D;" parent="1" vertex="1">
          <mxGeometry x="2000" y="-1360" width="280" height="160" as="geometry" />
        </mxCell>
        <mxCell id="A9GiQOiHnfu9O3lFjF23-12" value="&lt;div style=&quot;&quot;&gt;&lt;div&gt;&lt;font style=&quot;font-size: 14px;&quot;&gt;&lt;u&gt;&lt;br&gt;&lt;/u&gt;&lt;/font&gt;&lt;/div&gt;&lt;div&gt;&lt;u style=&quot;border-color: var(--border-color); font-size: 14px;&quot;&gt;Код категории продукта&amp;nbsp;&lt;span style=&quot;white-space: pre;&quot;&gt;&amp;nbsp;&amp;nbsp;&amp;nbsp;&amp;nbsp;&lt;span style=&quot;white-space: pre;&quot;&gt;&#x9;&lt;/span&gt;&lt;/span&gt;int&lt;/u&gt;&lt;span style=&quot;font-size: 14px; background-color: initial;&quot;&gt;&lt;br&gt;&lt;/span&gt;&lt;/div&gt;&lt;div&gt;&lt;span style=&quot;font-size: 14px;&quot;&gt;Наименование категории&amp;nbsp; &amp;nbsp; &amp;nbsp; string&lt;/span&gt;&lt;/div&gt;&lt;div&gt;&lt;span style=&quot;font-size: 14px; background-color: initial;&quot;&gt;Описание категории&lt;span style=&quot;white-space: pre;&quot;&gt;&#x9;&lt;/span&gt;&lt;/span&gt;&lt;span style=&quot;font-size: 14px; background-color: initial;&quot;&gt;&lt;span style=&quot;white-space: pre;&quot;&gt;&amp;nbsp;&amp;nbsp;&amp;nbsp;&amp;nbsp;&lt;span style=&quot;white-space: pre;&quot;&gt;&#x9;&lt;/span&gt;&lt;/span&gt;&lt;/span&gt;&lt;span style=&quot;font-size: 14px; background-color: initial;&quot;&gt;string&lt;/span&gt;&lt;br&gt;&lt;/div&gt;&lt;div&gt;&lt;br&gt;&lt;/div&gt;&lt;/div&gt;" style="align=left;strokeColor=none;fillColor=none;spacingLeft=4;fontSize=12;verticalAlign=top;resizable=0;rotatable=0;part=1;html=1;" parent="A9GiQOiHnfu9O3lFjF23-11" vertex="1">
          <mxGeometry y="50" width="280" height="110" as="geometry" />
        </mxCell>
        <mxCell id="A9GiQOiHnfu9O3lFjF23-14" value="Месяц" style="swimlane;childLayout=stackLayout;horizontal=1;startSize=50;horizontalStack=0;rounded=1;fontSize=14;fontStyle=0;strokeWidth=2;resizeParent=0;resizeLast=1;shadow=0;dashed=0;align=center;arcSize=4;whiteSpace=wrap;html=1;strokeColor=#4D4D4D;" parent="1" vertex="1">
          <mxGeometry x="1640" y="-1460" width="280" height="140" as="geometry" />
        </mxCell>
        <mxCell id="A9GiQOiHnfu9O3lFjF23-15" value="&lt;font style=&quot;&quot;&gt;&lt;font style=&quot;font-size: 14px;&quot;&gt;&lt;u&gt;Код месяца&lt;span style=&quot;&quot;&gt;&lt;span style=&quot;white-space: pre;&quot;&gt;&amp;nbsp;&amp;nbsp;&amp;nbsp;&amp;nbsp;&lt;/span&gt;&lt;/span&gt;&lt;span style=&quot;&quot;&gt;&lt;span style=&quot;white-space: pre;&quot;&gt;&amp;nbsp;&amp;nbsp;&amp;nbsp;&amp;nbsp;&lt;/span&gt;&lt;/span&gt;&lt;span style=&quot;&quot;&gt;&lt;span style=&quot;white-space: pre;&quot;&gt;&amp;nbsp;&amp;nbsp;&amp;nbsp;&amp;nbsp;&lt;/span&gt;&lt;/span&gt;&lt;span style=&quot;&quot;&gt;&lt;span style=&quot;white-space: pre;&quot;&gt;&amp;nbsp;&amp;nbsp;&amp;nbsp;&amp;nbsp;&lt;/span&gt;&lt;/span&gt;&lt;span style=&quot;&quot;&gt;&lt;span style=&quot;white-space: pre;&quot;&gt;&amp;nbsp;&amp;nbsp;&amp;nbsp;&amp;nbsp;&lt;span style=&quot;white-space: pre;&quot;&gt;&#x9;&lt;/span&gt;&lt;span style=&quot;white-space: pre;&quot;&gt;&#x9;&lt;/span&gt;&lt;/span&gt;&lt;/span&gt;int&lt;/u&gt;&lt;br&gt;&lt;/font&gt;&lt;font style=&quot;font-size: 14px;&quot;&gt;Наименование месяца&lt;span style=&quot;&quot;&gt;&lt;span style=&quot;white-space: pre;&quot;&gt;&amp;nbsp;&amp;nbsp;&amp;nbsp;&amp;nbsp;&lt;/span&gt;&lt;/span&gt;&lt;span style=&quot;&quot;&gt;&lt;span style=&quot;white-space: pre;&quot;&gt;&amp;nbsp;&amp;nbsp;&amp;nbsp;&amp;nbsp;&lt;/span&gt;&lt;/span&gt;&lt;span style=&quot;&quot;&gt;&lt;span style=&quot;white-space: pre;&quot;&gt;&amp;nbsp;&amp;nbsp;&lt;/span&gt;&lt;/span&gt;string&lt;br&gt;&lt;/font&gt;&lt;font style=&quot;border-color: var(--border-color); font-size: 14px;&quot;&gt;&lt;span style=&quot;text-wrap: nowrap;&quot;&gt;Номер месяца&lt;/span&gt;&lt;span style=&quot;white-space: pre;&quot;&gt;&amp;nbsp;&amp;nbsp;&amp;nbsp;&amp;nbsp;&lt;/span&gt;&lt;span style=&quot;border-color: var(--border-color);&quot;&gt;&lt;span style=&quot;white-space: pre;&quot;&gt;&amp;nbsp;&amp;nbsp;&amp;nbsp;&amp;nbsp;&lt;/span&gt;&lt;/span&gt;&lt;span style=&quot;border-color: var(--border-color);&quot;&gt;&lt;span style=&quot;white-space: pre;&quot;&gt;&amp;nbsp;&amp;nbsp;&amp;nbsp;&amp;nbsp;&lt;/span&gt;&lt;/span&gt;&lt;span style=&quot;border-color: var(--border-color);&quot;&gt;&lt;span style=&quot;white-space: pre;&quot;&gt;&amp;nbsp;&amp;nbsp;&amp;nbsp;&amp;nbsp;&lt;/span&gt;&lt;/span&gt;&lt;span style=&quot;border-color: var(--border-color);&quot;&gt;&lt;span style=&quot;white-space: pre;&quot;&gt;&amp;nbsp;&amp;nbsp;&amp;nbsp;&amp;nbsp;&lt;span style=&quot;white-space: pre;&quot;&gt;&#x9;&lt;/span&gt;&lt;/span&gt;&lt;/span&gt;int&lt;br style=&quot;border-color: var(--border-color);&quot;&gt;&lt;/font&gt;&lt;font style=&quot;border-color: var(--border-color); font-size: 14px;&quot;&gt;Год месяца&lt;span style=&quot;border-color: var(--border-color);&quot;&gt;&lt;span style=&quot;white-space: pre;&quot;&gt;&amp;nbsp;&amp;nbsp;&amp;nbsp;&amp;nbsp;&lt;/span&gt;&lt;/span&gt;&lt;span style=&quot;border-color: var(--border-color);&quot;&gt;&lt;span style=&quot;white-space: pre;&quot;&gt;&amp;nbsp;&amp;nbsp;&amp;nbsp;&amp;nbsp;&lt;/span&gt;&lt;/span&gt;&lt;span style=&quot;border-color: var(--border-color);&quot;&gt;&lt;span style=&quot;white-space: pre;&quot;&gt;&amp;nbsp;&amp;nbsp;&amp;nbsp;&amp;nbsp;&lt;span style=&quot;white-space: pre;&quot;&gt;&#x9;&lt;/span&gt;&lt;span style=&quot;white-space: pre;&quot;&gt;&#x9;&lt;span style=&quot;white-space: pre;&quot;&gt;&#x9;&lt;/span&gt;&lt;/span&gt;&lt;/span&gt;&lt;/span&gt;string&lt;/font&gt;&lt;br&gt;&lt;/font&gt;" style="align=left;strokeColor=none;fillColor=none;spacingLeft=4;fontSize=12;verticalAlign=top;resizable=0;rotatable=0;part=1;html=1;" parent="A9GiQOiHnfu9O3lFjF23-14" vertex="1">
          <mxGeometry y="50" width="280" height="90" as="geometry" />
        </mxCell>
        <mxCell id="A9GiQOiHnfu9O3lFjF23-21" value="" style="edgeStyle=entityRelationEdgeStyle;fontSize=12;html=1;endArrow=ERoneToMany;startArrow=ERzeroToOne;rounded=0;entryX=1;entryY=0.25;entryDx=0;entryDy=0;exitX=0.002;exitY=0.117;exitDx=0;exitDy=0;exitPerimeter=0;strokeColor=#4C0099;strokeWidth=2;" parent="1" source="A9GiQOiHnfu9O3lFjF23-12" target="A9GiQOiHnfu9O3lFjF23-6" edge="1">
          <mxGeometry width="100" height="100" relative="1" as="geometry">
            <mxPoint x="1919.5600000000004" y="-1061.8000000000002" as="sourcePoint" />
            <mxPoint x="1841.2400000000002" y="-945.56" as="targetPoint" />
          </mxGeometry>
        </mxCell>
        <mxCell id="A9GiQOiHnfu9O3lFjF23-24" value="" style="edgeStyle=entityRelationEdgeStyle;fontSize=12;html=1;endArrow=ERoneToMany;startArrow=ERzeroToOne;rounded=0;exitX=1.002;exitY=0.377;exitDx=0;exitDy=0;exitPerimeter=0;entryX=0;entryY=0.5;entryDx=0;entryDy=0;strokeColor=#4C0099;strokeWidth=2;" parent="1" source="A9GiQOiHnfu9O3lFjF23-2" target="A9GiQOiHnfu9O3lFjF23-5" edge="1">
          <mxGeometry width="100" height="100" relative="1" as="geometry">
            <mxPoint x="1750" y="-940" as="sourcePoint" />
            <mxPoint x="1850" y="-1040" as="targetPoint" />
          </mxGeometry>
        </mxCell>
        <mxCell id="A9GiQOiHnfu9O3lFjF23-25" value="" style="edgeStyle=entityRelationEdgeStyle;fontSize=12;html=1;endArrow=ERoneToMany;startArrow=ERzeroToOne;rounded=0;exitX=1;exitY=0.148;exitDx=0;exitDy=0;exitPerimeter=0;entryX=0;entryY=0.5;entryDx=0;entryDy=0;strokeColor=#4C0099;strokeWidth=2;" parent="1" source="A9GiQOiHnfu9O3lFjF23-2" target="A9GiQOiHnfu9O3lFjF23-15" edge="1">
          <mxGeometry width="100" height="100" relative="1" as="geometry">
            <mxPoint x="1479.9999999999998" y="-1147.26" as="sourcePoint" />
            <mxPoint x="1875.9199999999998" y="-1368.64" as="targetPoint" />
          </mxGeometry>
        </mxCell>
        <mxCell id="bxFAL6pg8l00M89fbW_3-1" value="&lt;b&gt;Покупатель&lt;/b&gt;" style="swimlane;childLayout=stackLayout;horizontal=1;startSize=50;horizontalStack=0;rounded=1;fontSize=14;fontStyle=0;strokeWidth=2;resizeParent=0;resizeLast=1;shadow=0;dashed=0;align=center;arcSize=4;whiteSpace=wrap;html=1;strokeColor=#666666;" parent="1" vertex="1">
          <mxGeometry x="40" y="-560" width="240" height="190" as="geometry" />
        </mxCell>
        <mxCell id="bxFAL6pg8l00M89fbW_3-2" value="&lt;div style=&quot;&quot;&gt;&lt;font style=&quot;font-size: 14px;&quot;&gt;&lt;u&gt;&lt;br&gt;&lt;/u&gt;&lt;/font&gt;&lt;/div&gt;&lt;div style=&quot;&quot;&gt;&lt;font style=&quot;font-size: 14px;&quot;&gt;&lt;u&gt;Код покупателя &lt;span style=&quot;white-space: pre;&quot;&gt;&#x9;&lt;span style=&quot;white-space: pre;&quot;&gt;&#x9;&lt;/span&gt;&lt;/span&gt;int&amp;nbsp;&lt;/u&gt;&lt;/font&gt;&lt;/div&gt;&lt;div style=&quot;&quot;&gt;&lt;font style=&quot;font-size: 14px;&quot;&gt;ФИО &lt;span style=&quot;white-space: pre;&quot;&gt;&#x9;&lt;/span&gt;&lt;span style=&quot;white-space: pre;&quot;&gt;&#x9;&lt;span style=&quot;white-space: pre;&quot;&gt;&#x9;&lt;span style=&quot;white-space: pre;&quot;&gt;&#x9;&lt;/span&gt;&lt;/span&gt;&lt;/span&gt;string&amp;nbsp;&lt;/font&gt;&lt;/div&gt;&lt;div style=&quot;&quot;&gt;&lt;font style=&quot;font-size: 14px;&quot;&gt;Телефон &lt;span style=&quot;white-space: pre;&quot;&gt;&#x9;&lt;span style=&quot;white-space: pre;&quot;&gt;&#x9;&lt;span style=&quot;white-space: pre;&quot;&gt;&#x9;&lt;/span&gt;&lt;/span&gt;&lt;/span&gt;string&amp;nbsp;&lt;/font&gt;&lt;/div&gt;&lt;div style=&quot;&quot;&gt;&lt;font style=&quot;font-size: 14px;&quot;&gt;email &lt;span style=&quot;white-space: pre;&quot;&gt;&#x9;&lt;/span&gt;&lt;span style=&quot;white-space: pre;&quot;&gt;&#x9;&lt;span style=&quot;white-space: pre;&quot;&gt;&#x9;&lt;span style=&quot;white-space: pre;&quot;&gt;&#x9;&lt;/span&gt;&lt;/span&gt;&lt;/span&gt;string&amp;nbsp;&lt;/font&gt;&lt;/div&gt;&lt;div style=&quot;&quot;&gt;&lt;font style=&quot;font-size: 14px;&quot;&gt;Дата регистрации &lt;span style=&quot;white-space: pre;&quot;&gt;&#x9;&lt;span style=&quot;white-space: pre;&quot;&gt;&#x9;&lt;/span&gt;&lt;/span&gt;timestamp&lt;/font&gt;&lt;/div&gt;" style="align=left;strokeColor=none;fillColor=none;spacingLeft=4;fontSize=12;verticalAlign=top;resizable=0;rotatable=0;part=1;html=1;" parent="bxFAL6pg8l00M89fbW_3-1" vertex="1">
          <mxGeometry y="50" width="240" height="140" as="geometry" />
        </mxCell>
        <mxCell id="bxFAL6pg8l00M89fbW_3-3" value="&lt;b&gt;Продукт&lt;/b&gt;" style="swimlane;childLayout=stackLayout;horizontal=1;startSize=50;horizontalStack=0;rounded=1;fontSize=14;fontStyle=0;strokeWidth=2;resizeParent=0;resizeLast=1;shadow=0;dashed=0;align=center;arcSize=4;whiteSpace=wrap;html=1;strokeColor=#4D4D4D;" parent="1" vertex="1">
          <mxGeometry x="840" y="-560" width="280" height="200" as="geometry" />
        </mxCell>
        <mxCell id="bxFAL6pg8l00M89fbW_3-4" value="&lt;div style=&quot;&quot;&gt;&lt;div&gt;&lt;font style=&quot;font-size: 14px;&quot;&gt;&lt;u&gt;&lt;br&gt;&lt;/u&gt;&lt;/font&gt;&lt;/div&gt;&lt;div&gt;&lt;font style=&quot;font-size: 14px;&quot;&gt;&lt;u&gt;Код продукта&lt;span style=&quot;white-space: pre;&quot;&gt;&#x9;&lt;/span&gt;&lt;span style=&quot;&quot;&gt;&lt;span style=&quot;white-space: pre;&quot;&gt;&lt;span style=&quot;white-space: pre;&quot;&gt;&#x9;&lt;/span&gt;&lt;span style=&quot;white-space: pre;&quot;&gt;&#x9;&lt;span style=&quot;white-space: pre;&quot;&gt;&#x9;&lt;/span&gt;&lt;/span&gt;&lt;/span&gt;&lt;/span&gt;int&amp;nbsp;&lt;/u&gt;&lt;/font&gt;&lt;/div&gt;&lt;div&gt;&lt;font style=&quot;font-size: 14px;&quot;&gt;Себестоимость &lt;span style=&quot;&quot;&gt;&lt;span style=&quot;white-space: pre;&quot;&gt;&amp;nbsp;&amp;nbsp;&amp;nbsp;&amp;nbsp;&lt;/span&gt;&lt;/span&gt;&lt;span style=&quot;&quot;&gt;&lt;span style=&quot;white-space: pre;&quot;&gt;&amp;nbsp;&amp;nbsp;&amp;nbsp;&amp;nbsp;&lt;span style=&quot;white-space: pre;&quot;&gt;&#x9;&lt;/span&gt;&lt;span style=&quot;white-space: pre;&quot;&gt;&#x9;&lt;/span&gt;&lt;/span&gt;&lt;/span&gt;float&lt;/font&gt;&lt;/div&gt;&lt;div&gt;&lt;font style=&quot;font-size: 14px;&quot;&gt;Наименование продукта&amp;nbsp;&amp;nbsp;&lt;span style=&quot;&quot;&gt;&lt;span style=&quot;white-space: pre;&quot;&gt;&amp;nbsp;&amp;nbsp;&amp;nbsp;&amp;nbsp;&lt;span style=&quot;white-space: pre;&quot;&gt;&#x9;&lt;/span&gt;&lt;/span&gt;&lt;/span&gt;string&lt;/font&gt;&lt;/div&gt;&lt;div&gt;&lt;u style=&quot;border-color: var(--border-color); font-size: 14px;&quot;&gt;Код категории продукта&amp;nbsp;&amp;nbsp;&amp;nbsp;&amp;nbsp;&amp;nbsp;&lt;span style=&quot;white-space: pre;&quot;&gt;&#x9;&lt;/span&gt;&lt;span style=&quot;border-color: var(--border-color);&quot;&gt;&lt;/span&gt;int&lt;/u&gt;&lt;br&gt;&lt;/div&gt;&lt;div&gt;&lt;span style=&quot;font-size: 14px;&quot;&gt;Наименование категории продукта int&lt;/span&gt;&lt;/div&gt;&lt;div&gt;&lt;span style=&quot;font-size: 14px;&quot;&gt;Описание категории продукта string&lt;/span&gt;&lt;/div&gt;&lt;div&gt;&lt;u style=&quot;border-color: var(--border-color); font-size: 14px;&quot;&gt;&lt;br&gt;&lt;/u&gt;&lt;/div&gt;&lt;/div&gt;" style="align=left;strokeColor=none;fillColor=none;spacingLeft=4;fontSize=12;verticalAlign=top;resizable=0;rotatable=0;part=1;html=1;" parent="bxFAL6pg8l00M89fbW_3-3" vertex="1">
          <mxGeometry y="50" width="280" height="150" as="geometry" />
        </mxCell>
        <mxCell id="bxFAL6pg8l00M89fbW_3-5" value="&lt;b&gt;Заказ&lt;/b&gt;" style="swimlane;childLayout=stackLayout;horizontal=1;startSize=50;horizontalStack=0;rounded=1;fontSize=14;fontStyle=0;strokeWidth=2;resizeParent=0;resizeLast=1;shadow=0;dashed=0;align=center;arcSize=4;whiteSpace=wrap;html=1;strokeColor=#666666;" parent="1" vertex="1">
          <mxGeometry x="400" y="-380" width="320" height="220" as="geometry" />
        </mxCell>
        <mxCell id="bxFAL6pg8l00M89fbW_3-6" value="&lt;div style=&quot;&quot;&gt;&lt;div&gt;&lt;font style=&quot;font-size: 14px;&quot;&gt;&lt;u&gt;&lt;br&gt;&lt;/u&gt;&lt;/font&gt;&lt;/div&gt;&lt;div&gt;&lt;font style=&quot;font-size: 14px;&quot;&gt;&lt;u&gt;Код заказа &lt;span style=&quot;white-space: pre;&quot;&gt;&#x9;&lt;/span&gt;&lt;span style=&quot;white-space: pre;&quot;&gt;&#x9;&lt;/span&gt;&lt;span style=&quot;white-space: pre;&quot;&gt;&#x9;&lt;/span&gt;&lt;span style=&quot;white-space: pre;&quot;&gt;&#x9;&lt;/span&gt;&lt;span style=&quot;white-space: pre;&quot;&gt;&#x9;&lt;/span&gt;int&amp;nbsp;&lt;/u&gt;&lt;/font&gt;&lt;/div&gt;&lt;div&gt;&lt;font style=&quot;font-size: 14px;&quot;&gt;&lt;u&gt;Код покупателя&amp;nbsp;&lt;span style=&quot;white-space: pre;&quot;&gt;&#x9;&lt;/span&gt;&lt;span style=&quot;white-space: pre;&quot;&gt;&#x9;&lt;/span&gt;&lt;span style=&quot;white-space: pre;&quot;&gt;&#x9;&lt;/span&gt;&lt;span style=&quot;white-space: pre;&quot;&gt;&#x9;&lt;/span&gt;int&lt;/u&gt;&lt;/font&gt;&lt;/div&gt;&lt;div&gt;&lt;u style=&quot;font-size: 14px; background-color: initial;&quot;&gt;Код продукта &lt;span style=&quot;white-space-collapse: preserve;&quot;&gt;&#x9;&lt;/span&gt;&lt;span style=&quot;white-space-collapse: preserve;&quot;&gt;&#x9;&lt;/span&gt;&lt;span style=&quot;white-space-collapse: preserve;&quot;&gt;&#x9;&lt;/span&gt;&lt;span style=&quot;white-space-collapse: preserve;&quot;&gt;&#x9;&lt;/span&gt;&lt;span style=&quot;white-space-collapse: preserve;&quot;&gt;&#x9;&lt;/span&gt;int&lt;/u&gt;&lt;br&gt;&lt;/div&gt;&lt;div&gt;&lt;span style=&quot;font-size: 14px; background-color: initial;&quot;&gt;Количество продукта&amp;nbsp;&lt;span style=&quot;white-space: pre;&quot;&gt;&#x9;&lt;/span&gt;&lt;span style=&quot;white-space: pre;&quot;&gt;&#x9;&lt;/span&gt;&lt;span style=&quot;white-space: pre;&quot;&gt;&#x9;&lt;/span&gt;int&lt;/span&gt;&lt;/div&gt;&lt;div&gt;&lt;span style=&quot;font-size: 14px;&quot;&gt;Стоимость заказа&lt;span style=&quot;white-space: pre;&quot;&gt;&#x9;&lt;/span&gt;&lt;span style=&quot;white-space: pre;&quot;&gt;&#x9;&lt;/span&gt;&lt;span style=&quot;white-space: pre;&quot;&gt;&#x9;&lt;/span&gt;&lt;span style=&quot;white-space: pre;&quot;&gt;&#x9;&lt;/span&gt;numeric&lt;/span&gt;&lt;/div&gt;&lt;div&gt;&lt;span style=&quot;font-size: 14px;&quot;&gt;Адрес доставки &lt;span style=&quot;white-space: pre;&quot;&gt;&#x9;&lt;/span&gt;&lt;span style=&quot;white-space: pre;&quot;&gt;&#x9;&lt;/span&gt;&lt;span style=&quot;white-space: pre;&quot;&gt;&#x9;&lt;/span&gt;&lt;span style=&quot;white-space: pre;&quot;&gt;&#x9;&lt;/span&gt;string&lt;/span&gt;&lt;/div&gt;&lt;div&gt;&lt;span style=&quot;font-size: 14px;&quot;&gt;Дата формирования заказа&lt;span style=&quot;white-space: pre;&quot;&gt;&#x9;&lt;/span&gt;&lt;span style=&quot;white-space: pre;&quot;&gt;&#x9;&lt;/span&gt;timestamp&amp;nbsp;&lt;/span&gt;&lt;/div&gt;&lt;/div&gt;" style="align=left;strokeColor=none;fillColor=none;spacingLeft=4;fontSize=12;verticalAlign=top;resizable=0;rotatable=0;part=1;html=1;" parent="bxFAL6pg8l00M89fbW_3-5" vertex="1">
          <mxGeometry y="50" width="320" height="170" as="geometry" />
        </mxCell>
        <mxCell id="bxFAL6pg8l00M89fbW_3-7" value="&lt;div&gt;&lt;font size=&quot;1&quot; style=&quot;&quot;&gt;&lt;b style=&quot;background-color: rgb(166, 255, 234); font-size: 22px;&quot;&gt;&amp;nbsp; &amp;nbsp; &amp;nbsp; &amp;nbsp; &amp;nbsp; &amp;nbsp;Логическая модель данных Primary Data Layer&amp;nbsp; &amp;nbsp; &amp;nbsp; &amp;nbsp; &amp;nbsp; &amp;nbsp; &amp;nbsp;&lt;/b&gt;&lt;/font&gt;&lt;/div&gt;" style="text;html=1;strokeColor=none;fillColor=none;align=center;verticalAlign=middle;whiteSpace=wrap;rounded=0;" parent="1" vertex="1">
          <mxGeometry x="280" y="-695" width="669" height="40" as="geometry" />
        </mxCell>
        <mxCell id="sOHYHxJPK63MiE62RlEj-1" value="" style="edgeStyle=entityRelationEdgeStyle;fontSize=12;html=1;endArrow=ERzeroToMany;startArrow=ERzeroToOne;rounded=0;entryX=0;entryY=0.5;entryDx=0;entryDy=0;strokeColor=#006666;strokeWidth=2;" parent="1" target="bxFAL6pg8l00M89fbW_3-5" edge="1">
          <mxGeometry width="100" height="100" relative="1" as="geometry">
            <mxPoint x="280" y="-490" as="sourcePoint" />
            <mxPoint x="560" y="-460" as="targetPoint" />
          </mxGeometry>
        </mxCell>
        <mxCell id="sOHYHxJPK63MiE62RlEj-3" value="" style="edgeStyle=entityRelationEdgeStyle;fontSize=12;html=1;endArrow=ERzeroToMany;endFill=1;startArrow=ERzeroToMany;rounded=0;entryX=0;entryY=0.073;entryDx=0;entryDy=0;entryPerimeter=0;exitX=0.998;exitY=0.336;exitDx=0;exitDy=0;exitPerimeter=0;strokeColor=#006666;strokeWidth=2;" parent="1" source="bxFAL6pg8l00M89fbW_3-6" target="bxFAL6pg8l00M89fbW_3-4" edge="1">
          <mxGeometry width="100" height="100" relative="1" as="geometry">
            <mxPoint x="460" y="-360" as="sourcePoint" />
            <mxPoint x="560" y="-460" as="targetPoint" />
          </mxGeometry>
        </mxCell>
        <mxCell id="Dky7vpys0HNYpk7-6J0H-1" value="&lt;font style=&quot;font-size: 18px;&quot;&gt;&lt;b style=&quot;border-color: var(--border-color);&quot;&gt;Проектирование компонентов DWH. Логическая модель данных&lt;/b&gt;&lt;br style=&quot;border-color: var(--border-color);&quot;&gt;&lt;font style=&quot;&quot;&gt;Primary Data Layer -&amp;gt; Core Data Layer -&amp;gt; Data Mart Layer&lt;/font&gt;&lt;/font&gt;" style="text;html=1;strokeColor=none;fillColor=none;align=left;verticalAlign=middle;whiteSpace=wrap;rounded=0;" vertex="1" parent="1">
          <mxGeometry x="45" y="-813" width="720" height="40" as="geometry" />
        </mxCell>
      </root>
    </mxGraphModel>
  </diagram>
  <diagram id="tox1hKCOZmPp5FVh7K6W" name="Физическая МД">
    <mxGraphModel dx="1500" dy="2344" grid="0" gridSize="10" guides="1" tooltips="1" connect="1" arrows="1" fold="1" page="1" pageScale="1" pageWidth="1169" pageHeight="827" math="0" shadow="0">
      <root>
        <mxCell id="0" />
        <mxCell id="1" parent="0" />
        <mxCell id="kuLyrGkiRH-58KuVBoqx-1" value="&lt;font style=&quot;font-size: 14px;&quot;&gt;Product&lt;/font&gt;" style="shape=table;startSize=30;container=1;collapsible=1;childLayout=tableLayout;fixedRows=1;rowLines=0;fontStyle=1;align=center;resizeLast=1;html=1;strokeColor=#004C99;strokeWidth=3;" parent="1" vertex="1">
          <mxGeometry x="39" y="-1200" width="280" height="190" as="geometry" />
        </mxCell>
        <mxCell id="kuLyrGkiRH-58KuVBoqx-2" value="" style="shape=tableRow;horizontal=0;startSize=0;swimlaneHead=0;swimlaneBody=0;fillColor=#d5e8d4;collapsible=0;dropTarget=0;points=[[0,0.5],[1,0.5]];portConstraint=eastwest;top=0;left=0;right=0;bottom=1;strokeColor=#82b366;" parent="kuLyrGkiRH-58KuVBoqx-1" vertex="1">
          <mxGeometry y="30" width="280" height="30" as="geometry" />
        </mxCell>
        <mxCell id="kuLyrGkiRH-58KuVBoqx-3" value="PK" style="shape=partialRectangle;connectable=0;fillColor=#d5e8d4;top=0;left=0;bottom=0;right=0;fontStyle=1;overflow=hidden;whiteSpace=wrap;html=1;strokeColor=#82b366;" parent="kuLyrGkiRH-58KuVBoqx-2" vertex="1">
          <mxGeometry width="40" height="30" as="geometry">
            <mxRectangle width="40" height="30" as="alternateBounds" />
          </mxGeometry>
        </mxCell>
        <mxCell id="kuLyrGkiRH-58KuVBoqx-4" value="product_id&amp;nbsp;&lt;b style=&quot;border-color: var(--border-color);&quot;&gt;&lt;font style=&quot;border-color: var(--border-color);&quot; color=&quot;#0868bd&quot;&gt;int&amp;nbsp;&lt;/font&gt;not null&lt;/b&gt;" style="shape=partialRectangle;connectable=0;fillColor=#d5e8d4;top=0;left=0;bottom=0;right=0;align=left;spacingLeft=6;fontStyle=5;overflow=hidden;whiteSpace=wrap;html=1;strokeColor=#82b366;" parent="kuLyrGkiRH-58KuVBoqx-2" vertex="1">
          <mxGeometry x="40" width="240" height="30" as="geometry">
            <mxRectangle width="240" height="30" as="alternateBounds" />
          </mxGeometry>
        </mxCell>
        <mxCell id="kuLyrGkiRH-58KuVBoqx-5" value="" style="shape=tableRow;horizontal=0;startSize=0;swimlaneHead=0;swimlaneBody=0;fillColor=none;collapsible=0;dropTarget=0;points=[[0,0.5],[1,0.5]];portConstraint=eastwest;top=0;left=0;right=0;bottom=1;" parent="kuLyrGkiRH-58KuVBoqx-1" vertex="1">
          <mxGeometry y="60" width="280" height="30" as="geometry" />
        </mxCell>
        <mxCell id="kuLyrGkiRH-58KuVBoqx-6" value="FK" style="shape=partialRectangle;connectable=0;fillColor=#dae8fc;top=0;left=0;bottom=0;right=0;fontStyle=1;overflow=hidden;whiteSpace=wrap;html=1;strokeColor=#6c8ebf;" parent="kuLyrGkiRH-58KuVBoqx-5" vertex="1">
          <mxGeometry width="40" height="30" as="geometry">
            <mxRectangle width="40" height="30" as="alternateBounds" />
          </mxGeometry>
        </mxCell>
        <mxCell id="kuLyrGkiRH-58KuVBoqx-7" value="product_category_id&amp;nbsp;&lt;b style=&quot;border-color: var(--border-color);&quot;&gt;&lt;font style=&quot;border-color: var(--border-color);&quot; color=&quot;#0868bd&quot;&gt;int&amp;nbsp;&lt;/font&gt;not null&lt;/b&gt;" style="shape=partialRectangle;connectable=0;fillColor=#dae8fc;top=0;left=0;bottom=0;right=0;align=left;spacingLeft=6;fontStyle=5;overflow=hidden;whiteSpace=wrap;html=1;strokeColor=#6c8ebf;" parent="kuLyrGkiRH-58KuVBoqx-5" vertex="1">
          <mxGeometry x="40" width="240" height="30" as="geometry">
            <mxRectangle width="240" height="30" as="alternateBounds" />
          </mxGeometry>
        </mxCell>
        <mxCell id="kuLyrGkiRH-58KuVBoqx-8" value="" style="shape=tableRow;horizontal=0;startSize=0;swimlaneHead=0;swimlaneBody=0;fillColor=none;collapsible=0;dropTarget=0;points=[[0,0.5],[1,0.5]];portConstraint=eastwest;top=0;left=0;right=0;bottom=0;" parent="kuLyrGkiRH-58KuVBoqx-1" vertex="1">
          <mxGeometry y="90" width="280" height="30" as="geometry" />
        </mxCell>
        <mxCell id="kuLyrGkiRH-58KuVBoqx-9" value="" style="shape=partialRectangle;connectable=0;fillColor=none;top=0;left=0;bottom=0;right=0;editable=1;overflow=hidden;whiteSpace=wrap;html=1;" parent="kuLyrGkiRH-58KuVBoqx-8" vertex="1">
          <mxGeometry width="40" height="30" as="geometry">
            <mxRectangle width="40" height="30" as="alternateBounds" />
          </mxGeometry>
        </mxCell>
        <mxCell id="kuLyrGkiRH-58KuVBoqx-10" value="product_name&amp;nbsp;&lt;b style=&quot;border-color: var(--border-color);&quot;&gt;&lt;b style=&quot;border-color: var(--border-color);&quot;&gt;&lt;font style=&quot;border-color: var(--border-color);&quot; color=&quot;#0868bd&quot;&gt;string&lt;/font&gt;&lt;/b&gt;&amp;nbsp;not null&lt;/b&gt;" style="shape=partialRectangle;connectable=0;fillColor=none;top=0;left=0;bottom=0;right=0;align=left;spacingLeft=6;overflow=hidden;whiteSpace=wrap;html=1;" parent="kuLyrGkiRH-58KuVBoqx-8" vertex="1">
          <mxGeometry x="40" width="240" height="30" as="geometry">
            <mxRectangle width="240" height="30" as="alternateBounds" />
          </mxGeometry>
        </mxCell>
        <mxCell id="kuLyrGkiRH-58KuVBoqx-11" value="" style="shape=tableRow;horizontal=0;startSize=0;swimlaneHead=0;swimlaneBody=0;fillColor=none;collapsible=0;dropTarget=0;points=[[0,0.5],[1,0.5]];portConstraint=eastwest;top=0;left=0;right=0;bottom=0;" parent="kuLyrGkiRH-58KuVBoqx-1" vertex="1">
          <mxGeometry y="120" width="280" height="30" as="geometry" />
        </mxCell>
        <mxCell id="kuLyrGkiRH-58KuVBoqx-12" value="" style="shape=partialRectangle;connectable=0;fillColor=none;top=0;left=0;bottom=0;right=0;editable=1;overflow=hidden;whiteSpace=wrap;html=1;" parent="kuLyrGkiRH-58KuVBoqx-11" vertex="1">
          <mxGeometry width="40" height="30" as="geometry">
            <mxRectangle width="40" height="30" as="alternateBounds" />
          </mxGeometry>
        </mxCell>
        <mxCell id="kuLyrGkiRH-58KuVBoqx-13" value="net_cost&amp;nbsp;&lt;b style=&quot;border-color: var(--border-color);&quot;&gt;&lt;font style=&quot;border-color: var(--border-color);&quot; color=&quot;#0868bd&quot;&gt;float&lt;/font&gt;&amp;nbsp;not null&lt;/b&gt;" style="shape=partialRectangle;connectable=0;fillColor=none;top=0;left=0;bottom=0;right=0;align=left;spacingLeft=6;overflow=hidden;whiteSpace=wrap;html=1;" parent="kuLyrGkiRH-58KuVBoqx-11" vertex="1">
          <mxGeometry x="40" width="240" height="30" as="geometry">
            <mxRectangle width="240" height="30" as="alternateBounds" />
          </mxGeometry>
        </mxCell>
        <mxCell id="kuLyrGkiRH-58KuVBoqx-14" value="" style="shape=tableRow;horizontal=0;startSize=0;swimlaneHead=0;swimlaneBody=0;fillColor=none;collapsible=0;dropTarget=0;points=[[0,0.5],[1,0.5]];portConstraint=eastwest;top=0;left=0;right=0;bottom=0;" parent="kuLyrGkiRH-58KuVBoqx-1" vertex="1">
          <mxGeometry y="150" width="280" height="30" as="geometry" />
        </mxCell>
        <mxCell id="kuLyrGkiRH-58KuVBoqx-15" value="" style="shape=partialRectangle;connectable=0;fillColor=none;top=0;left=0;bottom=0;right=0;editable=1;overflow=hidden;whiteSpace=wrap;html=1;" parent="kuLyrGkiRH-58KuVBoqx-14" vertex="1">
          <mxGeometry width="40" height="30" as="geometry">
            <mxRectangle width="40" height="30" as="alternateBounds" />
          </mxGeometry>
        </mxCell>
        <mxCell id="kuLyrGkiRH-58KuVBoqx-16" value="" style="shape=partialRectangle;connectable=0;fillColor=none;top=0;left=0;bottom=0;right=0;align=left;spacingLeft=6;overflow=hidden;whiteSpace=wrap;html=1;" parent="kuLyrGkiRH-58KuVBoqx-14" vertex="1">
          <mxGeometry x="40" width="240" height="30" as="geometry">
            <mxRectangle width="240" height="30" as="alternateBounds" />
          </mxGeometry>
        </mxCell>
        <mxCell id="kuLyrGkiRH-58KuVBoqx-36" value="&lt;font style=&quot;font-size: 14px;&quot;&gt;Сustomer&lt;/font&gt;" style="shape=table;startSize=30;container=1;collapsible=1;childLayout=tableLayout;fixedRows=1;rowLines=0;fontStyle=1;align=center;resizeLast=1;html=1;strokeColor=#FF6666;strokeWidth=3;" parent="1" vertex="1">
          <mxGeometry x="39" y="-1520" width="320" height="250" as="geometry" />
        </mxCell>
        <mxCell id="kuLyrGkiRH-58KuVBoqx-37" value="" style="shape=tableRow;horizontal=0;startSize=0;swimlaneHead=0;swimlaneBody=0;fillColor=none;collapsible=0;dropTarget=0;points=[[0,0.5],[1,0.5]];portConstraint=eastwest;top=0;left=0;right=0;bottom=1;" parent="kuLyrGkiRH-58KuVBoqx-36" vertex="1">
          <mxGeometry y="30" width="320" height="30" as="geometry" />
        </mxCell>
        <mxCell id="kuLyrGkiRH-58KuVBoqx-38" value="PK" style="shape=partialRectangle;connectable=0;fillColor=#f8cecc;top=0;left=0;bottom=0;right=0;fontStyle=1;overflow=hidden;whiteSpace=wrap;html=1;strokeColor=#b85450;" parent="kuLyrGkiRH-58KuVBoqx-37" vertex="1">
          <mxGeometry width="40" height="30" as="geometry">
            <mxRectangle width="40" height="30" as="alternateBounds" />
          </mxGeometry>
        </mxCell>
        <mxCell id="kuLyrGkiRH-58KuVBoqx-39" value="customer_id&amp;nbsp;&lt;b style=&quot;border-color: var(--border-color);&quot;&gt;&lt;font style=&quot;border-color: var(--border-color);&quot; color=&quot;#0868bd&quot;&gt;int&lt;/font&gt;&lt;font style=&quot;border-color: var(--border-color);&quot; color=&quot;#3333ff&quot;&gt;&amp;nbsp;&lt;/font&gt;not null&amp;nbsp;&lt;/b&gt;" style="shape=partialRectangle;connectable=0;fillColor=#f8cecc;top=0;left=0;bottom=0;right=0;align=left;spacingLeft=6;fontStyle=5;overflow=hidden;whiteSpace=wrap;html=1;strokeColor=#b85450;" parent="kuLyrGkiRH-58KuVBoqx-37" vertex="1">
          <mxGeometry x="40" width="280" height="30" as="geometry">
            <mxRectangle width="280" height="30" as="alternateBounds" />
          </mxGeometry>
        </mxCell>
        <mxCell id="kuLyrGkiRH-58KuVBoqx-40" value="" style="shape=tableRow;horizontal=0;startSize=0;swimlaneHead=0;swimlaneBody=0;fillColor=none;collapsible=0;dropTarget=0;points=[[0,0.5],[1,0.5]];portConstraint=eastwest;top=0;left=0;right=0;bottom=0;" parent="kuLyrGkiRH-58KuVBoqx-36" vertex="1">
          <mxGeometry y="60" width="320" height="30" as="geometry" />
        </mxCell>
        <mxCell id="kuLyrGkiRH-58KuVBoqx-41" value="" style="shape=partialRectangle;connectable=0;fillColor=none;top=0;left=0;bottom=0;right=0;editable=1;overflow=hidden;whiteSpace=wrap;html=1;" parent="kuLyrGkiRH-58KuVBoqx-40" vertex="1">
          <mxGeometry width="40" height="30" as="geometry">
            <mxRectangle width="40" height="30" as="alternateBounds" />
          </mxGeometry>
        </mxCell>
        <mxCell id="kuLyrGkiRH-58KuVBoqx-42" value="&lt;span style=&quot;color: rgb(0, 0, 0); font-family: Helvetica; font-size: 12px; font-style: normal; font-variant-ligatures: normal; font-variant-caps: normal; font-weight: 400; letter-spacing: normal; orphans: 2; text-align: left; text-indent: 0px; text-transform: none; widows: 2; word-spacing: 0px; -webkit-text-stroke-width: 0px; background-color: rgb(251, 251, 251); text-decoration-thickness: initial; text-decoration-style: initial; text-decoration-color: initial; float: none; display: inline !important;&quot;&gt;first_name&lt;span&gt;&amp;nbsp;&lt;/span&gt;&lt;/span&gt;&lt;span style=&quot;color: rgb(0, 0, 0); font-family: Helvetica; font-size: 12px; font-style: normal; font-variant-ligatures: normal; font-variant-caps: normal; font-weight: 400; letter-spacing: normal; orphans: 2; text-align: left; text-indent: 0px; text-transform: none; widows: 2; word-spacing: 0px; -webkit-text-stroke-width: 0px; background-color: rgb(251, 251, 251); text-decoration-thickness: initial; text-decoration-style: initial; text-decoration-color: initial; float: none; display: inline !important;&quot;&gt;&lt;b style=&quot;border-color: var(--border-color);&quot;&gt;&lt;font style=&quot;border-color: var(--border-color);&quot; color=&quot;#0868bd&quot;&gt;string&lt;/font&gt;&lt;/b&gt;&lt;span&gt;&amp;nbsp;&lt;/span&gt;&lt;/span&gt;&lt;b style=&quot;border-color: var(--border-color); color: rgb(0, 0, 0); font-family: Helvetica; font-size: 12px; font-style: normal; font-variant-ligatures: normal; font-variant-caps: normal; letter-spacing: normal; orphans: 2; text-align: left; text-indent: 0px; text-transform: none; widows: 2; word-spacing: 0px; -webkit-text-stroke-width: 0px; background-color: rgb(251, 251, 251); text-decoration-thickness: initial; text-decoration-style: initial; text-decoration-color: initial;&quot;&gt;not null&lt;/b&gt;" style="shape=partialRectangle;connectable=0;fillColor=none;top=0;left=0;bottom=0;right=0;align=left;spacingLeft=6;overflow=hidden;whiteSpace=wrap;html=1;" parent="kuLyrGkiRH-58KuVBoqx-40" vertex="1">
          <mxGeometry x="40" width="280" height="30" as="geometry">
            <mxRectangle width="280" height="30" as="alternateBounds" />
          </mxGeometry>
        </mxCell>
        <mxCell id="kuLyrGkiRH-58KuVBoqx-43" value="" style="shape=tableRow;horizontal=0;startSize=0;swimlaneHead=0;swimlaneBody=0;fillColor=none;collapsible=0;dropTarget=0;points=[[0,0.5],[1,0.5]];portConstraint=eastwest;top=0;left=0;right=0;bottom=0;" parent="kuLyrGkiRH-58KuVBoqx-36" vertex="1">
          <mxGeometry y="90" width="320" height="30" as="geometry" />
        </mxCell>
        <mxCell id="kuLyrGkiRH-58KuVBoqx-44" value="" style="shape=partialRectangle;connectable=0;fillColor=none;top=0;left=0;bottom=0;right=0;editable=1;overflow=hidden;whiteSpace=wrap;html=1;" parent="kuLyrGkiRH-58KuVBoqx-43" vertex="1">
          <mxGeometry width="40" height="30" as="geometry">
            <mxRectangle width="40" height="30" as="alternateBounds" />
          </mxGeometry>
        </mxCell>
        <mxCell id="kuLyrGkiRH-58KuVBoqx-45" value="&lt;span style=&quot;color: rgb(0, 0, 0); font-family: Helvetica; font-size: 12px; font-style: normal; font-variant-ligatures: normal; font-variant-caps: normal; font-weight: 400; letter-spacing: normal; orphans: 2; text-align: left; text-indent: 0px; text-transform: none; widows: 2; word-spacing: 0px; -webkit-text-stroke-width: 0px; background-color: rgb(251, 251, 251); text-decoration-thickness: initial; text-decoration-style: initial; text-decoration-color: initial; float: none; display: inline !important;&quot;&gt;first_name&lt;span&gt;&amp;nbsp;&lt;/span&gt;&lt;/span&gt;&lt;span style=&quot;color: rgb(0, 0, 0); font-family: Helvetica; font-size: 12px; font-style: normal; font-variant-ligatures: normal; font-variant-caps: normal; font-weight: 400; letter-spacing: normal; orphans: 2; text-align: left; text-indent: 0px; text-transform: none; widows: 2; word-spacing: 0px; -webkit-text-stroke-width: 0px; background-color: rgb(251, 251, 251); text-decoration-thickness: initial; text-decoration-style: initial; text-decoration-color: initial; float: none; display: inline !important;&quot;&gt;&lt;b style=&quot;border-color: var(--border-color);&quot;&gt;&lt;font style=&quot;border-color: var(--border-color);&quot; color=&quot;#0868bd&quot;&gt;string&lt;/font&gt;&lt;/b&gt;&lt;span&gt;&amp;nbsp;&lt;/span&gt;&lt;/span&gt;&lt;b style=&quot;border-color: var(--border-color); color: rgb(0, 0, 0); font-family: Helvetica; font-size: 12px; font-style: normal; font-variant-ligatures: normal; font-variant-caps: normal; letter-spacing: normal; orphans: 2; text-align: left; text-indent: 0px; text-transform: none; widows: 2; word-spacing: 0px; -webkit-text-stroke-width: 0px; background-color: rgb(251, 251, 251); text-decoration-thickness: initial; text-decoration-style: initial; text-decoration-color: initial;&quot;&gt;not null&lt;/b&gt;" style="shape=partialRectangle;connectable=0;fillColor=none;top=0;left=0;bottom=0;right=0;align=left;spacingLeft=6;overflow=hidden;whiteSpace=wrap;html=1;" parent="kuLyrGkiRH-58KuVBoqx-43" vertex="1">
          <mxGeometry x="40" width="280" height="30" as="geometry">
            <mxRectangle width="280" height="30" as="alternateBounds" />
          </mxGeometry>
        </mxCell>
        <mxCell id="kuLyrGkiRH-58KuVBoqx-46" value="" style="shape=tableRow;horizontal=0;startSize=0;swimlaneHead=0;swimlaneBody=0;fillColor=none;collapsible=0;dropTarget=0;points=[[0,0.5],[1,0.5]];portConstraint=eastwest;top=0;left=0;right=0;bottom=0;" parent="kuLyrGkiRH-58KuVBoqx-36" vertex="1">
          <mxGeometry y="120" width="320" height="30" as="geometry" />
        </mxCell>
        <mxCell id="kuLyrGkiRH-58KuVBoqx-47" value="" style="shape=partialRectangle;connectable=0;fillColor=none;top=0;left=0;bottom=0;right=0;editable=1;overflow=hidden;whiteSpace=wrap;html=1;" parent="kuLyrGkiRH-58KuVBoqx-46" vertex="1">
          <mxGeometry width="40" height="30" as="geometry">
            <mxRectangle width="40" height="30" as="alternateBounds" />
          </mxGeometry>
        </mxCell>
        <mxCell id="kuLyrGkiRH-58KuVBoqx-48" value="last_name&amp;nbsp;&lt;b style=&quot;border-color: var(--border-color);&quot;&gt;&lt;font style=&quot;border-color: var(--border-color);&quot; color=&quot;#0868bd&quot;&gt;string&lt;/font&gt;&lt;/b&gt;&amp;nbsp;&lt;b style=&quot;border-color: var(--border-color);&quot;&gt;not null&lt;/b&gt;" style="shape=partialRectangle;connectable=0;fillColor=none;top=0;left=0;bottom=0;right=0;align=left;spacingLeft=6;overflow=hidden;whiteSpace=wrap;html=1;" parent="kuLyrGkiRH-58KuVBoqx-46" vertex="1">
          <mxGeometry x="40" width="280" height="30" as="geometry">
            <mxRectangle width="280" height="30" as="alternateBounds" />
          </mxGeometry>
        </mxCell>
        <mxCell id="kuLyrGkiRH-58KuVBoqx-49" value="" style="shape=tableRow;horizontal=0;startSize=0;swimlaneHead=0;swimlaneBody=0;fillColor=none;collapsible=0;dropTarget=0;points=[[0,0.5],[1,0.5]];portConstraint=eastwest;top=0;left=0;right=0;bottom=0;" parent="kuLyrGkiRH-58KuVBoqx-36" vertex="1">
          <mxGeometry y="150" width="320" height="30" as="geometry" />
        </mxCell>
        <mxCell id="kuLyrGkiRH-58KuVBoqx-50" value="" style="shape=partialRectangle;connectable=0;fillColor=none;top=0;left=0;bottom=0;right=0;editable=1;overflow=hidden;whiteSpace=wrap;html=1;" parent="kuLyrGkiRH-58KuVBoqx-49" vertex="1">
          <mxGeometry width="40" height="30" as="geometry">
            <mxRectangle width="40" height="30" as="alternateBounds" />
          </mxGeometry>
        </mxCell>
        <mxCell id="kuLyrGkiRH-58KuVBoqx-51" value="phone&amp;nbsp;&lt;b style=&quot;border-color: var(--border-color);&quot;&gt;&lt;font style=&quot;border-color: var(--border-color);&quot; color=&quot;#0868bd&quot;&gt;string&lt;/font&gt;&lt;/b&gt;&amp;nbsp;&lt;b style=&quot;border-color: var(--border-color);&quot;&gt;not null&lt;/b&gt;" style="shape=partialRectangle;connectable=0;fillColor=none;top=0;left=0;bottom=0;right=0;align=left;spacingLeft=6;overflow=hidden;whiteSpace=wrap;html=1;" parent="kuLyrGkiRH-58KuVBoqx-49" vertex="1">
          <mxGeometry x="40" width="280" height="30" as="geometry">
            <mxRectangle width="280" height="30" as="alternateBounds" />
          </mxGeometry>
        </mxCell>
        <mxCell id="kuLyrGkiRH-58KuVBoqx-52" value="" style="shape=tableRow;horizontal=0;startSize=0;swimlaneHead=0;swimlaneBody=0;fillColor=none;collapsible=0;dropTarget=0;points=[[0,0.5],[1,0.5]];portConstraint=eastwest;top=0;left=0;right=0;bottom=0;" parent="kuLyrGkiRH-58KuVBoqx-36" vertex="1">
          <mxGeometry y="180" width="320" height="30" as="geometry" />
        </mxCell>
        <mxCell id="kuLyrGkiRH-58KuVBoqx-53" value="" style="shape=partialRectangle;connectable=0;fillColor=none;top=0;left=0;bottom=0;right=0;editable=1;overflow=hidden;whiteSpace=wrap;html=1;" parent="kuLyrGkiRH-58KuVBoqx-52" vertex="1">
          <mxGeometry width="40" height="30" as="geometry">
            <mxRectangle width="40" height="30" as="alternateBounds" />
          </mxGeometry>
        </mxCell>
        <mxCell id="kuLyrGkiRH-58KuVBoqx-54" value="email&amp;nbsp;&lt;b style=&quot;border-color: var(--border-color);&quot;&gt;&lt;font style=&quot;border-color: var(--border-color);&quot; color=&quot;#0868bd&quot;&gt;string&lt;/font&gt;&lt;/b&gt;&amp;nbsp;&lt;b style=&quot;border-color: var(--border-color);&quot;&gt;not null&lt;/b&gt;" style="shape=partialRectangle;connectable=0;fillColor=none;top=0;left=0;bottom=0;right=0;align=left;spacingLeft=6;overflow=hidden;whiteSpace=wrap;html=1;" parent="kuLyrGkiRH-58KuVBoqx-52" vertex="1">
          <mxGeometry x="40" width="280" height="30" as="geometry">
            <mxRectangle width="280" height="30" as="alternateBounds" />
          </mxGeometry>
        </mxCell>
        <mxCell id="kuLyrGkiRH-58KuVBoqx-55" value="" style="shape=tableRow;horizontal=0;startSize=0;swimlaneHead=0;swimlaneBody=0;fillColor=none;collapsible=0;dropTarget=0;points=[[0,0.5],[1,0.5]];portConstraint=eastwest;top=0;left=0;right=0;bottom=0;" parent="kuLyrGkiRH-58KuVBoqx-36" vertex="1">
          <mxGeometry y="210" width="320" height="30" as="geometry" />
        </mxCell>
        <mxCell id="kuLyrGkiRH-58KuVBoqx-56" value="" style="shape=partialRectangle;connectable=0;fillColor=none;top=0;left=0;bottom=0;right=0;editable=1;overflow=hidden;whiteSpace=wrap;html=1;" parent="kuLyrGkiRH-58KuVBoqx-55" vertex="1">
          <mxGeometry width="40" height="30" as="geometry">
            <mxRectangle width="40" height="30" as="alternateBounds" />
          </mxGeometry>
        </mxCell>
        <mxCell id="kuLyrGkiRH-58KuVBoqx-57" value="&lt;div style=&quot;border-color: var(--border-color);&quot;&gt;created_at&amp;nbsp;&lt;font style=&quot;border-color: var(--border-color);&quot; color=&quot;#0868bd&quot;&gt;&lt;b style=&quot;border-color: var(--border-color);&quot;&gt;&lt;b style=&quot;border-color: var(--border-color); color: rgb(0, 0, 0);&quot;&gt;&lt;font style=&quot;border-color: var(--border-color);&quot; color=&quot;#0868bd&quot;&gt;timestamp&lt;/font&gt;&amp;nbsp;not null default()&lt;/b&gt;&amp;nbsp;&lt;/b&gt;&lt;/font&gt;&lt;font style=&quot;border-color: var(--border-color);&quot; color=&quot;#0868bd&quot;&gt;&lt;b style=&quot;border-color: var(--border-color);&quot;&gt;&amp;nbsp;&lt;/b&gt;&lt;/font&gt;&lt;/div&gt;" style="shape=partialRectangle;connectable=0;fillColor=none;top=0;left=0;bottom=0;right=0;align=left;spacingLeft=6;overflow=hidden;whiteSpace=wrap;html=1;" parent="kuLyrGkiRH-58KuVBoqx-55" vertex="1">
          <mxGeometry x="40" width="280" height="30" as="geometry">
            <mxRectangle width="280" height="30" as="alternateBounds" />
          </mxGeometry>
        </mxCell>
        <mxCell id="kuLyrGkiRH-58KuVBoqx-58" value="&lt;font style=&quot;&quot;&gt;&lt;font style=&quot;font-size: 18px;&quot;&gt;&lt;b style=&quot;&quot;&gt;Проектирование компонентов DWH. Физическая модель данных&lt;/b&gt;&lt;br&gt;Primary Data Layer -&amp;gt; Core Data Layer -&amp;gt; Data Mart Layer&lt;/font&gt;&lt;br&gt;&lt;/font&gt;" style="text;html=1;strokeColor=none;fillColor=none;align=left;verticalAlign=middle;whiteSpace=wrap;rounded=0;" parent="1" vertex="1">
          <mxGeometry x="39" y="-1630" width="720" height="40" as="geometry" />
        </mxCell>
        <mxCell id="kuLyrGkiRH-58KuVBoqx-59" value="&lt;span style=&quot;background-color: rgb(212, 232, 255);&quot;&gt;&lt;font style=&quot;font-size: 18px;&quot;&gt;&lt;b style=&quot;&quot;&gt;&amp;nbsp; &amp;nbsp; &amp;nbsp; &amp;nbsp; &amp;nbsp; Физическая модель данных Core Data Layer&amp;nbsp; &amp;nbsp; &amp;nbsp; &amp;nbsp; &amp;nbsp;&amp;nbsp;&lt;/b&gt;&lt;/font&gt;&lt;/span&gt;" style="text;html=1;strokeColor=none;fillColor=none;align=center;verticalAlign=middle;whiteSpace=wrap;rounded=0;" parent="1" vertex="1">
          <mxGeometry x="320" y="-1580" width="520" height="30" as="geometry" />
        </mxCell>
        <mxCell id="kuLyrGkiRH-58KuVBoqx-60" value="&lt;font style=&quot;font-size: 14px;&quot;&gt;Order_Product&lt;/font&gt;" style="shape=table;startSize=30;container=1;collapsible=1;childLayout=tableLayout;fixedRows=1;rowLines=0;fontStyle=1;align=center;resizeLast=1;html=1;whiteSpace=wrap;strokeColor=#006600;strokeWidth=3;" parent="1" vertex="1">
          <mxGeometry x="400" y="-1240" width="280" height="160" as="geometry" />
        </mxCell>
        <mxCell id="kuLyrGkiRH-58KuVBoqx-61" value="" style="shape=tableRow;horizontal=0;startSize=0;swimlaneHead=0;swimlaneBody=0;fillColor=none;collapsible=0;dropTarget=0;points=[[0,0.5],[1,0.5]];portConstraint=eastwest;top=0;left=0;right=0;bottom=0;html=1;" parent="kuLyrGkiRH-58KuVBoqx-60" vertex="1">
          <mxGeometry y="30" width="280" height="30" as="geometry" />
        </mxCell>
        <mxCell id="kuLyrGkiRH-58KuVBoqx-62" value="PK,FK1" style="shape=partialRectangle;connectable=0;fillColor=#d0cee2;top=0;left=0;bottom=0;right=0;fontStyle=1;overflow=hidden;html=1;whiteSpace=wrap;strokeColor=#56517e;" parent="kuLyrGkiRH-58KuVBoqx-61" vertex="1">
          <mxGeometry width="60" height="30" as="geometry">
            <mxRectangle width="60" height="30" as="alternateBounds" />
          </mxGeometry>
        </mxCell>
        <mxCell id="kuLyrGkiRH-58KuVBoqx-63" value="order_id&amp;nbsp;&lt;b style=&quot;border-color: var(--border-color);&quot;&gt;&lt;font style=&quot;border-color: var(--border-color);&quot; color=&quot;#0868bd&quot;&gt;int&amp;nbsp;&lt;/font&gt;not null&lt;/b&gt;" style="shape=partialRectangle;connectable=0;fillColor=#d0cee2;top=0;left=0;bottom=0;right=0;align=left;spacingLeft=6;fontStyle=5;overflow=hidden;html=1;whiteSpace=wrap;strokeColor=#56517e;" parent="kuLyrGkiRH-58KuVBoqx-61" vertex="1">
          <mxGeometry x="60" width="220" height="30" as="geometry">
            <mxRectangle width="220" height="30" as="alternateBounds" />
          </mxGeometry>
        </mxCell>
        <mxCell id="kuLyrGkiRH-58KuVBoqx-64" value="" style="shape=tableRow;horizontal=0;startSize=0;swimlaneHead=0;swimlaneBody=0;fillColor=none;collapsible=0;dropTarget=0;points=[[0,0.5],[1,0.5]];portConstraint=eastwest;top=0;left=0;right=0;bottom=1;html=1;" parent="kuLyrGkiRH-58KuVBoqx-60" vertex="1">
          <mxGeometry y="60" width="280" height="30" as="geometry" />
        </mxCell>
        <mxCell id="kuLyrGkiRH-58KuVBoqx-65" value="PK,FK2" style="shape=partialRectangle;connectable=0;fillColor=#d5e8d4;top=0;left=0;bottom=0;right=0;fontStyle=1;overflow=hidden;html=1;whiteSpace=wrap;strokeColor=#82b366;" parent="kuLyrGkiRH-58KuVBoqx-64" vertex="1">
          <mxGeometry width="60" height="30" as="geometry">
            <mxRectangle width="60" height="30" as="alternateBounds" />
          </mxGeometry>
        </mxCell>
        <mxCell id="kuLyrGkiRH-58KuVBoqx-66" value="product_id&amp;nbsp;&lt;b style=&quot;border-color: var(--border-color);&quot;&gt;&lt;font style=&quot;border-color: var(--border-color);&quot; color=&quot;#0868bd&quot;&gt;int&lt;/font&gt;&amp;nbsp;not null&lt;/b&gt;" style="shape=partialRectangle;connectable=0;fillColor=#d5e8d4;top=0;left=0;bottom=0;right=0;align=left;spacingLeft=6;fontStyle=5;overflow=hidden;html=1;whiteSpace=wrap;strokeColor=#82b366;" parent="kuLyrGkiRH-58KuVBoqx-64" vertex="1">
          <mxGeometry x="60" width="220" height="30" as="geometry">
            <mxRectangle width="220" height="30" as="alternateBounds" />
          </mxGeometry>
        </mxCell>
        <mxCell id="kuLyrGkiRH-58KuVBoqx-67" value="" style="shape=tableRow;horizontal=0;startSize=0;swimlaneHead=0;swimlaneBody=0;fillColor=none;collapsible=0;dropTarget=0;points=[[0,0.5],[1,0.5]];portConstraint=eastwest;top=0;left=0;right=0;bottom=0;html=1;" parent="kuLyrGkiRH-58KuVBoqx-60" vertex="1">
          <mxGeometry y="90" width="280" height="30" as="geometry" />
        </mxCell>
        <mxCell id="kuLyrGkiRH-58KuVBoqx-68" value="" style="shape=partialRectangle;connectable=0;fillColor=none;top=0;left=0;bottom=0;right=0;editable=1;overflow=hidden;html=1;whiteSpace=wrap;" parent="kuLyrGkiRH-58KuVBoqx-67" vertex="1">
          <mxGeometry width="60" height="30" as="geometry">
            <mxRectangle width="60" height="30" as="alternateBounds" />
          </mxGeometry>
        </mxCell>
        <mxCell id="kuLyrGkiRH-58KuVBoqx-69" value="product_quantity&amp;nbsp;&lt;b style=&quot;border-color: var(--border-color);&quot;&gt;&lt;font style=&quot;border-color: var(--border-color);&quot; color=&quot;#0868bd&quot;&gt;int&lt;/font&gt;&lt;/b&gt;&amp;nbsp;&lt;b style=&quot;border-color: var(--border-color);&quot;&gt;not null&amp;nbsp;&lt;/b&gt;" style="shape=partialRectangle;connectable=0;fillColor=none;top=0;left=0;bottom=0;right=0;align=left;spacingLeft=6;overflow=hidden;html=1;whiteSpace=wrap;" parent="kuLyrGkiRH-58KuVBoqx-67" vertex="1">
          <mxGeometry x="60" width="220" height="30" as="geometry">
            <mxRectangle width="220" height="30" as="alternateBounds" />
          </mxGeometry>
        </mxCell>
        <mxCell id="kuLyrGkiRH-58KuVBoqx-70" value="" style="shape=tableRow;horizontal=0;startSize=0;swimlaneHead=0;swimlaneBody=0;fillColor=none;collapsible=0;dropTarget=0;points=[[0,0.5],[1,0.5]];portConstraint=eastwest;top=0;left=0;right=0;bottom=0;html=1;" parent="kuLyrGkiRH-58KuVBoqx-60" vertex="1">
          <mxGeometry y="120" width="280" height="30" as="geometry" />
        </mxCell>
        <mxCell id="kuLyrGkiRH-58KuVBoqx-71" value="" style="shape=partialRectangle;connectable=0;fillColor=none;top=0;left=0;bottom=0;right=0;editable=1;overflow=hidden;html=1;whiteSpace=wrap;" parent="kuLyrGkiRH-58KuVBoqx-70" vertex="1">
          <mxGeometry width="60" height="30" as="geometry">
            <mxRectangle width="60" height="30" as="alternateBounds" />
          </mxGeometry>
        </mxCell>
        <mxCell id="kuLyrGkiRH-58KuVBoqx-72" value="" style="shape=partialRectangle;connectable=0;fillColor=none;top=0;left=0;bottom=0;right=0;align=left;spacingLeft=6;overflow=hidden;html=1;whiteSpace=wrap;" parent="kuLyrGkiRH-58KuVBoqx-70" vertex="1">
          <mxGeometry x="60" width="220" height="30" as="geometry">
            <mxRectangle width="220" height="30" as="alternateBounds" />
          </mxGeometry>
        </mxCell>
        <mxCell id="kuLyrGkiRH-58KuVBoqx-73" value="" style="endArrow=classic;html=1;rounded=0;exitX=0;exitY=0.5;exitDx=0;exitDy=0;entryX=1;entryY=0.5;entryDx=0;entryDy=0;strokeWidth=2;" parent="1" source="kuLyrGkiRH-58KuVBoqx-61" target="kuLyrGkiRH-58KuVBoqx-2" edge="1">
          <mxGeometry width="50" height="50" relative="1" as="geometry">
            <mxPoint x="530" y="-1140" as="sourcePoint" />
            <mxPoint x="580" y="-1190" as="targetPoint" />
          </mxGeometry>
        </mxCell>
        <mxCell id="kuLyrGkiRH-58KuVBoqx-74" value="" style="endArrow=classic;html=1;rounded=0;entryX=0;entryY=0.5;entryDx=0;entryDy=0;exitX=1;exitY=0.5;exitDx=0;exitDy=0;strokeWidth=2;" parent="1" source="kuLyrGkiRH-58KuVBoqx-61" edge="1">
          <mxGeometry width="50" height="50" relative="1" as="geometry">
            <mxPoint x="390" y="-1140" as="sourcePoint" />
            <mxPoint x="800" y="-1135" as="targetPoint" />
          </mxGeometry>
        </mxCell>
        <mxCell id="kuLyrGkiRH-58KuVBoqx-75" value="" style="endArrow=classic;html=1;rounded=0;exitX=0.001;exitY=0.079;exitDx=0;exitDy=0;exitPerimeter=0;strokeWidth=2;" parent="1" edge="1">
          <mxGeometry width="50" height="50" relative="1" as="geometry">
            <mxPoint x="800.3000000000002" y="-1155.51" as="sourcePoint" />
            <mxPoint x="360" y="-1430" as="targetPoint" />
            <Array as="points">
              <mxPoint x="620" y="-1340" />
            </Array>
          </mxGeometry>
        </mxCell>
        <mxCell id="kuLyrGkiRH-58KuVBoqx-77" value="" style="endArrow=classic;html=1;rounded=0;exitX=1;exitY=0.5;exitDx=0;exitDy=0;entryX=1;entryY=0.5;entryDx=0;entryDy=0;strokeWidth=2;" parent="1" source="HvJwrrsyZe6A6jJ-l2LG-24" target="kuLyrGkiRH-58KuVBoqx-93" edge="1">
          <mxGeometry width="50" height="50" relative="1" as="geometry">
            <mxPoint x="1020" y="-1380" as="sourcePoint" />
            <mxPoint x="1101.2000000000003" y="-1125.79" as="targetPoint" />
            <Array as="points">
              <mxPoint x="1120" y="-1240" />
            </Array>
          </mxGeometry>
        </mxCell>
        <mxCell id="kuLyrGkiRH-58KuVBoqx-78" value="&lt;font style=&quot;font-size: 14px;&quot;&gt;Product_Category&lt;/font&gt;" style="shape=table;startSize=30;container=1;collapsible=1;childLayout=tableLayout;fixedRows=1;rowLines=0;fontStyle=1;align=center;resizeLast=1;html=1;strokeColor=#004C99;strokeWidth=3;" parent="1" vertex="1">
          <mxGeometry x="400" y="-1040" width="280" height="150" as="geometry" />
        </mxCell>
        <mxCell id="kuLyrGkiRH-58KuVBoqx-79" value="" style="shape=tableRow;horizontal=0;startSize=0;swimlaneHead=0;swimlaneBody=0;fillColor=none;collapsible=0;dropTarget=0;points=[[0,0.5],[1,0.5]];portConstraint=eastwest;top=0;left=0;right=0;bottom=1;" parent="kuLyrGkiRH-58KuVBoqx-78" vertex="1">
          <mxGeometry y="30" width="280" height="30" as="geometry" />
        </mxCell>
        <mxCell id="kuLyrGkiRH-58KuVBoqx-80" value="PK" style="shape=partialRectangle;connectable=0;fillColor=#dae8fc;top=0;left=0;bottom=0;right=0;fontStyle=1;overflow=hidden;whiteSpace=wrap;html=1;strokeColor=#6c8ebf;" parent="kuLyrGkiRH-58KuVBoqx-79" vertex="1">
          <mxGeometry width="30" height="30" as="geometry">
            <mxRectangle width="30" height="30" as="alternateBounds" />
          </mxGeometry>
        </mxCell>
        <mxCell id="kuLyrGkiRH-58KuVBoqx-81" value="product_category_id&amp;nbsp;&lt;b style=&quot;border-color: var(--border-color);&quot;&gt;&lt;font style=&quot;border-color: var(--border-color);&quot; color=&quot;#0868bd&quot;&gt;int&amp;nbsp;&lt;/font&gt;not null&lt;/b&gt;" style="shape=partialRectangle;connectable=0;fillColor=#dae8fc;top=0;left=0;bottom=0;right=0;align=left;spacingLeft=6;fontStyle=5;overflow=hidden;whiteSpace=wrap;html=1;strokeColor=#6c8ebf;" parent="kuLyrGkiRH-58KuVBoqx-79" vertex="1">
          <mxGeometry x="30" width="250" height="30" as="geometry">
            <mxRectangle width="250" height="30" as="alternateBounds" />
          </mxGeometry>
        </mxCell>
        <mxCell id="kuLyrGkiRH-58KuVBoqx-82" value="" style="shape=tableRow;horizontal=0;startSize=0;swimlaneHead=0;swimlaneBody=0;fillColor=none;collapsible=0;dropTarget=0;points=[[0,0.5],[1,0.5]];portConstraint=eastwest;top=0;left=0;right=0;bottom=0;" parent="kuLyrGkiRH-58KuVBoqx-78" vertex="1">
          <mxGeometry y="60" width="280" height="30" as="geometry" />
        </mxCell>
        <mxCell id="kuLyrGkiRH-58KuVBoqx-83" value="" style="shape=partialRectangle;connectable=0;fillColor=none;top=0;left=0;bottom=0;right=0;editable=1;overflow=hidden;whiteSpace=wrap;html=1;" parent="kuLyrGkiRH-58KuVBoqx-82" vertex="1">
          <mxGeometry width="30" height="30" as="geometry">
            <mxRectangle width="30" height="30" as="alternateBounds" />
          </mxGeometry>
        </mxCell>
        <mxCell id="kuLyrGkiRH-58KuVBoqx-84" value="product_name&amp;nbsp;&lt;b style=&quot;border-color: var(--border-color);&quot;&gt;&lt;b style=&quot;border-color: var(--border-color);&quot;&gt;&lt;font style=&quot;border-color: var(--border-color);&quot; color=&quot;#0868bd&quot;&gt;string&lt;/font&gt;&lt;/b&gt;&amp;nbsp;not null&lt;/b&gt;" style="shape=partialRectangle;connectable=0;fillColor=none;top=0;left=0;bottom=0;right=0;align=left;spacingLeft=6;overflow=hidden;whiteSpace=wrap;html=1;" parent="kuLyrGkiRH-58KuVBoqx-82" vertex="1">
          <mxGeometry x="30" width="250" height="30" as="geometry">
            <mxRectangle width="250" height="30" as="alternateBounds" />
          </mxGeometry>
        </mxCell>
        <mxCell id="kuLyrGkiRH-58KuVBoqx-85" value="" style="shape=tableRow;horizontal=0;startSize=0;swimlaneHead=0;swimlaneBody=0;fillColor=none;collapsible=0;dropTarget=0;points=[[0,0.5],[1,0.5]];portConstraint=eastwest;top=0;left=0;right=0;bottom=0;" parent="kuLyrGkiRH-58KuVBoqx-78" vertex="1">
          <mxGeometry y="90" width="280" height="30" as="geometry" />
        </mxCell>
        <mxCell id="kuLyrGkiRH-58KuVBoqx-86" value="" style="shape=partialRectangle;connectable=0;fillColor=none;top=0;left=0;bottom=0;right=0;editable=1;overflow=hidden;whiteSpace=wrap;html=1;" parent="kuLyrGkiRH-58KuVBoqx-85" vertex="1">
          <mxGeometry width="30" height="30" as="geometry">
            <mxRectangle width="30" height="30" as="alternateBounds" />
          </mxGeometry>
        </mxCell>
        <mxCell id="kuLyrGkiRH-58KuVBoqx-87" value="category_description&amp;nbsp;&amp;nbsp;&lt;b style=&quot;border-color: var(--border-color);&quot;&gt;&lt;b style=&quot;border-color: var(--border-color);&quot;&gt;&lt;font style=&quot;border-color: var(--border-color);&quot; color=&quot;#0868bd&quot;&gt;string&lt;/font&gt;&lt;/b&gt;&amp;nbsp;not null&lt;/b&gt;" style="shape=partialRectangle;connectable=0;fillColor=none;top=0;left=0;bottom=0;right=0;align=left;spacingLeft=6;overflow=hidden;whiteSpace=wrap;html=1;" parent="kuLyrGkiRH-58KuVBoqx-85" vertex="1">
          <mxGeometry x="30" width="250" height="30" as="geometry">
            <mxRectangle width="250" height="30" as="alternateBounds" />
          </mxGeometry>
        </mxCell>
        <mxCell id="kuLyrGkiRH-58KuVBoqx-88" value="" style="shape=tableRow;horizontal=0;startSize=0;swimlaneHead=0;swimlaneBody=0;fillColor=none;collapsible=0;dropTarget=0;points=[[0,0.5],[1,0.5]];portConstraint=eastwest;top=0;left=0;right=0;bottom=0;" parent="kuLyrGkiRH-58KuVBoqx-78" vertex="1">
          <mxGeometry y="120" width="280" height="30" as="geometry" />
        </mxCell>
        <mxCell id="kuLyrGkiRH-58KuVBoqx-89" value="" style="shape=partialRectangle;connectable=0;fillColor=none;top=0;left=0;bottom=0;right=0;editable=1;overflow=hidden;whiteSpace=wrap;html=1;" parent="kuLyrGkiRH-58KuVBoqx-88" vertex="1">
          <mxGeometry width="30" height="30" as="geometry">
            <mxRectangle width="30" height="30" as="alternateBounds" />
          </mxGeometry>
        </mxCell>
        <mxCell id="kuLyrGkiRH-58KuVBoqx-90" value="" style="shape=partialRectangle;connectable=0;fillColor=none;top=0;left=0;bottom=0;right=0;align=left;spacingLeft=6;overflow=hidden;whiteSpace=wrap;html=1;" parent="kuLyrGkiRH-58KuVBoqx-88" vertex="1">
          <mxGeometry x="30" width="250" height="30" as="geometry">
            <mxRectangle width="250" height="30" as="alternateBounds" />
          </mxGeometry>
        </mxCell>
        <mxCell id="kuLyrGkiRH-58KuVBoqx-91" value="" style="endArrow=classic;html=1;rounded=0;exitX=1;exitY=0.5;exitDx=0;exitDy=0;entryX=0;entryY=0.5;entryDx=0;entryDy=0;strokeWidth=2;" parent="1" source="kuLyrGkiRH-58KuVBoqx-5" target="kuLyrGkiRH-58KuVBoqx-79" edge="1">
          <mxGeometry width="50" height="50" relative="1" as="geometry">
            <mxPoint x="390" y="-1125" as="sourcePoint" />
            <mxPoint x="330" y="-1125" as="targetPoint" />
          </mxGeometry>
        </mxCell>
        <mxCell id="kuLyrGkiRH-58KuVBoqx-92" value="&lt;font style=&quot;font-size: 14px;&quot;&gt;Order&lt;/font&gt;" style="shape=table;startSize=30;container=1;collapsible=1;childLayout=tableLayout;fixedRows=1;rowLines=0;fontStyle=1;align=center;resizeLast=1;html=1;strokeColor=#87BA6A;strokeWidth=3;" parent="1" vertex="1">
          <mxGeometry x="800" y="-1240" width="280" height="220" as="geometry" />
        </mxCell>
        <mxCell id="kuLyrGkiRH-58KuVBoqx-93" value="" style="shape=tableRow;horizontal=0;startSize=0;swimlaneHead=0;swimlaneBody=0;fillColor=none;collapsible=0;dropTarget=0;points=[[0,0.5],[1,0.5]];portConstraint=eastwest;top=0;left=0;right=0;bottom=1;" parent="kuLyrGkiRH-58KuVBoqx-92" vertex="1">
          <mxGeometry y="30" width="280" height="30" as="geometry" />
        </mxCell>
        <mxCell id="kuLyrGkiRH-58KuVBoqx-94" value="PK" style="shape=partialRectangle;connectable=0;fillColor=#d0cee2;top=0;left=0;bottom=0;right=0;fontStyle=1;overflow=hidden;whiteSpace=wrap;html=1;strokeColor=#56517e;" parent="kuLyrGkiRH-58KuVBoqx-93" vertex="1">
          <mxGeometry width="40" height="30" as="geometry">
            <mxRectangle width="40" height="30" as="alternateBounds" />
          </mxGeometry>
        </mxCell>
        <mxCell id="kuLyrGkiRH-58KuVBoqx-95" value="order_id&amp;nbsp;&lt;b style=&quot;border-color: var(--border-color);&quot;&gt;&lt;font style=&quot;border-color: var(--border-color);&quot; color=&quot;#0868bd&quot;&gt;int&amp;nbsp;&lt;/font&gt;not null&lt;/b&gt;" style="shape=partialRectangle;connectable=0;fillColor=#d0cee2;top=0;left=0;bottom=0;right=0;align=left;spacingLeft=6;fontStyle=5;overflow=hidden;whiteSpace=wrap;html=1;strokeColor=#56517e;" parent="kuLyrGkiRH-58KuVBoqx-93" vertex="1">
          <mxGeometry x="40" width="240" height="30" as="geometry">
            <mxRectangle width="240" height="30" as="alternateBounds" />
          </mxGeometry>
        </mxCell>
        <mxCell id="kuLyrGkiRH-58KuVBoqx-96" value="" style="shape=tableRow;horizontal=0;startSize=0;swimlaneHead=0;swimlaneBody=0;fillColor=none;collapsible=0;dropTarget=0;points=[[0,0.5],[1,0.5]];portConstraint=eastwest;top=0;left=0;right=0;bottom=1;" parent="kuLyrGkiRH-58KuVBoqx-92" vertex="1">
          <mxGeometry y="60" width="280" height="30" as="geometry" />
        </mxCell>
        <mxCell id="kuLyrGkiRH-58KuVBoqx-97" value="FK" style="shape=partialRectangle;connectable=0;fillColor=#f8cecc;top=0;left=0;bottom=0;right=0;fontStyle=1;overflow=hidden;whiteSpace=wrap;html=1;strokeColor=#b85450;" parent="kuLyrGkiRH-58KuVBoqx-96" vertex="1">
          <mxGeometry width="40" height="30" as="geometry">
            <mxRectangle width="40" height="30" as="alternateBounds" />
          </mxGeometry>
        </mxCell>
        <mxCell id="kuLyrGkiRH-58KuVBoqx-98" value="customer_id&amp;nbsp;&lt;b style=&quot;border-color: var(--border-color);&quot;&gt;&lt;font style=&quot;border-color: var(--border-color);&quot; color=&quot;#0868bd&quot;&gt;int&lt;/font&gt;&lt;/b&gt;&amp;nbsp;&lt;b style=&quot;border-color: var(--border-color);&quot;&gt;not null&lt;/b&gt;" style="shape=partialRectangle;connectable=0;fillColor=#f8cecc;top=0;left=0;bottom=0;right=0;align=left;spacingLeft=6;fontStyle=5;overflow=hidden;whiteSpace=wrap;html=1;strokeColor=#b85450;" parent="kuLyrGkiRH-58KuVBoqx-96" vertex="1">
          <mxGeometry x="40" width="240" height="30" as="geometry">
            <mxRectangle width="240" height="30" as="alternateBounds" />
          </mxGeometry>
        </mxCell>
        <mxCell id="kuLyrGkiRH-58KuVBoqx-99" value="" style="shape=tableRow;horizontal=0;startSize=0;swimlaneHead=0;swimlaneBody=0;fillColor=none;collapsible=0;dropTarget=0;points=[[0,0.5],[1,0.5]];portConstraint=eastwest;top=0;left=0;right=0;bottom=0;" parent="kuLyrGkiRH-58KuVBoqx-92" vertex="1">
          <mxGeometry y="90" width="280" height="30" as="geometry" />
        </mxCell>
        <mxCell id="kuLyrGkiRH-58KuVBoqx-100" value="" style="shape=partialRectangle;connectable=0;fillColor=none;top=0;left=0;bottom=0;right=0;editable=1;overflow=hidden;whiteSpace=wrap;html=1;" parent="kuLyrGkiRH-58KuVBoqx-99" vertex="1">
          <mxGeometry width="40" height="30" as="geometry">
            <mxRectangle width="40" height="30" as="alternateBounds" />
          </mxGeometry>
        </mxCell>
        <mxCell id="kuLyrGkiRH-58KuVBoqx-101" value="total_cost&amp;nbsp; &amp;nbsp;&lt;b style=&quot;border-color: var(--border-color);&quot;&gt;&lt;font style=&quot;border-color: var(--border-color);&quot; color=&quot;#0868bd&quot;&gt;float&lt;/font&gt;&amp;nbsp;not nul&lt;/b&gt;" style="shape=partialRectangle;connectable=0;fillColor=none;top=0;left=0;bottom=0;right=0;align=left;spacingLeft=6;overflow=hidden;whiteSpace=wrap;html=1;" parent="kuLyrGkiRH-58KuVBoqx-99" vertex="1">
          <mxGeometry x="40" width="240" height="30" as="geometry">
            <mxRectangle width="240" height="30" as="alternateBounds" />
          </mxGeometry>
        </mxCell>
        <mxCell id="kuLyrGkiRH-58KuVBoqx-102" value="" style="shape=tableRow;horizontal=0;startSize=0;swimlaneHead=0;swimlaneBody=0;fillColor=none;collapsible=0;dropTarget=0;points=[[0,0.5],[1,0.5]];portConstraint=eastwest;top=0;left=0;right=0;bottom=0;" parent="kuLyrGkiRH-58KuVBoqx-92" vertex="1">
          <mxGeometry y="120" width="280" height="30" as="geometry" />
        </mxCell>
        <mxCell id="kuLyrGkiRH-58KuVBoqx-103" value="" style="shape=partialRectangle;connectable=0;fillColor=none;top=0;left=0;bottom=0;right=0;editable=1;overflow=hidden;whiteSpace=wrap;html=1;" parent="kuLyrGkiRH-58KuVBoqx-102" vertex="1">
          <mxGeometry width="40" height="30" as="geometry">
            <mxRectangle width="40" height="30" as="alternateBounds" />
          </mxGeometry>
        </mxCell>
        <mxCell id="kuLyrGkiRH-58KuVBoqx-104" value="delivery_adress&amp;nbsp; &amp;nbsp;&lt;b style=&quot;border-color: var(--border-color);&quot;&gt;&lt;b style=&quot;border-color: var(--border-color);&quot;&gt;&lt;font style=&quot;border-color: var(--border-color);&quot; color=&quot;#0868bd&quot;&gt;string&lt;/font&gt;&lt;/b&gt;&amp;nbsp;not nul&lt;/b&gt;" style="shape=partialRectangle;connectable=0;fillColor=none;top=0;left=0;bottom=0;right=0;align=left;spacingLeft=6;overflow=hidden;whiteSpace=wrap;html=1;" parent="kuLyrGkiRH-58KuVBoqx-102" vertex="1">
          <mxGeometry x="40" width="240" height="30" as="geometry">
            <mxRectangle width="240" height="30" as="alternateBounds" />
          </mxGeometry>
        </mxCell>
        <mxCell id="kuLyrGkiRH-58KuVBoqx-105" value="" style="shape=tableRow;horizontal=0;startSize=0;swimlaneHead=0;swimlaneBody=0;fillColor=none;collapsible=0;dropTarget=0;points=[[0,0.5],[1,0.5]];portConstraint=eastwest;top=0;left=0;right=0;bottom=0;" parent="kuLyrGkiRH-58KuVBoqx-92" vertex="1">
          <mxGeometry y="150" width="280" height="30" as="geometry" />
        </mxCell>
        <mxCell id="kuLyrGkiRH-58KuVBoqx-106" value="" style="shape=partialRectangle;connectable=0;fillColor=none;top=0;left=0;bottom=0;right=0;editable=1;overflow=hidden;whiteSpace=wrap;html=1;" parent="kuLyrGkiRH-58KuVBoqx-105" vertex="1">
          <mxGeometry width="40" height="30" as="geometry">
            <mxRectangle width="40" height="30" as="alternateBounds" />
          </mxGeometry>
        </mxCell>
        <mxCell id="kuLyrGkiRH-58KuVBoqx-107" value="shipping_date&amp;nbsp;&lt;b style=&quot;border-color: var(--border-color);&quot;&gt;&lt;font style=&quot;border-color: var(--border-color);&quot; color=&quot;#0868bd&quot;&gt;timestamp&amp;nbsp;&lt;/font&gt;&lt;font style=&quot;border-color: var(--border-color);&quot; color=&quot;#000305&quot;&gt;not null&lt;/font&gt;&lt;/b&gt;" style="shape=partialRectangle;connectable=0;fillColor=none;top=0;left=0;bottom=0;right=0;align=left;spacingLeft=6;overflow=hidden;whiteSpace=wrap;html=1;" parent="kuLyrGkiRH-58KuVBoqx-105" vertex="1">
          <mxGeometry x="40" width="240" height="30" as="geometry">
            <mxRectangle width="240" height="30" as="alternateBounds" />
          </mxGeometry>
        </mxCell>
        <mxCell id="kuLyrGkiRH-58KuVBoqx-108" value="" style="shape=tableRow;horizontal=0;startSize=0;swimlaneHead=0;swimlaneBody=0;fillColor=none;collapsible=0;dropTarget=0;points=[[0,0.5],[1,0.5]];portConstraint=eastwest;top=0;left=0;right=0;bottom=0;" parent="kuLyrGkiRH-58KuVBoqx-92" vertex="1">
          <mxGeometry y="180" width="280" height="30" as="geometry" />
        </mxCell>
        <mxCell id="kuLyrGkiRH-58KuVBoqx-109" value="" style="shape=partialRectangle;connectable=0;fillColor=none;top=0;left=0;bottom=0;right=0;editable=1;overflow=hidden;whiteSpace=wrap;html=1;" parent="kuLyrGkiRH-58KuVBoqx-108" vertex="1">
          <mxGeometry width="40" height="30" as="geometry">
            <mxRectangle width="40" height="30" as="alternateBounds" />
          </mxGeometry>
        </mxCell>
        <mxCell id="kuLyrGkiRH-58KuVBoqx-110" value="created_ad&amp;nbsp;&amp;nbsp;&lt;b style=&quot;border-color: var(--border-color);&quot;&gt;&lt;font style=&quot;border-color: var(--border-color);&quot; color=&quot;#0868bd&quot;&gt;timestamp&lt;/font&gt;&amp;nbsp;not null default()&lt;/b&gt;" style="shape=partialRectangle;connectable=0;fillColor=none;top=0;left=0;bottom=0;right=0;align=left;spacingLeft=6;overflow=hidden;whiteSpace=wrap;html=1;" parent="kuLyrGkiRH-58KuVBoqx-108" vertex="1">
          <mxGeometry x="40" width="240" height="30" as="geometry">
            <mxRectangle width="240" height="30" as="alternateBounds" />
          </mxGeometry>
        </mxCell>
        <mxCell id="kuLyrGkiRH-58KuVBoqx-130" value="&lt;font style=&quot;font-size: 18px;&quot;&gt;&lt;b style=&quot;background-color: rgb(215, 207, 255);&quot;&gt;&amp;nbsp; &amp;nbsp; &amp;nbsp; &amp;nbsp; &amp;nbsp; &amp;nbsp; Физическая модель данных Data Mart Layer&amp;nbsp; &amp;nbsp; &amp;nbsp; &amp;nbsp; &amp;nbsp; &amp;nbsp;&lt;/b&gt;&lt;/font&gt;" style="text;html=1;strokeColor=none;fillColor=none;align=center;verticalAlign=middle;whiteSpace=wrap;rounded=0;" parent="1" vertex="1">
          <mxGeometry x="1494" y="-1576" width="520" height="30" as="geometry" />
        </mxCell>
        <mxCell id="kuLyrGkiRH-58KuVBoqx-131" value="&lt;font style=&quot;font-size: 14px;&quot;&gt;ProductCategory_Dim&lt;/font&gt;" style="shape=table;startSize=30;container=1;collapsible=1;childLayout=tableLayout;fixedRows=1;rowLines=0;fontStyle=1;align=center;resizeLast=1;html=1;strokeColor=#0066CC;strokeWidth=3;" parent="1" vertex="1">
          <mxGeometry x="1960" y="-1360" width="280" height="150" as="geometry" />
        </mxCell>
        <mxCell id="kuLyrGkiRH-58KuVBoqx-132" value="" style="shape=tableRow;horizontal=0;startSize=0;swimlaneHead=0;swimlaneBody=0;fillColor=none;collapsible=0;dropTarget=0;points=[[0,0.5],[1,0.5]];portConstraint=eastwest;top=0;left=0;right=0;bottom=1;" parent="kuLyrGkiRH-58KuVBoqx-131" vertex="1">
          <mxGeometry y="30" width="280" height="30" as="geometry" />
        </mxCell>
        <mxCell id="kuLyrGkiRH-58KuVBoqx-133" value="PK" style="shape=partialRectangle;connectable=0;fillColor=#dae8fc;top=0;left=0;bottom=0;right=0;fontStyle=1;overflow=hidden;whiteSpace=wrap;html=1;strokeColor=#6c8ebf;" parent="kuLyrGkiRH-58KuVBoqx-132" vertex="1">
          <mxGeometry width="30" height="30" as="geometry">
            <mxRectangle width="30" height="30" as="alternateBounds" />
          </mxGeometry>
        </mxCell>
        <mxCell id="kuLyrGkiRH-58KuVBoqx-134" value="product_category_id&amp;nbsp;&lt;b style=&quot;border-color: var(--border-color);&quot;&gt;&lt;font style=&quot;border-color: var(--border-color);&quot; color=&quot;#0868bd&quot;&gt;int&amp;nbsp;&lt;/font&gt;not null&lt;/b&gt;" style="shape=partialRectangle;connectable=0;fillColor=#dae8fc;top=0;left=0;bottom=0;right=0;align=left;spacingLeft=6;fontStyle=5;overflow=hidden;whiteSpace=wrap;html=1;strokeColor=#6c8ebf;" parent="kuLyrGkiRH-58KuVBoqx-132" vertex="1">
          <mxGeometry x="30" width="250" height="30" as="geometry">
            <mxRectangle width="250" height="30" as="alternateBounds" />
          </mxGeometry>
        </mxCell>
        <mxCell id="kuLyrGkiRH-58KuVBoqx-135" value="" style="shape=tableRow;horizontal=0;startSize=0;swimlaneHead=0;swimlaneBody=0;fillColor=none;collapsible=0;dropTarget=0;points=[[0,0.5],[1,0.5]];portConstraint=eastwest;top=0;left=0;right=0;bottom=0;" parent="kuLyrGkiRH-58KuVBoqx-131" vertex="1">
          <mxGeometry y="60" width="280" height="30" as="geometry" />
        </mxCell>
        <mxCell id="kuLyrGkiRH-58KuVBoqx-136" value="" style="shape=partialRectangle;connectable=0;fillColor=none;top=0;left=0;bottom=0;right=0;editable=1;overflow=hidden;whiteSpace=wrap;html=1;" parent="kuLyrGkiRH-58KuVBoqx-135" vertex="1">
          <mxGeometry width="30" height="30" as="geometry">
            <mxRectangle width="30" height="30" as="alternateBounds" />
          </mxGeometry>
        </mxCell>
        <mxCell id="kuLyrGkiRH-58KuVBoqx-137" value="product_name&amp;nbsp;&lt;b style=&quot;border-color: var(--border-color);&quot;&gt;&lt;b style=&quot;border-color: var(--border-color);&quot;&gt;&lt;font style=&quot;border-color: var(--border-color);&quot; color=&quot;#0868bd&quot;&gt;string&amp;nbsp;&lt;/font&gt;&lt;/b&gt;not null&lt;/b&gt;" style="shape=partialRectangle;connectable=0;fillColor=none;top=0;left=0;bottom=0;right=0;align=left;spacingLeft=6;overflow=hidden;whiteSpace=wrap;html=1;" parent="kuLyrGkiRH-58KuVBoqx-135" vertex="1">
          <mxGeometry x="30" width="250" height="30" as="geometry">
            <mxRectangle width="250" height="30" as="alternateBounds" />
          </mxGeometry>
        </mxCell>
        <mxCell id="kuLyrGkiRH-58KuVBoqx-138" value="" style="shape=tableRow;horizontal=0;startSize=0;swimlaneHead=0;swimlaneBody=0;fillColor=none;collapsible=0;dropTarget=0;points=[[0,0.5],[1,0.5]];portConstraint=eastwest;top=0;left=0;right=0;bottom=0;" parent="kuLyrGkiRH-58KuVBoqx-131" vertex="1">
          <mxGeometry y="90" width="280" height="30" as="geometry" />
        </mxCell>
        <mxCell id="kuLyrGkiRH-58KuVBoqx-139" value="" style="shape=partialRectangle;connectable=0;fillColor=none;top=0;left=0;bottom=0;right=0;editable=1;overflow=hidden;whiteSpace=wrap;html=1;" parent="kuLyrGkiRH-58KuVBoqx-138" vertex="1">
          <mxGeometry width="30" height="30" as="geometry">
            <mxRectangle width="30" height="30" as="alternateBounds" />
          </mxGeometry>
        </mxCell>
        <mxCell id="kuLyrGkiRH-58KuVBoqx-140" value="category_description&amp;nbsp;&amp;nbsp;&lt;b style=&quot;border-color: var(--border-color);&quot;&gt;&lt;b style=&quot;border-color: var(--border-color);&quot;&gt;&lt;font style=&quot;border-color: var(--border-color);&quot; color=&quot;#0868bd&quot;&gt;string&lt;/font&gt;&lt;/b&gt;&amp;nbsp;not null&lt;/b&gt;" style="shape=partialRectangle;connectable=0;fillColor=none;top=0;left=0;bottom=0;right=0;align=left;spacingLeft=6;overflow=hidden;whiteSpace=wrap;html=1;" parent="kuLyrGkiRH-58KuVBoqx-138" vertex="1">
          <mxGeometry x="30" width="250" height="30" as="geometry">
            <mxRectangle width="250" height="30" as="alternateBounds" />
          </mxGeometry>
        </mxCell>
        <mxCell id="kuLyrGkiRH-58KuVBoqx-141" value="" style="shape=tableRow;horizontal=0;startSize=0;swimlaneHead=0;swimlaneBody=0;fillColor=none;collapsible=0;dropTarget=0;points=[[0,0.5],[1,0.5]];portConstraint=eastwest;top=0;left=0;right=0;bottom=0;" parent="kuLyrGkiRH-58KuVBoqx-131" vertex="1">
          <mxGeometry y="120" width="280" height="30" as="geometry" />
        </mxCell>
        <mxCell id="kuLyrGkiRH-58KuVBoqx-142" value="" style="shape=partialRectangle;connectable=0;fillColor=none;top=0;left=0;bottom=0;right=0;editable=1;overflow=hidden;whiteSpace=wrap;html=1;" parent="kuLyrGkiRH-58KuVBoqx-141" vertex="1">
          <mxGeometry width="30" height="30" as="geometry">
            <mxRectangle width="30" height="30" as="alternateBounds" />
          </mxGeometry>
        </mxCell>
        <mxCell id="kuLyrGkiRH-58KuVBoqx-143" value="" style="shape=partialRectangle;connectable=0;fillColor=none;top=0;left=0;bottom=0;right=0;align=left;spacingLeft=6;overflow=hidden;whiteSpace=wrap;html=1;" parent="kuLyrGkiRH-58KuVBoqx-141" vertex="1">
          <mxGeometry x="30" width="250" height="30" as="geometry">
            <mxRectangle width="250" height="30" as="alternateBounds" />
          </mxGeometry>
        </mxCell>
        <mxCell id="kuLyrGkiRH-58KuVBoqx-144" value="&lt;font style=&quot;font-size: 14px;&quot;&gt;Product_Dim&lt;/font&gt;" style="shape=table;startSize=30;container=1;collapsible=1;childLayout=tableLayout;fixedRows=1;rowLines=0;fontStyle=1;align=center;resizeLast=1;html=1;strokeColor=#0062C4;strokeWidth=3;" parent="1" vertex="1">
          <mxGeometry x="1600" y="-1520" width="280" height="200" as="geometry" />
        </mxCell>
        <mxCell id="kuLyrGkiRH-58KuVBoqx-145" value="" style="shape=tableRow;horizontal=0;startSize=0;swimlaneHead=0;swimlaneBody=0;fillColor=none;collapsible=0;dropTarget=0;points=[[0,0.5],[1,0.5]];portConstraint=eastwest;top=0;left=0;right=0;bottom=1;" parent="kuLyrGkiRH-58KuVBoqx-144" vertex="1">
          <mxGeometry y="30" width="280" height="30" as="geometry" />
        </mxCell>
        <mxCell id="kuLyrGkiRH-58KuVBoqx-146" value="PK" style="shape=partialRectangle;connectable=0;fillColor=#d5e8d4;top=0;left=0;bottom=0;right=0;fontStyle=1;overflow=hidden;whiteSpace=wrap;html=1;strokeColor=#82b366;" parent="kuLyrGkiRH-58KuVBoqx-145" vertex="1">
          <mxGeometry width="40" height="30" as="geometry">
            <mxRectangle width="40" height="30" as="alternateBounds" />
          </mxGeometry>
        </mxCell>
        <mxCell id="kuLyrGkiRH-58KuVBoqx-147" value="product_id&amp;nbsp;&lt;b style=&quot;border-color: var(--border-color);&quot;&gt;&lt;font style=&quot;border-color: var(--border-color);&quot; color=&quot;#0868bd&quot;&gt;int&amp;nbsp;&lt;/font&gt;not null&lt;/b&gt;" style="shape=partialRectangle;connectable=0;fillColor=#d5e8d4;top=0;left=0;bottom=0;right=0;align=left;spacingLeft=6;fontStyle=5;overflow=hidden;whiteSpace=wrap;html=1;strokeColor=#82b366;" parent="kuLyrGkiRH-58KuVBoqx-145" vertex="1">
          <mxGeometry x="40" width="240" height="30" as="geometry">
            <mxRectangle width="240" height="30" as="alternateBounds" />
          </mxGeometry>
        </mxCell>
        <mxCell id="kuLyrGkiRH-58KuVBoqx-148" value="" style="shape=tableRow;horizontal=0;startSize=0;swimlaneHead=0;swimlaneBody=0;fillColor=none;collapsible=0;dropTarget=0;points=[[0,0.5],[1,0.5]];portConstraint=eastwest;top=0;left=0;right=0;bottom=1;" parent="kuLyrGkiRH-58KuVBoqx-144" vertex="1">
          <mxGeometry y="60" width="280" height="30" as="geometry" />
        </mxCell>
        <mxCell id="kuLyrGkiRH-58KuVBoqx-149" value="FK" style="shape=partialRectangle;connectable=0;fillColor=#dae8fc;top=0;left=0;bottom=0;right=0;fontStyle=1;overflow=hidden;whiteSpace=wrap;html=1;strokeColor=#6c8ebf;" parent="kuLyrGkiRH-58KuVBoqx-148" vertex="1">
          <mxGeometry width="40" height="30" as="geometry">
            <mxRectangle width="40" height="30" as="alternateBounds" />
          </mxGeometry>
        </mxCell>
        <mxCell id="kuLyrGkiRH-58KuVBoqx-150" value="product_category_id&amp;nbsp;&lt;b style=&quot;border-color: var(--border-color);&quot;&gt;&lt;font style=&quot;border-color: var(--border-color);&quot; color=&quot;#0868bd&quot;&gt;int&amp;nbsp;&lt;/font&gt;not null&lt;/b&gt;" style="shape=partialRectangle;connectable=0;fillColor=#dae8fc;top=0;left=0;bottom=0;right=0;align=left;spacingLeft=6;fontStyle=5;overflow=hidden;whiteSpace=wrap;html=1;strokeColor=#6c8ebf;" parent="kuLyrGkiRH-58KuVBoqx-148" vertex="1">
          <mxGeometry x="40" width="240" height="30" as="geometry">
            <mxRectangle width="240" height="30" as="alternateBounds" />
          </mxGeometry>
        </mxCell>
        <mxCell id="kuLyrGkiRH-58KuVBoqx-151" value="" style="shape=tableRow;horizontal=0;startSize=0;swimlaneHead=0;swimlaneBody=0;fillColor=none;collapsible=0;dropTarget=0;points=[[0,0.5],[1,0.5]];portConstraint=eastwest;top=0;left=0;right=0;bottom=0;" parent="kuLyrGkiRH-58KuVBoqx-144" vertex="1">
          <mxGeometry y="90" width="280" height="30" as="geometry" />
        </mxCell>
        <mxCell id="kuLyrGkiRH-58KuVBoqx-152" value="" style="shape=partialRectangle;connectable=0;fillColor=none;top=0;left=0;bottom=0;right=0;editable=1;overflow=hidden;whiteSpace=wrap;html=1;" parent="kuLyrGkiRH-58KuVBoqx-151" vertex="1">
          <mxGeometry width="40" height="30" as="geometry">
            <mxRectangle width="40" height="30" as="alternateBounds" />
          </mxGeometry>
        </mxCell>
        <mxCell id="kuLyrGkiRH-58KuVBoqx-153" value="product_name&amp;nbsp;&lt;b style=&quot;border-color: var(--border-color);&quot;&gt;&lt;font style=&quot;border-color: var(--border-color);&quot; color=&quot;#0868bd&quot;&gt;string&lt;/font&gt;&amp;nbsp;not null&lt;/b&gt;" style="shape=partialRectangle;connectable=0;fillColor=none;top=0;left=0;bottom=0;right=0;align=left;spacingLeft=6;overflow=hidden;whiteSpace=wrap;html=1;" parent="kuLyrGkiRH-58KuVBoqx-151" vertex="1">
          <mxGeometry x="40" width="240" height="30" as="geometry">
            <mxRectangle width="240" height="30" as="alternateBounds" />
          </mxGeometry>
        </mxCell>
        <mxCell id="kuLyrGkiRH-58KuVBoqx-154" value="" style="shape=tableRow;horizontal=0;startSize=0;swimlaneHead=0;swimlaneBody=0;fillColor=none;collapsible=0;dropTarget=0;points=[[0,0.5],[1,0.5]];portConstraint=eastwest;top=0;left=0;right=0;bottom=0;" parent="kuLyrGkiRH-58KuVBoqx-144" vertex="1">
          <mxGeometry y="120" width="280" height="30" as="geometry" />
        </mxCell>
        <mxCell id="kuLyrGkiRH-58KuVBoqx-155" value="" style="shape=partialRectangle;connectable=0;fillColor=none;top=0;left=0;bottom=0;right=0;editable=1;overflow=hidden;whiteSpace=wrap;html=1;" parent="kuLyrGkiRH-58KuVBoqx-154" vertex="1">
          <mxGeometry width="40" height="30" as="geometry">
            <mxRectangle width="40" height="30" as="alternateBounds" />
          </mxGeometry>
        </mxCell>
        <mxCell id="kuLyrGkiRH-58KuVBoqx-156" value="net_cost&amp;nbsp;&lt;b style=&quot;border-color: var(--border-color);&quot;&gt;&lt;font style=&quot;border-color: var(--border-color);&quot; color=&quot;#0868bd&quot;&gt;float&lt;/font&gt;&amp;nbsp;not null&lt;/b&gt;" style="shape=partialRectangle;connectable=0;fillColor=none;top=0;left=0;bottom=0;right=0;align=left;spacingLeft=6;overflow=hidden;whiteSpace=wrap;html=1;" parent="kuLyrGkiRH-58KuVBoqx-154" vertex="1">
          <mxGeometry x="40" width="240" height="30" as="geometry">
            <mxRectangle width="240" height="30" as="alternateBounds" />
          </mxGeometry>
        </mxCell>
        <mxCell id="kuLyrGkiRH-58KuVBoqx-157" value="" style="shape=tableRow;horizontal=0;startSize=0;swimlaneHead=0;swimlaneBody=0;fillColor=none;collapsible=0;dropTarget=0;points=[[0,0.5],[1,0.5]];portConstraint=eastwest;top=0;left=0;right=0;bottom=0;" parent="kuLyrGkiRH-58KuVBoqx-144" vertex="1">
          <mxGeometry y="150" width="280" height="30" as="geometry" />
        </mxCell>
        <mxCell id="kuLyrGkiRH-58KuVBoqx-158" value="" style="shape=partialRectangle;connectable=0;fillColor=none;top=0;left=0;bottom=0;right=0;editable=1;overflow=hidden;whiteSpace=wrap;html=1;" parent="kuLyrGkiRH-58KuVBoqx-157" vertex="1">
          <mxGeometry width="40" height="30" as="geometry">
            <mxRectangle width="40" height="30" as="alternateBounds" />
          </mxGeometry>
        </mxCell>
        <mxCell id="kuLyrGkiRH-58KuVBoqx-159" value="" style="shape=partialRectangle;connectable=0;fillColor=none;top=0;left=0;bottom=0;right=0;align=left;spacingLeft=6;overflow=hidden;whiteSpace=wrap;html=1;" parent="kuLyrGkiRH-58KuVBoqx-157" vertex="1">
          <mxGeometry x="40" width="240" height="30" as="geometry">
            <mxRectangle width="240" height="30" as="alternateBounds" />
          </mxGeometry>
        </mxCell>
        <mxCell id="kuLyrGkiRH-58KuVBoqx-160" value="&lt;font style=&quot;font-size: 14px;&quot;&gt;Month_Dim&lt;/font&gt;" style="shape=table;startSize=30;container=1;collapsible=1;childLayout=tableLayout;fixedRows=1;rowLines=0;fontStyle=1;align=center;resizeLast=1;html=1;strokeColor=#F07800;strokeWidth=3;" parent="1" vertex="1">
          <mxGeometry x="1600" y="-1200" width="280" height="170" as="geometry" />
        </mxCell>
        <mxCell id="kuLyrGkiRH-58KuVBoqx-161" value="" style="shape=tableRow;horizontal=0;startSize=0;swimlaneHead=0;swimlaneBody=0;fillColor=none;collapsible=0;dropTarget=0;points=[[0,0.5],[1,0.5]];portConstraint=eastwest;top=0;left=0;right=0;bottom=1;" parent="kuLyrGkiRH-58KuVBoqx-160" vertex="1">
          <mxGeometry y="30" width="280" height="30" as="geometry" />
        </mxCell>
        <mxCell id="kuLyrGkiRH-58KuVBoqx-162" value="PK" style="shape=partialRectangle;connectable=0;fillColor=#ffe6cc;top=0;left=0;bottom=0;right=0;fontStyle=1;overflow=hidden;whiteSpace=wrap;html=1;strokeColor=#d79b00;" parent="kuLyrGkiRH-58KuVBoqx-161" vertex="1">
          <mxGeometry width="30" height="30" as="geometry">
            <mxRectangle width="30" height="30" as="alternateBounds" />
          </mxGeometry>
        </mxCell>
        <mxCell id="kuLyrGkiRH-58KuVBoqx-163" value="month_id&amp;nbsp;&lt;b style=&quot;border-color: var(--border-color);&quot;&gt;&lt;font style=&quot;border-color: var(--border-color);&quot; color=&quot;#0868bd&quot;&gt;int&amp;nbsp;&lt;/font&gt;not null&lt;/b&gt;" style="shape=partialRectangle;connectable=0;fillColor=#ffe6cc;top=0;left=0;bottom=0;right=0;align=left;spacingLeft=6;fontStyle=5;overflow=hidden;whiteSpace=wrap;html=1;strokeColor=#d79b00;" parent="kuLyrGkiRH-58KuVBoqx-161" vertex="1">
          <mxGeometry x="30" width="250" height="30" as="geometry">
            <mxRectangle width="250" height="30" as="alternateBounds" />
          </mxGeometry>
        </mxCell>
        <mxCell id="kuLyrGkiRH-58KuVBoqx-164" value="" style="shape=tableRow;horizontal=0;startSize=0;swimlaneHead=0;swimlaneBody=0;fillColor=none;collapsible=0;dropTarget=0;points=[[0,0.5],[1,0.5]];portConstraint=eastwest;top=0;left=0;right=0;bottom=0;" parent="kuLyrGkiRH-58KuVBoqx-160" vertex="1">
          <mxGeometry y="60" width="280" height="30" as="geometry" />
        </mxCell>
        <mxCell id="kuLyrGkiRH-58KuVBoqx-165" value="" style="shape=partialRectangle;connectable=0;fillColor=none;top=0;left=0;bottom=0;right=0;editable=1;overflow=hidden;whiteSpace=wrap;html=1;" parent="kuLyrGkiRH-58KuVBoqx-164" vertex="1">
          <mxGeometry width="30" height="30" as="geometry">
            <mxRectangle width="30" height="30" as="alternateBounds" />
          </mxGeometry>
        </mxCell>
        <mxCell id="kuLyrGkiRH-58KuVBoqx-166" value="month_name&amp;nbsp;&lt;b style=&quot;border-color: var(--border-color);&quot;&gt;&lt;b style=&quot;border-color: var(--border-color);&quot;&gt;&lt;font style=&quot;border-color: var(--border-color);&quot; color=&quot;#0868bd&quot;&gt;string&amp;nbsp;&lt;/font&gt;&lt;/b&gt;not null&lt;/b&gt;" style="shape=partialRectangle;connectable=0;fillColor=none;top=0;left=0;bottom=0;right=0;align=left;spacingLeft=6;overflow=hidden;whiteSpace=wrap;html=1;" parent="kuLyrGkiRH-58KuVBoqx-164" vertex="1">
          <mxGeometry x="30" width="250" height="30" as="geometry">
            <mxRectangle width="250" height="30" as="alternateBounds" />
          </mxGeometry>
        </mxCell>
        <mxCell id="kuLyrGkiRH-58KuVBoqx-167" value="" style="shape=tableRow;horizontal=0;startSize=0;swimlaneHead=0;swimlaneBody=0;fillColor=none;collapsible=0;dropTarget=0;points=[[0,0.5],[1,0.5]];portConstraint=eastwest;top=0;left=0;right=0;bottom=0;" parent="kuLyrGkiRH-58KuVBoqx-160" vertex="1">
          <mxGeometry y="90" width="280" height="30" as="geometry" />
        </mxCell>
        <mxCell id="kuLyrGkiRH-58KuVBoqx-168" value="" style="shape=partialRectangle;connectable=0;fillColor=none;top=0;left=0;bottom=0;right=0;editable=1;overflow=hidden;whiteSpace=wrap;html=1;" parent="kuLyrGkiRH-58KuVBoqx-167" vertex="1">
          <mxGeometry width="30" height="30" as="geometry">
            <mxRectangle width="30" height="30" as="alternateBounds" />
          </mxGeometry>
        </mxCell>
        <mxCell id="kuLyrGkiRH-58KuVBoqx-169" value="month_numer&amp;nbsp;&lt;b&gt; &lt;font color=&quot;#0868bd&quot;&gt;int&lt;/font&gt;&lt;/b&gt;&lt;b style=&quot;border-color: var(--border-color);&quot;&gt;&amp;nbsp;not null&lt;/b&gt;" style="shape=partialRectangle;connectable=0;fillColor=none;top=0;left=0;bottom=0;right=0;align=left;spacingLeft=6;overflow=hidden;whiteSpace=wrap;html=1;" parent="kuLyrGkiRH-58KuVBoqx-167" vertex="1">
          <mxGeometry x="30" width="250" height="30" as="geometry">
            <mxRectangle width="250" height="30" as="alternateBounds" />
          </mxGeometry>
        </mxCell>
        <mxCell id="kuLyrGkiRH-58KuVBoqx-170" value="" style="shape=tableRow;horizontal=0;startSize=0;swimlaneHead=0;swimlaneBody=0;fillColor=none;collapsible=0;dropTarget=0;points=[[0,0.5],[1,0.5]];portConstraint=eastwest;top=0;left=0;right=0;bottom=0;" parent="kuLyrGkiRH-58KuVBoqx-160" vertex="1">
          <mxGeometry y="120" width="280" height="30" as="geometry" />
        </mxCell>
        <mxCell id="kuLyrGkiRH-58KuVBoqx-171" value="" style="shape=partialRectangle;connectable=0;fillColor=none;top=0;left=0;bottom=0;right=0;editable=1;overflow=hidden;whiteSpace=wrap;html=1;" parent="kuLyrGkiRH-58KuVBoqx-170" vertex="1">
          <mxGeometry width="30" height="30" as="geometry">
            <mxRectangle width="30" height="30" as="alternateBounds" />
          </mxGeometry>
        </mxCell>
        <mxCell id="kuLyrGkiRH-58KuVBoqx-172" value="year_numer&amp;nbsp;&lt;b style=&quot;border-color: var(--border-color);&quot;&gt;&amp;nbsp;&lt;font style=&quot;border-color: var(--border-color);&quot; color=&quot;#0868bd&quot;&gt;int&lt;/font&gt;&lt;/b&gt;&lt;b style=&quot;border-color: var(--border-color);&quot;&gt;&amp;nbsp;not null&lt;/b&gt;" style="shape=partialRectangle;connectable=0;fillColor=none;top=0;left=0;bottom=0;right=0;align=left;spacingLeft=6;overflow=hidden;whiteSpace=wrap;html=1;" parent="kuLyrGkiRH-58KuVBoqx-170" vertex="1">
          <mxGeometry x="30" width="250" height="30" as="geometry">
            <mxRectangle width="250" height="30" as="alternateBounds" />
          </mxGeometry>
        </mxCell>
        <mxCell id="kuLyrGkiRH-58KuVBoqx-173" value="" style="endArrow=classic;html=1;rounded=0;exitX=1;exitY=0.5;exitDx=0;exitDy=0;entryX=0;entryY=0.5;entryDx=0;entryDy=0;strokeWidth=2;" parent="1" source="kuLyrGkiRH-58KuVBoqx-148" target="kuLyrGkiRH-58KuVBoqx-132" edge="1">
          <mxGeometry width="50" height="50" relative="1" as="geometry">
            <mxPoint x="1350" y="-1300" as="sourcePoint" />
            <mxPoint x="1400" y="-1350" as="targetPoint" />
          </mxGeometry>
        </mxCell>
        <mxCell id="kuLyrGkiRH-58KuVBoqx-174" value="" style="endArrow=classic;html=1;rounded=0;exitX=1;exitY=0.5;exitDx=0;exitDy=0;entryX=0;entryY=0.5;entryDx=0;entryDy=0;strokeWidth=2;" parent="1" target="kuLyrGkiRH-58KuVBoqx-145" edge="1">
          <mxGeometry width="50" height="50" relative="1" as="geometry">
            <mxPoint x="1520" y="-1315" as="sourcePoint" />
            <mxPoint x="1510" y="-1340" as="targetPoint" />
            <Array as="points" />
          </mxGeometry>
        </mxCell>
        <mxCell id="kuLyrGkiRH-58KuVBoqx-175" value="" style="endArrow=classic;html=1;rounded=0;entryX=0;entryY=0;entryDx=0;entryDy=0;entryPerimeter=0;exitX=1;exitY=0.5;exitDx=0;exitDy=0;strokeWidth=2;" parent="1" target="kuLyrGkiRH-58KuVBoqx-164" edge="1">
          <mxGeometry width="50" height="50" relative="1" as="geometry">
            <mxPoint x="1520" y="-1285" as="sourcePoint" />
            <mxPoint x="1480" y="-1360" as="targetPoint" />
          </mxGeometry>
        </mxCell>
        <mxCell id="BKdgqYLP4mJ8UhsqF7z6-1" value="&lt;font style=&quot;font-size: 14px;&quot;&gt;Product&lt;/font&gt;" style="shape=table;startSize=30;container=1;collapsible=1;childLayout=tableLayout;fixedRows=1;rowLines=0;fontStyle=1;align=center;resizeLast=1;html=1;strokeColor=#004C99;strokeWidth=3;" parent="1" vertex="1">
          <mxGeometry x="840" y="-598" width="280" height="220" as="geometry" />
        </mxCell>
        <mxCell id="BKdgqYLP4mJ8UhsqF7z6-2" value="" style="shape=tableRow;horizontal=0;startSize=0;swimlaneHead=0;swimlaneBody=0;fillColor=none;collapsible=0;dropTarget=0;points=[[0,0.5],[1,0.5]];portConstraint=eastwest;top=0;left=0;right=0;bottom=1;" parent="BKdgqYLP4mJ8UhsqF7z6-1" vertex="1">
          <mxGeometry y="30" width="280" height="30" as="geometry" />
        </mxCell>
        <mxCell id="BKdgqYLP4mJ8UhsqF7z6-3" value="PK" style="shape=partialRectangle;connectable=0;fillColor=#d5e8d4;top=0;left=0;bottom=0;right=0;fontStyle=1;overflow=hidden;whiteSpace=wrap;html=1;strokeColor=#82b366;" parent="BKdgqYLP4mJ8UhsqF7z6-2" vertex="1">
          <mxGeometry width="40" height="30" as="geometry">
            <mxRectangle width="40" height="30" as="alternateBounds" />
          </mxGeometry>
        </mxCell>
        <mxCell id="BKdgqYLP4mJ8UhsqF7z6-4" value="product_id&amp;nbsp;&lt;b style=&quot;border-color: var(--border-color);&quot;&gt;&lt;font style=&quot;border-color: var(--border-color);&quot; color=&quot;#0868bd&quot;&gt;int&amp;nbsp;&lt;/font&gt;not null&lt;/b&gt;" style="shape=partialRectangle;connectable=0;fillColor=#d5e8d4;top=0;left=0;bottom=0;right=0;align=left;spacingLeft=6;fontStyle=5;overflow=hidden;whiteSpace=wrap;html=1;strokeColor=#82b366;" parent="BKdgqYLP4mJ8UhsqF7z6-2" vertex="1">
          <mxGeometry x="40" width="240" height="30" as="geometry">
            <mxRectangle width="240" height="30" as="alternateBounds" />
          </mxGeometry>
        </mxCell>
        <mxCell id="BKdgqYLP4mJ8UhsqF7z6-5" value="" style="shape=tableRow;horizontal=0;startSize=0;swimlaneHead=0;swimlaneBody=0;fillColor=none;collapsible=0;dropTarget=0;points=[[0,0.5],[1,0.5]];portConstraint=eastwest;top=0;left=0;right=0;bottom=1;" parent="BKdgqYLP4mJ8UhsqF7z6-1" vertex="1">
          <mxGeometry y="60" width="280" height="30" as="geometry" />
        </mxCell>
        <mxCell id="BKdgqYLP4mJ8UhsqF7z6-6" value="FK" style="shape=partialRectangle;connectable=0;fillColor=#dae8fc;top=0;left=0;bottom=0;right=0;fontStyle=1;overflow=hidden;whiteSpace=wrap;html=1;strokeColor=#6c8ebf;" parent="BKdgqYLP4mJ8UhsqF7z6-5" vertex="1">
          <mxGeometry width="40" height="30" as="geometry">
            <mxRectangle width="40" height="30" as="alternateBounds" />
          </mxGeometry>
        </mxCell>
        <mxCell id="BKdgqYLP4mJ8UhsqF7z6-7" value="product_category_id&amp;nbsp;&lt;b style=&quot;border-color: var(--border-color);&quot;&gt;&lt;font style=&quot;border-color: var(--border-color);&quot; color=&quot;#0868bd&quot;&gt;int&amp;nbsp;&lt;/font&gt;not null&lt;/b&gt;" style="shape=partialRectangle;connectable=0;fillColor=#dae8fc;top=0;left=0;bottom=0;right=0;align=left;spacingLeft=6;fontStyle=5;overflow=hidden;whiteSpace=wrap;html=1;strokeColor=#6c8ebf;" parent="BKdgqYLP4mJ8UhsqF7z6-5" vertex="1">
          <mxGeometry x="40" width="240" height="30" as="geometry">
            <mxRectangle width="240" height="30" as="alternateBounds" />
          </mxGeometry>
        </mxCell>
        <mxCell id="BKdgqYLP4mJ8UhsqF7z6-8" value="" style="shape=tableRow;horizontal=0;startSize=0;swimlaneHead=0;swimlaneBody=0;fillColor=none;collapsible=0;dropTarget=0;points=[[0,0.5],[1,0.5]];portConstraint=eastwest;top=0;left=0;right=0;bottom=0;" parent="BKdgqYLP4mJ8UhsqF7z6-1" vertex="1">
          <mxGeometry y="90" width="280" height="30" as="geometry" />
        </mxCell>
        <mxCell id="BKdgqYLP4mJ8UhsqF7z6-9" value="" style="shape=partialRectangle;connectable=0;fillColor=none;top=0;left=0;bottom=0;right=0;editable=1;overflow=hidden;whiteSpace=wrap;html=1;" parent="BKdgqYLP4mJ8UhsqF7z6-8" vertex="1">
          <mxGeometry width="40" height="30" as="geometry">
            <mxRectangle width="40" height="30" as="alternateBounds" />
          </mxGeometry>
        </mxCell>
        <mxCell id="BKdgqYLP4mJ8UhsqF7z6-10" value="product_name&amp;nbsp;&lt;b style=&quot;border-color: var(--border-color);&quot;&gt;&lt;b style=&quot;border-color: var(--border-color);&quot;&gt;&lt;font style=&quot;border-color: var(--border-color);&quot; color=&quot;#0868bd&quot;&gt;string&lt;/font&gt;&lt;/b&gt;&amp;nbsp;not null&lt;/b&gt;" style="shape=partialRectangle;connectable=0;fillColor=none;top=0;left=0;bottom=0;right=0;align=left;spacingLeft=6;overflow=hidden;whiteSpace=wrap;html=1;" parent="BKdgqYLP4mJ8UhsqF7z6-8" vertex="1">
          <mxGeometry x="40" width="240" height="30" as="geometry">
            <mxRectangle width="240" height="30" as="alternateBounds" />
          </mxGeometry>
        </mxCell>
        <mxCell id="BKdgqYLP4mJ8UhsqF7z6-11" value="" style="shape=tableRow;horizontal=0;startSize=0;swimlaneHead=0;swimlaneBody=0;fillColor=none;collapsible=0;dropTarget=0;points=[[0,0.5],[1,0.5]];portConstraint=eastwest;top=0;left=0;right=0;bottom=0;" parent="BKdgqYLP4mJ8UhsqF7z6-1" vertex="1">
          <mxGeometry y="120" width="280" height="30" as="geometry" />
        </mxCell>
        <mxCell id="BKdgqYLP4mJ8UhsqF7z6-12" value="" style="shape=partialRectangle;connectable=0;fillColor=none;top=0;left=0;bottom=0;right=0;editable=1;overflow=hidden;whiteSpace=wrap;html=1;" parent="BKdgqYLP4mJ8UhsqF7z6-11" vertex="1">
          <mxGeometry width="40" height="30" as="geometry">
            <mxRectangle width="40" height="30" as="alternateBounds" />
          </mxGeometry>
        </mxCell>
        <mxCell id="BKdgqYLP4mJ8UhsqF7z6-13" value="net_cost&amp;nbsp;&lt;b style=&quot;border-color: var(--border-color);&quot;&gt;&lt;font style=&quot;border-color: var(--border-color);&quot; color=&quot;#0868bd&quot;&gt;float&lt;/font&gt;&amp;nbsp;not null&lt;/b&gt;" style="shape=partialRectangle;connectable=0;fillColor=none;top=0;left=0;bottom=0;right=0;align=left;spacingLeft=6;overflow=hidden;whiteSpace=wrap;html=1;" parent="BKdgqYLP4mJ8UhsqF7z6-11" vertex="1">
          <mxGeometry x="40" width="240" height="30" as="geometry">
            <mxRectangle width="240" height="30" as="alternateBounds" />
          </mxGeometry>
        </mxCell>
        <mxCell id="BKdgqYLP4mJ8UhsqF7z6-14" value="" style="shape=tableRow;horizontal=0;startSize=0;swimlaneHead=0;swimlaneBody=0;fillColor=none;collapsible=0;dropTarget=0;points=[[0,0.5],[1,0.5]];portConstraint=eastwest;top=0;left=0;right=0;bottom=0;" parent="BKdgqYLP4mJ8UhsqF7z6-1" vertex="1">
          <mxGeometry y="150" width="280" height="30" as="geometry" />
        </mxCell>
        <mxCell id="BKdgqYLP4mJ8UhsqF7z6-15" value="" style="shape=partialRectangle;connectable=0;fillColor=none;top=0;left=0;bottom=0;right=0;editable=1;overflow=hidden;whiteSpace=wrap;html=1;" parent="BKdgqYLP4mJ8UhsqF7z6-14" vertex="1">
          <mxGeometry width="40" height="30" as="geometry">
            <mxRectangle width="40" height="30" as="alternateBounds" />
          </mxGeometry>
        </mxCell>
        <mxCell id="BKdgqYLP4mJ8UhsqF7z6-16" value="product_name&amp;nbsp;&lt;b style=&quot;border-color: var(--border-color);&quot;&gt;&lt;b style=&quot;border-color: var(--border-color);&quot;&gt;&lt;font style=&quot;border-color: var(--border-color);&quot; color=&quot;#0868bd&quot;&gt;string&lt;/font&gt;&lt;/b&gt;&amp;nbsp;not null&lt;/b&gt;" style="shape=partialRectangle;connectable=0;fillColor=none;top=0;left=0;bottom=0;right=0;align=left;spacingLeft=6;overflow=hidden;whiteSpace=wrap;html=1;" parent="BKdgqYLP4mJ8UhsqF7z6-14" vertex="1">
          <mxGeometry x="40" width="240" height="30" as="geometry">
            <mxRectangle width="240" height="30" as="alternateBounds" />
          </mxGeometry>
        </mxCell>
        <mxCell id="BKdgqYLP4mJ8UhsqF7z6-63" value="" style="shape=tableRow;horizontal=0;startSize=0;swimlaneHead=0;swimlaneBody=0;fillColor=none;collapsible=0;dropTarget=0;points=[[0,0.5],[1,0.5]];portConstraint=eastwest;top=0;left=0;right=0;bottom=0;" parent="BKdgqYLP4mJ8UhsqF7z6-1" vertex="1">
          <mxGeometry y="180" width="280" height="30" as="geometry" />
        </mxCell>
        <mxCell id="BKdgqYLP4mJ8UhsqF7z6-64" value="" style="shape=partialRectangle;connectable=0;fillColor=none;top=0;left=0;bottom=0;right=0;editable=1;overflow=hidden;whiteSpace=wrap;html=1;" parent="BKdgqYLP4mJ8UhsqF7z6-63" vertex="1">
          <mxGeometry width="40" height="30" as="geometry">
            <mxRectangle width="40" height="30" as="alternateBounds" />
          </mxGeometry>
        </mxCell>
        <mxCell id="BKdgqYLP4mJ8UhsqF7z6-65" value="category_description&amp;nbsp;&amp;nbsp;&lt;b style=&quot;border-color: var(--border-color);&quot;&gt;&lt;b style=&quot;border-color: var(--border-color);&quot;&gt;&lt;font style=&quot;border-color: var(--border-color);&quot; color=&quot;#0868bd&quot;&gt;string&lt;/font&gt;&lt;/b&gt;&amp;nbsp;not null&lt;/b&gt;" style="shape=partialRectangle;connectable=0;fillColor=none;top=0;left=0;bottom=0;right=0;align=left;spacingLeft=6;overflow=hidden;whiteSpace=wrap;html=1;" parent="BKdgqYLP4mJ8UhsqF7z6-63" vertex="1">
          <mxGeometry x="40" width="240" height="30" as="geometry">
            <mxRectangle width="240" height="30" as="alternateBounds" />
          </mxGeometry>
        </mxCell>
        <mxCell id="BKdgqYLP4mJ8UhsqF7z6-17" value="&lt;font style=&quot;font-size: 14px;&quot;&gt;Сustomer&lt;/font&gt;" style="shape=table;startSize=30;container=1;collapsible=1;childLayout=tableLayout;fixedRows=1;rowLines=0;fontStyle=1;align=center;resizeLast=1;html=1;strokeColor=#FF6666;strokeWidth=3;" parent="1" vertex="1">
          <mxGeometry x="80" y="-667" width="320" height="250" as="geometry" />
        </mxCell>
        <mxCell id="BKdgqYLP4mJ8UhsqF7z6-18" value="" style="shape=tableRow;horizontal=0;startSize=0;swimlaneHead=0;swimlaneBody=0;fillColor=none;collapsible=0;dropTarget=0;points=[[0,0.5],[1,0.5]];portConstraint=eastwest;top=0;left=0;right=0;bottom=1;" parent="BKdgqYLP4mJ8UhsqF7z6-17" vertex="1">
          <mxGeometry y="30" width="320" height="30" as="geometry" />
        </mxCell>
        <mxCell id="BKdgqYLP4mJ8UhsqF7z6-19" value="PK" style="shape=partialRectangle;connectable=0;fillColor=#f8cecc;top=0;left=0;bottom=0;right=0;fontStyle=1;overflow=hidden;whiteSpace=wrap;html=1;strokeColor=#b85450;" parent="BKdgqYLP4mJ8UhsqF7z6-18" vertex="1">
          <mxGeometry width="40" height="30" as="geometry">
            <mxRectangle width="40" height="30" as="alternateBounds" />
          </mxGeometry>
        </mxCell>
        <mxCell id="BKdgqYLP4mJ8UhsqF7z6-20" value="customer_id&amp;nbsp;&lt;b style=&quot;border-color: var(--border-color);&quot;&gt;&lt;font style=&quot;border-color: var(--border-color);&quot; color=&quot;#0868bd&quot;&gt;int&lt;/font&gt;&lt;font style=&quot;border-color: var(--border-color);&quot; color=&quot;#3333ff&quot;&gt;&amp;nbsp;&lt;/font&gt;not null&amp;nbsp;&lt;/b&gt;" style="shape=partialRectangle;connectable=0;fillColor=#f8cecc;top=0;left=0;bottom=0;right=0;align=left;spacingLeft=6;fontStyle=5;overflow=hidden;whiteSpace=wrap;html=1;strokeColor=#b85450;" parent="BKdgqYLP4mJ8UhsqF7z6-18" vertex="1">
          <mxGeometry x="40" width="280" height="30" as="geometry">
            <mxRectangle width="280" height="30" as="alternateBounds" />
          </mxGeometry>
        </mxCell>
        <mxCell id="BKdgqYLP4mJ8UhsqF7z6-21" value="" style="shape=tableRow;horizontal=0;startSize=0;swimlaneHead=0;swimlaneBody=0;fillColor=none;collapsible=0;dropTarget=0;points=[[0,0.5],[1,0.5]];portConstraint=eastwest;top=0;left=0;right=0;bottom=0;" parent="BKdgqYLP4mJ8UhsqF7z6-17" vertex="1">
          <mxGeometry y="60" width="320" height="30" as="geometry" />
        </mxCell>
        <mxCell id="BKdgqYLP4mJ8UhsqF7z6-22" value="" style="shape=partialRectangle;connectable=0;fillColor=none;top=0;left=0;bottom=0;right=0;editable=1;overflow=hidden;whiteSpace=wrap;html=1;" parent="BKdgqYLP4mJ8UhsqF7z6-21" vertex="1">
          <mxGeometry width="40" height="30" as="geometry">
            <mxRectangle width="40" height="30" as="alternateBounds" />
          </mxGeometry>
        </mxCell>
        <mxCell id="BKdgqYLP4mJ8UhsqF7z6-23" value="&lt;span style=&quot;color: rgb(0, 0, 0); font-family: Helvetica; font-size: 12px; font-style: normal; font-variant-ligatures: normal; font-variant-caps: normal; font-weight: 400; letter-spacing: normal; orphans: 2; text-align: left; text-indent: 0px; text-transform: none; widows: 2; word-spacing: 0px; -webkit-text-stroke-width: 0px; background-color: rgb(251, 251, 251); text-decoration-thickness: initial; text-decoration-style: initial; text-decoration-color: initial; float: none; display: inline !important;&quot;&gt;first_name&lt;span&gt;&amp;nbsp;&lt;/span&gt;&lt;/span&gt;&lt;span style=&quot;color: rgb(0, 0, 0); font-family: Helvetica; font-size: 12px; font-style: normal; font-variant-ligatures: normal; font-variant-caps: normal; font-weight: 400; letter-spacing: normal; orphans: 2; text-align: left; text-indent: 0px; text-transform: none; widows: 2; word-spacing: 0px; -webkit-text-stroke-width: 0px; background-color: rgb(251, 251, 251); text-decoration-thickness: initial; text-decoration-style: initial; text-decoration-color: initial; float: none; display: inline !important;&quot;&gt;&lt;b style=&quot;border-color: var(--border-color);&quot;&gt;&lt;font style=&quot;border-color: var(--border-color);&quot; color=&quot;#0868bd&quot;&gt;string&lt;/font&gt;&lt;/b&gt;&lt;span&gt;&amp;nbsp;&lt;/span&gt;&lt;/span&gt;&lt;b style=&quot;border-color: var(--border-color); color: rgb(0, 0, 0); font-family: Helvetica; font-size: 12px; font-style: normal; font-variant-ligatures: normal; font-variant-caps: normal; letter-spacing: normal; orphans: 2; text-align: left; text-indent: 0px; text-transform: none; widows: 2; word-spacing: 0px; -webkit-text-stroke-width: 0px; background-color: rgb(251, 251, 251); text-decoration-thickness: initial; text-decoration-style: initial; text-decoration-color: initial;&quot;&gt;not null&lt;/b&gt;" style="shape=partialRectangle;connectable=0;fillColor=none;top=0;left=0;bottom=0;right=0;align=left;spacingLeft=6;overflow=hidden;whiteSpace=wrap;html=1;" parent="BKdgqYLP4mJ8UhsqF7z6-21" vertex="1">
          <mxGeometry x="40" width="280" height="30" as="geometry">
            <mxRectangle width="280" height="30" as="alternateBounds" />
          </mxGeometry>
        </mxCell>
        <mxCell id="BKdgqYLP4mJ8UhsqF7z6-24" value="" style="shape=tableRow;horizontal=0;startSize=0;swimlaneHead=0;swimlaneBody=0;fillColor=none;collapsible=0;dropTarget=0;points=[[0,0.5],[1,0.5]];portConstraint=eastwest;top=0;left=0;right=0;bottom=0;" parent="BKdgqYLP4mJ8UhsqF7z6-17" vertex="1">
          <mxGeometry y="90" width="320" height="30" as="geometry" />
        </mxCell>
        <mxCell id="BKdgqYLP4mJ8UhsqF7z6-25" value="" style="shape=partialRectangle;connectable=0;fillColor=none;top=0;left=0;bottom=0;right=0;editable=1;overflow=hidden;whiteSpace=wrap;html=1;" parent="BKdgqYLP4mJ8UhsqF7z6-24" vertex="1">
          <mxGeometry width="40" height="30" as="geometry">
            <mxRectangle width="40" height="30" as="alternateBounds" />
          </mxGeometry>
        </mxCell>
        <mxCell id="BKdgqYLP4mJ8UhsqF7z6-26" value="&lt;span style=&quot;color: rgb(0, 0, 0); font-family: Helvetica; font-size: 12px; font-style: normal; font-variant-ligatures: normal; font-variant-caps: normal; font-weight: 400; letter-spacing: normal; orphans: 2; text-align: left; text-indent: 0px; text-transform: none; widows: 2; word-spacing: 0px; -webkit-text-stroke-width: 0px; background-color: rgb(251, 251, 251); text-decoration-thickness: initial; text-decoration-style: initial; text-decoration-color: initial; float: none; display: inline !important;&quot;&gt;first_name&lt;span&gt;&amp;nbsp;&lt;/span&gt;&lt;/span&gt;&lt;span style=&quot;color: rgb(0, 0, 0); font-family: Helvetica; font-size: 12px; font-style: normal; font-variant-ligatures: normal; font-variant-caps: normal; font-weight: 400; letter-spacing: normal; orphans: 2; text-align: left; text-indent: 0px; text-transform: none; widows: 2; word-spacing: 0px; -webkit-text-stroke-width: 0px; background-color: rgb(251, 251, 251); text-decoration-thickness: initial; text-decoration-style: initial; text-decoration-color: initial; float: none; display: inline !important;&quot;&gt;&lt;b style=&quot;border-color: var(--border-color);&quot;&gt;&lt;font style=&quot;border-color: var(--border-color);&quot; color=&quot;#0868bd&quot;&gt;string&lt;/font&gt;&lt;/b&gt;&lt;span&gt;&amp;nbsp;&lt;/span&gt;&lt;/span&gt;&lt;b style=&quot;border-color: var(--border-color); color: rgb(0, 0, 0); font-family: Helvetica; font-size: 12px; font-style: normal; font-variant-ligatures: normal; font-variant-caps: normal; letter-spacing: normal; orphans: 2; text-align: left; text-indent: 0px; text-transform: none; widows: 2; word-spacing: 0px; -webkit-text-stroke-width: 0px; background-color: rgb(251, 251, 251); text-decoration-thickness: initial; text-decoration-style: initial; text-decoration-color: initial;&quot;&gt;not null&lt;/b&gt;" style="shape=partialRectangle;connectable=0;fillColor=none;top=0;left=0;bottom=0;right=0;align=left;spacingLeft=6;overflow=hidden;whiteSpace=wrap;html=1;" parent="BKdgqYLP4mJ8UhsqF7z6-24" vertex="1">
          <mxGeometry x="40" width="280" height="30" as="geometry">
            <mxRectangle width="280" height="30" as="alternateBounds" />
          </mxGeometry>
        </mxCell>
        <mxCell id="BKdgqYLP4mJ8UhsqF7z6-27" value="" style="shape=tableRow;horizontal=0;startSize=0;swimlaneHead=0;swimlaneBody=0;fillColor=none;collapsible=0;dropTarget=0;points=[[0,0.5],[1,0.5]];portConstraint=eastwest;top=0;left=0;right=0;bottom=0;" parent="BKdgqYLP4mJ8UhsqF7z6-17" vertex="1">
          <mxGeometry y="120" width="320" height="30" as="geometry" />
        </mxCell>
        <mxCell id="BKdgqYLP4mJ8UhsqF7z6-28" value="" style="shape=partialRectangle;connectable=0;fillColor=none;top=0;left=0;bottom=0;right=0;editable=1;overflow=hidden;whiteSpace=wrap;html=1;" parent="BKdgqYLP4mJ8UhsqF7z6-27" vertex="1">
          <mxGeometry width="40" height="30" as="geometry">
            <mxRectangle width="40" height="30" as="alternateBounds" />
          </mxGeometry>
        </mxCell>
        <mxCell id="BKdgqYLP4mJ8UhsqF7z6-29" value="last_name&amp;nbsp;&lt;b style=&quot;border-color: var(--border-color);&quot;&gt;&lt;font style=&quot;border-color: var(--border-color);&quot; color=&quot;#0868bd&quot;&gt;string&lt;/font&gt;&lt;/b&gt;&amp;nbsp;&lt;b style=&quot;border-color: var(--border-color);&quot;&gt;not null&lt;/b&gt;" style="shape=partialRectangle;connectable=0;fillColor=none;top=0;left=0;bottom=0;right=0;align=left;spacingLeft=6;overflow=hidden;whiteSpace=wrap;html=1;" parent="BKdgqYLP4mJ8UhsqF7z6-27" vertex="1">
          <mxGeometry x="40" width="280" height="30" as="geometry">
            <mxRectangle width="280" height="30" as="alternateBounds" />
          </mxGeometry>
        </mxCell>
        <mxCell id="BKdgqYLP4mJ8UhsqF7z6-30" value="" style="shape=tableRow;horizontal=0;startSize=0;swimlaneHead=0;swimlaneBody=0;fillColor=none;collapsible=0;dropTarget=0;points=[[0,0.5],[1,0.5]];portConstraint=eastwest;top=0;left=0;right=0;bottom=0;" parent="BKdgqYLP4mJ8UhsqF7z6-17" vertex="1">
          <mxGeometry y="150" width="320" height="30" as="geometry" />
        </mxCell>
        <mxCell id="BKdgqYLP4mJ8UhsqF7z6-31" value="" style="shape=partialRectangle;connectable=0;fillColor=none;top=0;left=0;bottom=0;right=0;editable=1;overflow=hidden;whiteSpace=wrap;html=1;" parent="BKdgqYLP4mJ8UhsqF7z6-30" vertex="1">
          <mxGeometry width="40" height="30" as="geometry">
            <mxRectangle width="40" height="30" as="alternateBounds" />
          </mxGeometry>
        </mxCell>
        <mxCell id="BKdgqYLP4mJ8UhsqF7z6-32" value="phone&amp;nbsp;&lt;b style=&quot;border-color: var(--border-color);&quot;&gt;&lt;font style=&quot;border-color: var(--border-color);&quot; color=&quot;#0868bd&quot;&gt;string&lt;/font&gt;&lt;/b&gt;&amp;nbsp;&lt;b style=&quot;border-color: var(--border-color);&quot;&gt;not null&lt;/b&gt;" style="shape=partialRectangle;connectable=0;fillColor=none;top=0;left=0;bottom=0;right=0;align=left;spacingLeft=6;overflow=hidden;whiteSpace=wrap;html=1;" parent="BKdgqYLP4mJ8UhsqF7z6-30" vertex="1">
          <mxGeometry x="40" width="280" height="30" as="geometry">
            <mxRectangle width="280" height="30" as="alternateBounds" />
          </mxGeometry>
        </mxCell>
        <mxCell id="BKdgqYLP4mJ8UhsqF7z6-33" value="" style="shape=tableRow;horizontal=0;startSize=0;swimlaneHead=0;swimlaneBody=0;fillColor=none;collapsible=0;dropTarget=0;points=[[0,0.5],[1,0.5]];portConstraint=eastwest;top=0;left=0;right=0;bottom=0;" parent="BKdgqYLP4mJ8UhsqF7z6-17" vertex="1">
          <mxGeometry y="180" width="320" height="30" as="geometry" />
        </mxCell>
        <mxCell id="BKdgqYLP4mJ8UhsqF7z6-34" value="" style="shape=partialRectangle;connectable=0;fillColor=none;top=0;left=0;bottom=0;right=0;editable=1;overflow=hidden;whiteSpace=wrap;html=1;" parent="BKdgqYLP4mJ8UhsqF7z6-33" vertex="1">
          <mxGeometry width="40" height="30" as="geometry">
            <mxRectangle width="40" height="30" as="alternateBounds" />
          </mxGeometry>
        </mxCell>
        <mxCell id="BKdgqYLP4mJ8UhsqF7z6-35" value="email&amp;nbsp;&lt;b style=&quot;border-color: var(--border-color);&quot;&gt;&lt;font style=&quot;border-color: var(--border-color);&quot; color=&quot;#0868bd&quot;&gt;string&lt;/font&gt;&lt;/b&gt;&amp;nbsp;&lt;b style=&quot;border-color: var(--border-color);&quot;&gt;not null&lt;/b&gt;" style="shape=partialRectangle;connectable=0;fillColor=none;top=0;left=0;bottom=0;right=0;align=left;spacingLeft=6;overflow=hidden;whiteSpace=wrap;html=1;" parent="BKdgqYLP4mJ8UhsqF7z6-33" vertex="1">
          <mxGeometry x="40" width="280" height="30" as="geometry">
            <mxRectangle width="280" height="30" as="alternateBounds" />
          </mxGeometry>
        </mxCell>
        <mxCell id="BKdgqYLP4mJ8UhsqF7z6-36" value="" style="shape=tableRow;horizontal=0;startSize=0;swimlaneHead=0;swimlaneBody=0;fillColor=none;collapsible=0;dropTarget=0;points=[[0,0.5],[1,0.5]];portConstraint=eastwest;top=0;left=0;right=0;bottom=0;" parent="BKdgqYLP4mJ8UhsqF7z6-17" vertex="1">
          <mxGeometry y="210" width="320" height="30" as="geometry" />
        </mxCell>
        <mxCell id="BKdgqYLP4mJ8UhsqF7z6-37" value="" style="shape=partialRectangle;connectable=0;fillColor=none;top=0;left=0;bottom=0;right=0;editable=1;overflow=hidden;whiteSpace=wrap;html=1;" parent="BKdgqYLP4mJ8UhsqF7z6-36" vertex="1">
          <mxGeometry width="40" height="30" as="geometry">
            <mxRectangle width="40" height="30" as="alternateBounds" />
          </mxGeometry>
        </mxCell>
        <mxCell id="BKdgqYLP4mJ8UhsqF7z6-38" value="&lt;div style=&quot;border-color: var(--border-color);&quot;&gt;created_at&amp;nbsp;&lt;font style=&quot;border-color: var(--border-color);&quot; color=&quot;#0868bd&quot;&gt;&lt;b style=&quot;border-color: var(--border-color);&quot;&gt;&lt;b style=&quot;border-color: var(--border-color); color: rgb(0, 0, 0);&quot;&gt;&lt;font style=&quot;border-color: var(--border-color);&quot; color=&quot;#0868bd&quot;&gt;timestamp&lt;/font&gt;&amp;nbsp;not null default()&lt;/b&gt;&amp;nbsp;&lt;/b&gt;&lt;/font&gt;&lt;font style=&quot;border-color: var(--border-color);&quot; color=&quot;#0868bd&quot;&gt;&lt;b style=&quot;border-color: var(--border-color);&quot;&gt;&amp;nbsp;&lt;/b&gt;&lt;/font&gt;&lt;/div&gt;" style="shape=partialRectangle;connectable=0;fillColor=none;top=0;left=0;bottom=0;right=0;align=left;spacingLeft=6;overflow=hidden;whiteSpace=wrap;html=1;" parent="BKdgqYLP4mJ8UhsqF7z6-36" vertex="1">
          <mxGeometry x="40" width="280" height="30" as="geometry">
            <mxRectangle width="280" height="30" as="alternateBounds" />
          </mxGeometry>
        </mxCell>
        <mxCell id="BKdgqYLP4mJ8UhsqF7z6-39" value="&lt;font style=&quot;font-size: 14px;&quot;&gt;Order&lt;/font&gt;" style="shape=table;startSize=30;container=1;collapsible=1;childLayout=tableLayout;fixedRows=1;rowLines=0;fontStyle=1;align=center;resizeLast=1;html=1;strokeColor=#89BD6C;strokeWidth=3;" parent="1" vertex="1">
          <mxGeometry x="481" y="-629" width="297" height="290" as="geometry" />
        </mxCell>
        <mxCell id="BKdgqYLP4mJ8UhsqF7z6-40" value="" style="shape=tableRow;horizontal=0;startSize=0;swimlaneHead=0;swimlaneBody=0;fillColor=none;collapsible=0;dropTarget=0;points=[[0,0.5],[1,0.5]];portConstraint=eastwest;top=0;left=0;right=0;bottom=1;" parent="BKdgqYLP4mJ8UhsqF7z6-39" vertex="1">
          <mxGeometry y="30" width="297" height="30" as="geometry" />
        </mxCell>
        <mxCell id="BKdgqYLP4mJ8UhsqF7z6-41" value="PK" style="shape=partialRectangle;connectable=0;fillColor=#e1d5e7;top=0;left=0;bottom=0;right=0;fontStyle=1;overflow=hidden;whiteSpace=wrap;html=1;strokeColor=#9673a6;" parent="BKdgqYLP4mJ8UhsqF7z6-40" vertex="1">
          <mxGeometry width="40" height="30" as="geometry">
            <mxRectangle width="40" height="30" as="alternateBounds" />
          </mxGeometry>
        </mxCell>
        <mxCell id="BKdgqYLP4mJ8UhsqF7z6-42" value="order_id&amp;nbsp;&lt;b style=&quot;border-color: var(--border-color);&quot;&gt;&lt;font style=&quot;border-color: var(--border-color);&quot; color=&quot;#0868bd&quot;&gt;int&amp;nbsp;&lt;/font&gt;not null&lt;/b&gt;" style="shape=partialRectangle;connectable=0;fillColor=#e1d5e7;top=0;left=0;bottom=0;right=0;align=left;spacingLeft=6;fontStyle=5;overflow=hidden;whiteSpace=wrap;html=1;strokeColor=#9673a6;" parent="BKdgqYLP4mJ8UhsqF7z6-40" vertex="1">
          <mxGeometry x="40" width="257" height="30" as="geometry">
            <mxRectangle width="257" height="30" as="alternateBounds" />
          </mxGeometry>
        </mxCell>
        <mxCell id="BKdgqYLP4mJ8UhsqF7z6-43" value="" style="shape=tableRow;horizontal=0;startSize=0;swimlaneHead=0;swimlaneBody=0;fillColor=none;collapsible=0;dropTarget=0;points=[[0,0.5],[1,0.5]];portConstraint=eastwest;top=0;left=0;right=0;bottom=1;" parent="BKdgqYLP4mJ8UhsqF7z6-39" vertex="1">
          <mxGeometry y="60" width="297" height="30" as="geometry" />
        </mxCell>
        <mxCell id="BKdgqYLP4mJ8UhsqF7z6-44" value="FK" style="shape=partialRectangle;connectable=0;fillColor=#f8cecc;top=0;left=0;bottom=0;right=0;fontStyle=1;overflow=hidden;whiteSpace=wrap;html=1;strokeColor=#b85450;" parent="BKdgqYLP4mJ8UhsqF7z6-43" vertex="1">
          <mxGeometry width="40" height="30" as="geometry">
            <mxRectangle width="40" height="30" as="alternateBounds" />
          </mxGeometry>
        </mxCell>
        <mxCell id="BKdgqYLP4mJ8UhsqF7z6-45" value="customer_id&amp;nbsp;&lt;b style=&quot;border-color: var(--border-color);&quot;&gt;&lt;font style=&quot;border-color: var(--border-color);&quot; color=&quot;#0868bd&quot;&gt;int&lt;/font&gt;&lt;/b&gt;&amp;nbsp;&lt;b style=&quot;border-color: var(--border-color);&quot;&gt;not null&lt;/b&gt;" style="shape=partialRectangle;connectable=0;fillColor=#f8cecc;top=0;left=0;bottom=0;right=0;align=left;spacingLeft=6;fontStyle=5;overflow=hidden;whiteSpace=wrap;html=1;strokeColor=#b85450;" parent="BKdgqYLP4mJ8UhsqF7z6-43" vertex="1">
          <mxGeometry x="40" width="257" height="30" as="geometry">
            <mxRectangle width="257" height="30" as="alternateBounds" />
          </mxGeometry>
        </mxCell>
        <mxCell id="BKdgqYLP4mJ8UhsqF7z6-46" value="" style="shape=tableRow;horizontal=0;startSize=0;swimlaneHead=0;swimlaneBody=0;fillColor=none;collapsible=0;dropTarget=0;points=[[0,0.5],[1,0.5]];portConstraint=eastwest;top=0;left=0;right=0;bottom=0;" parent="BKdgqYLP4mJ8UhsqF7z6-39" vertex="1">
          <mxGeometry y="90" width="297" height="30" as="geometry" />
        </mxCell>
        <mxCell id="BKdgqYLP4mJ8UhsqF7z6-47" value="&lt;b&gt;FK&lt;/b&gt;" style="shape=partialRectangle;connectable=0;fillColor=#d5e8d4;top=0;left=0;bottom=0;right=0;editable=1;overflow=hidden;whiteSpace=wrap;html=1;strokeColor=#82b366;" parent="BKdgqYLP4mJ8UhsqF7z6-46" vertex="1">
          <mxGeometry width="40" height="30" as="geometry">
            <mxRectangle width="40" height="30" as="alternateBounds" />
          </mxGeometry>
        </mxCell>
        <mxCell id="BKdgqYLP4mJ8UhsqF7z6-48" value="product_id&amp;nbsp;&amp;nbsp;&lt;b style=&quot;border-color: var(--border-color);&quot;&gt;&lt;font style=&quot;border-color: var(--border-color);&quot; color=&quot;#0868bd&quot;&gt;int&lt;/font&gt;&amp;nbsp;not nul&lt;/b&gt;" style="shape=partialRectangle;connectable=0;fillColor=#d5e8d4;top=0;left=0;bottom=0;right=0;align=left;spacingLeft=6;overflow=hidden;whiteSpace=wrap;html=1;strokeColor=#82b366;" parent="BKdgqYLP4mJ8UhsqF7z6-46" vertex="1">
          <mxGeometry x="40" width="257" height="30" as="geometry">
            <mxRectangle width="257" height="30" as="alternateBounds" />
          </mxGeometry>
        </mxCell>
        <mxCell id="BKdgqYLP4mJ8UhsqF7z6-49" value="" style="shape=tableRow;horizontal=0;startSize=0;swimlaneHead=0;swimlaneBody=0;fillColor=none;collapsible=0;dropTarget=0;points=[[0,0.5],[1,0.5]];portConstraint=eastwest;top=0;left=0;right=0;bottom=0;" parent="BKdgqYLP4mJ8UhsqF7z6-39" vertex="1">
          <mxGeometry y="120" width="297" height="30" as="geometry" />
        </mxCell>
        <mxCell id="BKdgqYLP4mJ8UhsqF7z6-50" value="" style="shape=partialRectangle;connectable=0;fillColor=none;top=0;left=0;bottom=0;right=0;editable=1;overflow=hidden;whiteSpace=wrap;html=1;" parent="BKdgqYLP4mJ8UhsqF7z6-49" vertex="1">
          <mxGeometry width="40" height="30" as="geometry">
            <mxRectangle width="40" height="30" as="alternateBounds" />
          </mxGeometry>
        </mxCell>
        <mxCell id="BKdgqYLP4mJ8UhsqF7z6-51" value="delivery_adress&amp;nbsp; &amp;nbsp;&lt;b style=&quot;border-color: var(--border-color);&quot;&gt;&lt;b style=&quot;border-color: var(--border-color);&quot;&gt;&lt;font style=&quot;border-color: var(--border-color);&quot; color=&quot;#0868bd&quot;&gt;string&lt;/font&gt;&lt;/b&gt;&amp;nbsp;not nul&lt;/b&gt;" style="shape=partialRectangle;connectable=0;fillColor=none;top=0;left=0;bottom=0;right=0;align=left;spacingLeft=6;overflow=hidden;whiteSpace=wrap;html=1;" parent="BKdgqYLP4mJ8UhsqF7z6-49" vertex="1">
          <mxGeometry x="40" width="257" height="30" as="geometry">
            <mxRectangle width="257" height="30" as="alternateBounds" />
          </mxGeometry>
        </mxCell>
        <mxCell id="BKdgqYLP4mJ8UhsqF7z6-52" value="" style="shape=tableRow;horizontal=0;startSize=0;swimlaneHead=0;swimlaneBody=0;fillColor=none;collapsible=0;dropTarget=0;points=[[0,0.5],[1,0.5]];portConstraint=eastwest;top=0;left=0;right=0;bottom=0;" parent="BKdgqYLP4mJ8UhsqF7z6-39" vertex="1">
          <mxGeometry y="150" width="297" height="30" as="geometry" />
        </mxCell>
        <mxCell id="BKdgqYLP4mJ8UhsqF7z6-53" value="" style="shape=partialRectangle;connectable=0;fillColor=none;top=0;left=0;bottom=0;right=0;editable=1;overflow=hidden;whiteSpace=wrap;html=1;" parent="BKdgqYLP4mJ8UhsqF7z6-52" vertex="1">
          <mxGeometry width="40" height="30" as="geometry">
            <mxRectangle width="40" height="30" as="alternateBounds" />
          </mxGeometry>
        </mxCell>
        <mxCell id="BKdgqYLP4mJ8UhsqF7z6-54" value="shipping_date&amp;nbsp;&lt;b style=&quot;border-color: var(--border-color);&quot;&gt;&lt;font style=&quot;border-color: var(--border-color);&quot; color=&quot;#0868bd&quot;&gt;timestamp&amp;nbsp;&lt;/font&gt;&lt;font style=&quot;border-color: var(--border-color);&quot; color=&quot;#000305&quot;&gt;not null&lt;/font&gt;&lt;/b&gt;" style="shape=partialRectangle;connectable=0;fillColor=none;top=0;left=0;bottom=0;right=0;align=left;spacingLeft=6;overflow=hidden;whiteSpace=wrap;html=1;" parent="BKdgqYLP4mJ8UhsqF7z6-52" vertex="1">
          <mxGeometry x="40" width="257" height="30" as="geometry">
            <mxRectangle width="257" height="30" as="alternateBounds" />
          </mxGeometry>
        </mxCell>
        <mxCell id="BKdgqYLP4mJ8UhsqF7z6-55" value="" style="shape=tableRow;horizontal=0;startSize=0;swimlaneHead=0;swimlaneBody=0;fillColor=none;collapsible=0;dropTarget=0;points=[[0,0.5],[1,0.5]];portConstraint=eastwest;top=0;left=0;right=0;bottom=0;" parent="BKdgqYLP4mJ8UhsqF7z6-39" vertex="1">
          <mxGeometry y="180" width="297" height="30" as="geometry" />
        </mxCell>
        <mxCell id="BKdgqYLP4mJ8UhsqF7z6-56" value="" style="shape=partialRectangle;connectable=0;fillColor=none;top=0;left=0;bottom=0;right=0;editable=1;overflow=hidden;whiteSpace=wrap;html=1;" parent="BKdgqYLP4mJ8UhsqF7z6-55" vertex="1">
          <mxGeometry width="40" height="30" as="geometry">
            <mxRectangle width="40" height="30" as="alternateBounds" />
          </mxGeometry>
        </mxCell>
        <mxCell id="BKdgqYLP4mJ8UhsqF7z6-57" value="created_ad&amp;nbsp;&amp;nbsp;&lt;b style=&quot;border-color: var(--border-color);&quot;&gt;&lt;font style=&quot;border-color: var(--border-color);&quot; color=&quot;#0868bd&quot;&gt;timestamp&lt;/font&gt;&amp;nbsp;not null default()&lt;/b&gt;" style="shape=partialRectangle;connectable=0;fillColor=none;top=0;left=0;bottom=0;right=0;align=left;spacingLeft=6;overflow=hidden;whiteSpace=wrap;html=1;" parent="BKdgqYLP4mJ8UhsqF7z6-55" vertex="1">
          <mxGeometry x="40" width="257" height="30" as="geometry">
            <mxRectangle width="257" height="30" as="alternateBounds" />
          </mxGeometry>
        </mxCell>
        <mxCell id="BKdgqYLP4mJ8UhsqF7z6-60" value="" style="shape=tableRow;horizontal=0;startSize=0;swimlaneHead=0;swimlaneBody=0;fillColor=none;collapsible=0;dropTarget=0;points=[[0,0.5],[1,0.5]];portConstraint=eastwest;top=0;left=0;right=0;bottom=0;" parent="BKdgqYLP4mJ8UhsqF7z6-39" vertex="1">
          <mxGeometry y="210" width="297" height="30" as="geometry" />
        </mxCell>
        <mxCell id="BKdgqYLP4mJ8UhsqF7z6-61" value="" style="shape=partialRectangle;connectable=0;fillColor=none;top=0;left=0;bottom=0;right=0;editable=1;overflow=hidden;whiteSpace=wrap;html=1;" parent="BKdgqYLP4mJ8UhsqF7z6-60" vertex="1">
          <mxGeometry width="40" height="30" as="geometry">
            <mxRectangle width="40" height="30" as="alternateBounds" />
          </mxGeometry>
        </mxCell>
        <mxCell id="BKdgqYLP4mJ8UhsqF7z6-62" value="count_product&amp;nbsp; &amp;nbsp;&lt;b style=&quot;border-color: var(--border-color);&quot;&gt;&lt;font style=&quot;border-color: var(--border-color);&quot; color=&quot;#0868bd&quot;&gt;int&lt;/font&gt;&amp;nbsp;not nul&lt;/b&gt;" style="shape=partialRectangle;connectable=0;fillColor=none;top=0;left=0;bottom=0;right=0;align=left;spacingLeft=6;overflow=hidden;whiteSpace=wrap;html=1;" parent="BKdgqYLP4mJ8UhsqF7z6-60" vertex="1">
          <mxGeometry x="40" width="257" height="30" as="geometry">
            <mxRectangle width="257" height="30" as="alternateBounds" />
          </mxGeometry>
        </mxCell>
        <mxCell id="BKdgqYLP4mJ8UhsqF7z6-69" value="" style="shape=tableRow;horizontal=0;startSize=0;swimlaneHead=0;swimlaneBody=0;fillColor=none;collapsible=0;dropTarget=0;points=[[0,0.5],[1,0.5]];portConstraint=eastwest;top=0;left=0;right=0;bottom=0;" parent="BKdgqYLP4mJ8UhsqF7z6-39" vertex="1">
          <mxGeometry y="240" width="297" height="30" as="geometry" />
        </mxCell>
        <mxCell id="BKdgqYLP4mJ8UhsqF7z6-70" value="" style="shape=partialRectangle;connectable=0;fillColor=none;top=0;left=0;bottom=0;right=0;editable=1;overflow=hidden;whiteSpace=wrap;html=1;" parent="BKdgqYLP4mJ8UhsqF7z6-69" vertex="1">
          <mxGeometry width="40" height="30" as="geometry">
            <mxRectangle width="40" height="30" as="alternateBounds" />
          </mxGeometry>
        </mxCell>
        <mxCell id="BKdgqYLP4mJ8UhsqF7z6-71" value="total_cost&amp;nbsp; &amp;nbsp;&lt;b style=&quot;border-color: var(--border-color);&quot;&gt;&lt;font style=&quot;border-color: var(--border-color);&quot; color=&quot;#0868bd&quot;&gt;float&lt;/font&gt;&amp;nbsp;not nul&lt;/b&gt;" style="shape=partialRectangle;connectable=0;fillColor=none;top=0;left=0;bottom=0;right=0;align=left;spacingLeft=6;overflow=hidden;whiteSpace=wrap;html=1;" parent="BKdgqYLP4mJ8UhsqF7z6-69" vertex="1">
          <mxGeometry x="40" width="257" height="30" as="geometry">
            <mxRectangle width="257" height="30" as="alternateBounds" />
          </mxGeometry>
        </mxCell>
        <mxCell id="BKdgqYLP4mJ8UhsqF7z6-58" value="" style="endArrow=classic;html=1;rounded=0;exitX=1;exitY=0.5;exitDx=0;exitDy=0;entryX=0;entryY=0.5;entryDx=0;entryDy=0;strokeWidth=2;" parent="1" source="BKdgqYLP4mJ8UhsqF7z6-18" target="BKdgqYLP4mJ8UhsqF7z6-43" edge="1">
          <mxGeometry width="50" height="50" relative="1" as="geometry">
            <mxPoint x="590" y="-480" as="sourcePoint" />
            <mxPoint x="640" y="-530" as="targetPoint" />
          </mxGeometry>
        </mxCell>
        <mxCell id="BKdgqYLP4mJ8UhsqF7z6-59" value="&lt;font style=&quot;font-size: 18px;&quot;&gt;&lt;b style=&quot;background-color: rgb(166, 255, 234);&quot;&gt;Физическая модель данных Primary Data Layer&lt;/b&gt;&lt;/font&gt;" style="text;html=1;strokeColor=none;fillColor=none;align=center;verticalAlign=middle;whiteSpace=wrap;rounded=0;" parent="1" vertex="1">
          <mxGeometry x="340" y="-750" width="520" height="30" as="geometry" />
        </mxCell>
        <mxCell id="BKdgqYLP4mJ8UhsqF7z6-72" value="" style="endArrow=classic;html=1;rounded=0;exitX=1.01;exitY=0.18;exitDx=0;exitDy=0;exitPerimeter=0;strokeWidth=2;" parent="1" source="BKdgqYLP4mJ8UhsqF7z6-46" edge="1">
          <mxGeometry width="50" height="50" relative="1" as="geometry">
            <mxPoint x="560" y="-300" as="sourcePoint" />
            <mxPoint x="841" y="-563" as="targetPoint" />
          </mxGeometry>
        </mxCell>
        <mxCell id="HvJwrrsyZe6A6jJ-l2LG-1" value="&lt;font style=&quot;font-size: 14px;&quot;&gt;Sales_Fact&lt;/font&gt;" style="shape=table;startSize=30;container=1;collapsible=1;childLayout=tableLayout;fixedRows=1;rowLines=0;fontStyle=1;align=center;resizeLast=1;html=1;whiteSpace=wrap;strokeColor=#00AD00;strokeWidth=3;" parent="1" vertex="1">
          <mxGeometry x="1200" y="-1360" width="320" height="240" as="geometry" />
        </mxCell>
        <mxCell id="HvJwrrsyZe6A6jJ-l2LG-2" value="" style="shape=tableRow;horizontal=0;startSize=0;swimlaneHead=0;swimlaneBody=0;fillColor=none;collapsible=0;dropTarget=0;points=[[0,0.5],[1,0.5]];portConstraint=eastwest;top=0;left=0;right=0;bottom=0;html=1;" parent="HvJwrrsyZe6A6jJ-l2LG-1" vertex="1">
          <mxGeometry y="30" width="320" height="30" as="geometry" />
        </mxCell>
        <mxCell id="HvJwrrsyZe6A6jJ-l2LG-3" value="PK,FK1" style="shape=partialRectangle;connectable=0;fillColor=#bac8d3;top=0;left=0;bottom=0;right=0;fontStyle=1;overflow=hidden;html=1;whiteSpace=wrap;strokeColor=#23445d;" parent="HvJwrrsyZe6A6jJ-l2LG-2" vertex="1">
          <mxGeometry width="60" height="30" as="geometry">
            <mxRectangle width="60" height="30" as="alternateBounds" />
          </mxGeometry>
        </mxCell>
        <mxCell id="HvJwrrsyZe6A6jJ-l2LG-4" value="product_id&amp;nbsp;&lt;b style=&quot;border-color: var(--border-color);&quot;&gt;&lt;font style=&quot;border-color: var(--border-color);&quot; color=&quot;#0868bd&quot;&gt;int&amp;nbsp;&lt;/font&gt;not null&lt;/b&gt;" style="shape=partialRectangle;connectable=0;fillColor=#bac8d3;top=0;left=0;bottom=0;right=0;align=left;spacingLeft=6;fontStyle=5;overflow=hidden;html=1;whiteSpace=wrap;strokeColor=#23445d;" parent="HvJwrrsyZe6A6jJ-l2LG-2" vertex="1">
          <mxGeometry x="60" width="260" height="30" as="geometry">
            <mxRectangle width="260" height="30" as="alternateBounds" />
          </mxGeometry>
        </mxCell>
        <mxCell id="HvJwrrsyZe6A6jJ-l2LG-5" value="" style="shape=tableRow;horizontal=0;startSize=0;swimlaneHead=0;swimlaneBody=0;fillColor=none;collapsible=0;dropTarget=0;points=[[0,0.5],[1,0.5]];portConstraint=eastwest;top=0;left=0;right=0;bottom=1;html=1;" parent="HvJwrrsyZe6A6jJ-l2LG-1" vertex="1">
          <mxGeometry y="60" width="320" height="30" as="geometry" />
        </mxCell>
        <mxCell id="HvJwrrsyZe6A6jJ-l2LG-6" value="PK,FK2" style="shape=partialRectangle;connectable=0;fillColor=#ffe6cc;top=0;left=0;bottom=0;right=0;fontStyle=1;overflow=hidden;html=1;whiteSpace=wrap;strokeColor=#d79b00;" parent="HvJwrrsyZe6A6jJ-l2LG-5" vertex="1">
          <mxGeometry width="60" height="30" as="geometry">
            <mxRectangle width="60" height="30" as="alternateBounds" />
          </mxGeometry>
        </mxCell>
        <mxCell id="HvJwrrsyZe6A6jJ-l2LG-7" value="month_id&amp;nbsp;&lt;b style=&quot;border-color: var(--border-color);&quot;&gt;&lt;font style=&quot;border-color: var(--border-color);&quot; color=&quot;#0868bd&quot;&gt;int&lt;/font&gt;&lt;/b&gt;&amp;nbsp;&lt;b style=&quot;border-color: var(--border-color);&quot;&gt;not null&lt;/b&gt;" style="shape=partialRectangle;connectable=0;fillColor=#ffe6cc;top=0;left=0;bottom=0;right=0;align=left;spacingLeft=6;fontStyle=5;overflow=hidden;html=1;whiteSpace=wrap;strokeColor=#d79b00;" parent="HvJwrrsyZe6A6jJ-l2LG-5" vertex="1">
          <mxGeometry x="60" width="260" height="30" as="geometry">
            <mxRectangle width="260" height="30" as="alternateBounds" />
          </mxGeometry>
        </mxCell>
        <mxCell id="HvJwrrsyZe6A6jJ-l2LG-8" value="" style="shape=tableRow;horizontal=0;startSize=0;swimlaneHead=0;swimlaneBody=0;fillColor=none;collapsible=0;dropTarget=0;points=[[0,0.5],[1,0.5]];portConstraint=eastwest;top=0;left=0;right=0;bottom=0;html=1;" parent="HvJwrrsyZe6A6jJ-l2LG-1" vertex="1">
          <mxGeometry y="90" width="320" height="30" as="geometry" />
        </mxCell>
        <mxCell id="HvJwrrsyZe6A6jJ-l2LG-9" value="" style="shape=partialRectangle;connectable=0;fillColor=none;top=0;left=0;bottom=0;right=0;editable=1;overflow=hidden;html=1;whiteSpace=wrap;" parent="HvJwrrsyZe6A6jJ-l2LG-8" vertex="1">
          <mxGeometry width="60" height="30" as="geometry">
            <mxRectangle width="60" height="30" as="alternateBounds" />
          </mxGeometry>
        </mxCell>
        <mxCell id="HvJwrrsyZe6A6jJ-l2LG-10" value="revenue&amp;nbsp; &amp;nbsp;&lt;b style=&quot;border-color: var(--border-color);&quot;&gt;&lt;font style=&quot;border-color: var(--border-color);&quot; color=&quot;#0868bd&quot;&gt;numeric&lt;/font&gt;&amp;nbsp;not null&lt;/b&gt;" style="shape=partialRectangle;connectable=0;fillColor=none;top=0;left=0;bottom=0;right=0;align=left;spacingLeft=6;overflow=hidden;html=1;whiteSpace=wrap;" parent="HvJwrrsyZe6A6jJ-l2LG-8" vertex="1">
          <mxGeometry x="60" width="260" height="30" as="geometry">
            <mxRectangle width="260" height="30" as="alternateBounds" />
          </mxGeometry>
        </mxCell>
        <mxCell id="HvJwrrsyZe6A6jJ-l2LG-11" value="" style="shape=tableRow;horizontal=0;startSize=0;swimlaneHead=0;swimlaneBody=0;fillColor=none;collapsible=0;dropTarget=0;points=[[0,0.5],[1,0.5]];portConstraint=eastwest;top=0;left=0;right=0;bottom=0;html=1;" parent="HvJwrrsyZe6A6jJ-l2LG-1" vertex="1">
          <mxGeometry y="120" width="320" height="30" as="geometry" />
        </mxCell>
        <mxCell id="HvJwrrsyZe6A6jJ-l2LG-12" value="" style="shape=partialRectangle;connectable=0;fillColor=none;top=0;left=0;bottom=0;right=0;editable=1;overflow=hidden;html=1;whiteSpace=wrap;" parent="HvJwrrsyZe6A6jJ-l2LG-11" vertex="1">
          <mxGeometry width="60" height="30" as="geometry">
            <mxRectangle width="60" height="30" as="alternateBounds" />
          </mxGeometry>
        </mxCell>
        <mxCell id="HvJwrrsyZe6A6jJ-l2LG-13" value="count_return&amp;nbsp;&lt;b style=&quot;border-color: var(--border-color);&quot;&gt;&amp;nbsp;&lt;font style=&quot;border-color: var(--border-color);&quot; color=&quot;#0868bd&quot;&gt;int&lt;/font&gt;&lt;/b&gt;&lt;b style=&quot;border-color: var(--border-color);&quot;&gt;&amp;nbsp;not nul&lt;/b&gt;" style="shape=partialRectangle;connectable=0;fillColor=none;top=0;left=0;bottom=0;right=0;align=left;spacingLeft=6;overflow=hidden;html=1;whiteSpace=wrap;" parent="HvJwrrsyZe6A6jJ-l2LG-11" vertex="1">
          <mxGeometry x="60" width="260" height="30" as="geometry">
            <mxRectangle width="260" height="30" as="alternateBounds" />
          </mxGeometry>
        </mxCell>
        <mxCell id="HvJwrrsyZe6A6jJ-l2LG-14" value="" style="shape=tableRow;horizontal=0;startSize=0;swimlaneHead=0;swimlaneBody=0;fillColor=none;collapsible=0;dropTarget=0;points=[[0,0.5],[1,0.5]];portConstraint=eastwest;top=0;left=0;right=0;bottom=0;html=1;" parent="HvJwrrsyZe6A6jJ-l2LG-1" vertex="1">
          <mxGeometry y="150" width="320" height="30" as="geometry" />
        </mxCell>
        <mxCell id="HvJwrrsyZe6A6jJ-l2LG-15" value="" style="shape=partialRectangle;connectable=0;fillColor=none;top=0;left=0;bottom=0;right=0;editable=1;overflow=hidden;html=1;whiteSpace=wrap;" parent="HvJwrrsyZe6A6jJ-l2LG-14" vertex="1">
          <mxGeometry width="60" height="30" as="geometry">
            <mxRectangle width="60" height="30" as="alternateBounds" />
          </mxGeometry>
        </mxCell>
        <mxCell id="HvJwrrsyZe6A6jJ-l2LG-16" value="detriment&amp;nbsp;&lt;b style=&quot;border-color: var(--border-color);&quot;&gt;&lt;font style=&quot;border-color: var(--border-color);&quot; color=&quot;#0868bd&quot;&gt;&lt;b style=&quot;border-color: var(--border-color); color: rgb(0, 0, 0);&quot;&gt;&lt;font style=&quot;border-color: var(--border-color);&quot; color=&quot;#0868bd&quot;&gt;numeric&lt;/font&gt;&lt;/b&gt;&amp;nbsp;&lt;/font&gt;&lt;font style=&quot;border-color: var(--border-color);&quot; color=&quot;#000305&quot;&gt;not null&lt;/font&gt;&lt;/b&gt;" style="shape=partialRectangle;connectable=0;fillColor=none;top=0;left=0;bottom=0;right=0;align=left;spacingLeft=6;overflow=hidden;html=1;whiteSpace=wrap;" parent="HvJwrrsyZe6A6jJ-l2LG-14" vertex="1">
          <mxGeometry x="60" width="260" height="30" as="geometry">
            <mxRectangle width="260" height="30" as="alternateBounds" />
          </mxGeometry>
        </mxCell>
        <mxCell id="HvJwrrsyZe6A6jJ-l2LG-17" value="" style="shape=tableRow;horizontal=0;startSize=0;swimlaneHead=0;swimlaneBody=0;fillColor=none;collapsible=0;dropTarget=0;points=[[0,0.5],[1,0.5]];portConstraint=eastwest;top=0;left=0;right=0;bottom=0;html=1;" parent="HvJwrrsyZe6A6jJ-l2LG-1" vertex="1">
          <mxGeometry y="180" width="320" height="30" as="geometry" />
        </mxCell>
        <mxCell id="HvJwrrsyZe6A6jJ-l2LG-18" value="" style="shape=partialRectangle;connectable=0;fillColor=none;top=0;left=0;bottom=0;right=0;editable=1;overflow=hidden;html=1;whiteSpace=wrap;" parent="HvJwrrsyZe6A6jJ-l2LG-17" vertex="1">
          <mxGeometry width="60" height="30" as="geometry">
            <mxRectangle width="60" height="30" as="alternateBounds" />
          </mxGeometry>
        </mxCell>
        <mxCell id="HvJwrrsyZe6A6jJ-l2LG-19" value="created_ad&amp;nbsp;&amp;nbsp;&lt;b style=&quot;border-color: var(--border-color);&quot;&gt;&lt;font style=&quot;border-color: var(--border-color);&quot; color=&quot;#0868bd&quot;&gt;timestamp&lt;/font&gt;&amp;nbsp;not null default()&lt;/b&gt;" style="shape=partialRectangle;connectable=0;fillColor=none;top=0;left=0;bottom=0;right=0;align=left;spacingLeft=6;overflow=hidden;html=1;whiteSpace=wrap;" parent="HvJwrrsyZe6A6jJ-l2LG-17" vertex="1">
          <mxGeometry x="60" width="260" height="30" as="geometry">
            <mxRectangle width="260" height="30" as="alternateBounds" />
          </mxGeometry>
        </mxCell>
        <mxCell id="HvJwrrsyZe6A6jJ-l2LG-20" value="&lt;font style=&quot;font-size: 14px;&quot;&gt;Return&lt;/font&gt;" style="shape=table;startSize=30;container=1;collapsible=1;childLayout=tableLayout;fixedRows=1;rowLines=0;fontStyle=1;align=center;resizeLast=1;html=1;strokeColor=#009999;strokeWidth=3;" parent="1" vertex="1">
          <mxGeometry x="720" y="-1520" width="280" height="200" as="geometry" />
        </mxCell>
        <mxCell id="HvJwrrsyZe6A6jJ-l2LG-21" value="" style="shape=tableRow;horizontal=0;startSize=0;swimlaneHead=0;swimlaneBody=0;fillColor=none;collapsible=0;dropTarget=0;points=[[0,0.5],[1,0.5]];portConstraint=eastwest;top=0;left=0;right=0;bottom=1;" parent="HvJwrrsyZe6A6jJ-l2LG-20" vertex="1">
          <mxGeometry y="30" width="280" height="30" as="geometry" />
        </mxCell>
        <mxCell id="HvJwrrsyZe6A6jJ-l2LG-22" value="PK" style="shape=partialRectangle;connectable=0;fillColor=#b1ddf0;top=0;left=0;bottom=0;right=0;fontStyle=1;overflow=hidden;whiteSpace=wrap;html=1;strokeColor=#10739e;" parent="HvJwrrsyZe6A6jJ-l2LG-21" vertex="1">
          <mxGeometry width="40" height="30" as="geometry">
            <mxRectangle width="40" height="30" as="alternateBounds" />
          </mxGeometry>
        </mxCell>
        <mxCell id="HvJwrrsyZe6A6jJ-l2LG-23" value="return_id&amp;nbsp;&lt;b style=&quot;border-color: var(--border-color);&quot;&gt;&lt;font style=&quot;border-color: var(--border-color);&quot; color=&quot;#0868bd&quot;&gt;int&lt;/font&gt;&lt;/b&gt;&amp;nbsp;&lt;b style=&quot;border-color: var(--border-color);&quot;&gt;not null&lt;/b&gt;" style="shape=partialRectangle;connectable=0;fillColor=#b1ddf0;top=0;left=0;bottom=0;right=0;align=left;spacingLeft=6;fontStyle=5;overflow=hidden;whiteSpace=wrap;html=1;strokeColor=#10739e;" parent="HvJwrrsyZe6A6jJ-l2LG-21" vertex="1">
          <mxGeometry x="40" width="240" height="30" as="geometry">
            <mxRectangle width="240" height="30" as="alternateBounds" />
          </mxGeometry>
        </mxCell>
        <mxCell id="HvJwrrsyZe6A6jJ-l2LG-24" value="" style="shape=tableRow;horizontal=0;startSize=0;swimlaneHead=0;swimlaneBody=0;fillColor=none;collapsible=0;dropTarget=0;points=[[0,0.5],[1,0.5]];portConstraint=eastwest;top=0;left=0;right=0;bottom=1;" parent="HvJwrrsyZe6A6jJ-l2LG-20" vertex="1">
          <mxGeometry y="60" width="280" height="30" as="geometry" />
        </mxCell>
        <mxCell id="HvJwrrsyZe6A6jJ-l2LG-25" value="FK" style="shape=partialRectangle;connectable=0;fillColor=#d0cee2;top=0;left=0;bottom=0;right=0;fontStyle=1;overflow=hidden;whiteSpace=wrap;html=1;strokeColor=#56517e;" parent="HvJwrrsyZe6A6jJ-l2LG-24" vertex="1">
          <mxGeometry width="40" height="30" as="geometry">
            <mxRectangle width="40" height="30" as="alternateBounds" />
          </mxGeometry>
        </mxCell>
        <mxCell id="HvJwrrsyZe6A6jJ-l2LG-26" value="order_id&amp;nbsp;&lt;b style=&quot;border-color: var(--border-color);&quot;&gt;&lt;font style=&quot;border-color: var(--border-color);&quot; color=&quot;#0868bd&quot;&gt;int&lt;/font&gt;&amp;nbsp;not null&lt;/b&gt;" style="shape=partialRectangle;connectable=0;fillColor=#d0cee2;top=0;left=0;bottom=0;right=0;align=left;spacingLeft=6;fontStyle=5;overflow=hidden;whiteSpace=wrap;html=1;strokeColor=#56517e;" parent="HvJwrrsyZe6A6jJ-l2LG-24" vertex="1">
          <mxGeometry x="40" width="240" height="30" as="geometry">
            <mxRectangle width="240" height="30" as="alternateBounds" />
          </mxGeometry>
        </mxCell>
        <mxCell id="HvJwrrsyZe6A6jJ-l2LG-27" value="" style="shape=tableRow;horizontal=0;startSize=0;swimlaneHead=0;swimlaneBody=0;fillColor=none;collapsible=0;dropTarget=0;points=[[0,0.5],[1,0.5]];portConstraint=eastwest;top=0;left=0;right=0;bottom=0;" parent="HvJwrrsyZe6A6jJ-l2LG-20" vertex="1">
          <mxGeometry y="90" width="280" height="30" as="geometry" />
        </mxCell>
        <mxCell id="HvJwrrsyZe6A6jJ-l2LG-28" value="" style="shape=partialRectangle;connectable=0;fillColor=none;top=0;left=0;bottom=0;right=0;editable=1;overflow=hidden;whiteSpace=wrap;html=1;" parent="HvJwrrsyZe6A6jJ-l2LG-27" vertex="1">
          <mxGeometry width="40" height="30" as="geometry">
            <mxRectangle width="40" height="30" as="alternateBounds" />
          </mxGeometry>
        </mxCell>
        <mxCell id="HvJwrrsyZe6A6jJ-l2LG-29" value="created_ad&amp;nbsp;&amp;nbsp;&lt;b style=&quot;border-color: var(--border-color);&quot;&gt;&lt;font style=&quot;border-color: var(--border-color);&quot; color=&quot;#0868bd&quot;&gt;timestamp&lt;/font&gt;&amp;nbsp;not null default()&lt;/b&gt;" style="shape=partialRectangle;connectable=0;fillColor=none;top=0;left=0;bottom=0;right=0;align=left;spacingLeft=6;overflow=hidden;whiteSpace=wrap;html=1;" parent="HvJwrrsyZe6A6jJ-l2LG-27" vertex="1">
          <mxGeometry x="40" width="240" height="30" as="geometry">
            <mxRectangle width="240" height="30" as="alternateBounds" />
          </mxGeometry>
        </mxCell>
        <mxCell id="HvJwrrsyZe6A6jJ-l2LG-30" value="" style="shape=tableRow;horizontal=0;startSize=0;swimlaneHead=0;swimlaneBody=0;fillColor=none;collapsible=0;dropTarget=0;points=[[0,0.5],[1,0.5]];portConstraint=eastwest;top=0;left=0;right=0;bottom=0;" parent="HvJwrrsyZe6A6jJ-l2LG-20" vertex="1">
          <mxGeometry y="120" width="280" height="30" as="geometry" />
        </mxCell>
        <mxCell id="HvJwrrsyZe6A6jJ-l2LG-31" value="" style="shape=partialRectangle;connectable=0;fillColor=none;top=0;left=0;bottom=0;right=0;editable=1;overflow=hidden;whiteSpace=wrap;html=1;" parent="HvJwrrsyZe6A6jJ-l2LG-30" vertex="1">
          <mxGeometry width="40" height="30" as="geometry">
            <mxRectangle width="40" height="30" as="alternateBounds" />
          </mxGeometry>
        </mxCell>
        <mxCell id="HvJwrrsyZe6A6jJ-l2LG-32" value="return_reason&amp;nbsp;&lt;b style=&quot;border-color: var(--border-color);&quot;&gt;&lt;b style=&quot;border-color: var(--border-color);&quot;&gt;&lt;font style=&quot;border-color: var(--border-color);&quot; color=&quot;#0868bd&quot;&gt;string&lt;/font&gt;&lt;/b&gt;&amp;nbsp;not null&lt;/b&gt;" style="shape=partialRectangle;connectable=0;fillColor=none;top=0;left=0;bottom=0;right=0;align=left;spacingLeft=6;overflow=hidden;whiteSpace=wrap;html=1;" parent="HvJwrrsyZe6A6jJ-l2LG-30" vertex="1">
          <mxGeometry x="40" width="240" height="30" as="geometry">
            <mxRectangle width="240" height="30" as="alternateBounds" />
          </mxGeometry>
        </mxCell>
        <mxCell id="HvJwrrsyZe6A6jJ-l2LG-33" value="" style="shape=tableRow;horizontal=0;startSize=0;swimlaneHead=0;swimlaneBody=0;fillColor=none;collapsible=0;dropTarget=0;points=[[0,0.5],[1,0.5]];portConstraint=eastwest;top=0;left=0;right=0;bottom=0;" parent="HvJwrrsyZe6A6jJ-l2LG-20" vertex="1">
          <mxGeometry y="150" width="280" height="30" as="geometry" />
        </mxCell>
        <mxCell id="HvJwrrsyZe6A6jJ-l2LG-34" value="" style="shape=partialRectangle;connectable=0;fillColor=none;top=0;left=0;bottom=0;right=0;editable=1;overflow=hidden;whiteSpace=wrap;html=1;" parent="HvJwrrsyZe6A6jJ-l2LG-33" vertex="1">
          <mxGeometry width="40" height="30" as="geometry">
            <mxRectangle width="40" height="30" as="alternateBounds" />
          </mxGeometry>
        </mxCell>
        <mxCell id="HvJwrrsyZe6A6jJ-l2LG-35" value="" style="shape=partialRectangle;connectable=0;fillColor=none;top=0;left=0;bottom=0;right=0;align=left;spacingLeft=6;overflow=hidden;whiteSpace=wrap;html=1;" parent="HvJwrrsyZe6A6jJ-l2LG-33" vertex="1">
          <mxGeometry x="40" width="240" height="30" as="geometry">
            <mxRectangle width="240" height="30" as="alternateBounds" />
          </mxGeometry>
        </mxCell>
        <mxCell id="aR6Vc9ZVh3V49masHhYy-1" value="&lt;font style=&quot;&quot;&gt;&lt;font style=&quot;font-size: 18px;&quot;&gt;&lt;b style=&quot;&quot;&gt;Проектирование компонентов DWH. Физическая модель данных&lt;/b&gt;&lt;br&gt;Primary Data Layer -&amp;gt; Core Data Layer -&amp;gt; Data Mart Layer&lt;/font&gt;&lt;br&gt;&lt;/font&gt;" style="text;html=1;strokeColor=none;fillColor=none;align=left;verticalAlign=middle;whiteSpace=wrap;rounded=0;" vertex="1" parent="1">
          <mxGeometry x="44" y="-810" width="720" height="40" as="geometry" />
        </mxCell>
      </root>
    </mxGraphModel>
  </diagram>
  <diagram id="ysgz2D9gIQEfTu-q0MRR" name="ETL-процессы">
    <mxGraphModel dx="1750" dy="805" grid="0" gridSize="10" guides="1" tooltips="1" connect="1" arrows="1" fold="1" page="1" pageScale="1" pageWidth="1169" pageHeight="827" math="0" shadow="0">
      <root>
        <mxCell id="0" />
        <mxCell id="1" parent="0" />
        <mxCell id="13fL1Wc6lxRRY0Gc4kzj-1" value="" style="swimlane;startSize=0;strokeColor=#0000FF;rounded=1;dashed=1;dashPattern=8 8;" parent="1" vertex="1">
          <mxGeometry x="320" y="160" width="800" height="600" as="geometry" />
        </mxCell>
        <mxCell id="13fL1Wc6lxRRY0Gc4kzj-2" value="" style="rounded=1;whiteSpace=wrap;html=1;strokeColor=#00CCCC;" parent="13fL1Wc6lxRRY0Gc4kzj-1" vertex="1">
          <mxGeometry x="40" y="120" width="170" height="440" as="geometry" />
        </mxCell>
        <mxCell id="13fL1Wc6lxRRY0Gc4kzj-3" value="&lt;font style=&quot;font-size: 14px;&quot;&gt;CRM_Продукты&lt;/font&gt;" style="rounded=1;whiteSpace=wrap;html=1;" parent="13fL1Wc6lxRRY0Gc4kzj-1" vertex="1">
          <mxGeometry x="60" y="280" width="120" height="50" as="geometry" />
        </mxCell>
        <mxCell id="13fL1Wc6lxRRY0Gc4kzj-4" value="&lt;font style=&quot;font-size: 14px;&quot;&gt;CRM_Заказы&lt;/font&gt;" style="rounded=1;whiteSpace=wrap;html=1;" parent="13fL1Wc6lxRRY0Gc4kzj-1" vertex="1">
          <mxGeometry x="60" y="195" width="120" height="50" as="geometry" />
        </mxCell>
        <mxCell id="13fL1Wc6lxRRY0Gc4kzj-6" value="&lt;span style=&quot;font-size: 14px;&quot;&gt;&lt;b&gt;DWH&lt;/b&gt;&lt;/span&gt;" style="text;html=1;align=center;verticalAlign=middle;resizable=0;points=[];autosize=1;strokeColor=none;fillColor=none;" parent="13fL1Wc6lxRRY0Gc4kzj-1" vertex="1">
          <mxGeometry x="350" y="30" width="60" height="30" as="geometry" />
        </mxCell>
        <mxCell id="13fL1Wc6lxRRY0Gc4kzj-10" value="&lt;font style=&quot;font-size: 14px;&quot;&gt;Auth_Покупатели&lt;br&gt;&lt;/font&gt;" style="rounded=1;whiteSpace=wrap;html=1;" parent="13fL1Wc6lxRRY0Gc4kzj-1" vertex="1">
          <mxGeometry x="65" y="465" width="120" height="50" as="geometry" />
        </mxCell>
        <mxCell id="zG8-U_q89gB3uUhX_xqN-10" value="&lt;font style=&quot;font-size: 14px;&quot;&gt;&lt;b&gt;Primary Data Layer&lt;/b&gt;&lt;/font&gt;" style="text;html=1;align=center;verticalAlign=middle;resizable=0;points=[];autosize=1;strokeColor=none;fillColor=none;" parent="13fL1Wc6lxRRY0Gc4kzj-1" vertex="1">
          <mxGeometry x="45" y="140" width="150" height="30" as="geometry" />
        </mxCell>
        <mxCell id="zG8-U_q89gB3uUhX_xqN-14" value="" style="rounded=1;whiteSpace=wrap;html=1;strokeColor=#0000FF;" parent="13fL1Wc6lxRRY0Gc4kzj-1" vertex="1">
          <mxGeometry x="250" y="120" width="240" height="440" as="geometry" />
        </mxCell>
        <mxCell id="zG8-U_q89gB3uUhX_xqN-15" value="" style="rounded=1;whiteSpace=wrap;html=1;strokeColor=#6600CC;" parent="13fL1Wc6lxRRY0Gc4kzj-1" vertex="1">
          <mxGeometry x="520" y="120" width="240" height="440" as="geometry" />
        </mxCell>
        <mxCell id="zG8-U_q89gB3uUhX_xqN-16" value="&lt;font style=&quot;font-size: 14px;&quot;&gt;&lt;b&gt;Core Data Layer&lt;/b&gt;&lt;/font&gt;" style="text;html=1;align=center;verticalAlign=middle;resizable=0;points=[];autosize=1;strokeColor=none;fillColor=none;" parent="13fL1Wc6lxRRY0Gc4kzj-1" vertex="1">
          <mxGeometry x="300" y="140" width="130" height="30" as="geometry" />
        </mxCell>
        <mxCell id="zG8-U_q89gB3uUhX_xqN-17" value="&lt;font style=&quot;font-size: 14px;&quot;&gt;&lt;b&gt;Data Mart&amp;nbsp;Layer&lt;/b&gt;&lt;/font&gt;" style="text;html=1;align=center;verticalAlign=middle;resizable=0;points=[];autosize=1;strokeColor=none;fillColor=none;" parent="13fL1Wc6lxRRY0Gc4kzj-1" vertex="1">
          <mxGeometry x="575" y="140" width="130" height="30" as="geometry" />
        </mxCell>
        <mxCell id="zG8-U_q89gB3uUhX_xqN-18" value="&lt;font style=&quot;font-size: 14px;&quot;&gt;Order&lt;/font&gt;" style="rounded=1;whiteSpace=wrap;html=1;" parent="13fL1Wc6lxRRY0Gc4kzj-1" vertex="1">
          <mxGeometry x="280" y="185" width="180" height="45" as="geometry" />
        </mxCell>
        <mxCell id="zG8-U_q89gB3uUhX_xqN-19" value="&lt;font style=&quot;font-size: 14px;&quot;&gt;Order_Product&lt;/font&gt;" style="rounded=1;whiteSpace=wrap;html=1;" parent="13fL1Wc6lxRRY0Gc4kzj-1" vertex="1">
          <mxGeometry x="280" y="245" width="180" height="45" as="geometry" />
        </mxCell>
        <mxCell id="zG8-U_q89gB3uUhX_xqN-20" value="&lt;font style=&quot;font-size: 14px;&quot;&gt;Return&lt;/font&gt;" style="rounded=1;whiteSpace=wrap;html=1;" parent="13fL1Wc6lxRRY0Gc4kzj-1" vertex="1">
          <mxGeometry x="280" y="310" width="180" height="45" as="geometry" />
        </mxCell>
        <mxCell id="zG8-U_q89gB3uUhX_xqN-21" value="&lt;font style=&quot;font-size: 14px;&quot;&gt;Product&lt;/font&gt;" style="rounded=1;whiteSpace=wrap;html=1;" parent="13fL1Wc6lxRRY0Gc4kzj-1" vertex="1">
          <mxGeometry x="280" y="370" width="180" height="45" as="geometry" />
        </mxCell>
        <mxCell id="zG8-U_q89gB3uUhX_xqN-22" value="&lt;font style=&quot;font-size: 14px;&quot;&gt;Product_Category&lt;/font&gt;" style="rounded=1;whiteSpace=wrap;html=1;" parent="13fL1Wc6lxRRY0Gc4kzj-1" vertex="1">
          <mxGeometry x="280" y="430" width="180" height="45" as="geometry" />
        </mxCell>
        <mxCell id="zG8-U_q89gB3uUhX_xqN-23" value="&lt;font style=&quot;font-size: 14px;&quot;&gt;Customer&lt;/font&gt;" style="rounded=1;whiteSpace=wrap;html=1;" parent="13fL1Wc6lxRRY0Gc4kzj-1" vertex="1">
          <mxGeometry x="280" y="490" width="180" height="45" as="geometry" />
        </mxCell>
        <mxCell id="LznhTQ9dqOKY5q1OOb8f-1" value="&lt;font style=&quot;font-size: 14px;&quot;&gt;Sales_Fact&lt;/font&gt;" style="rounded=1;whiteSpace=wrap;html=1;" parent="13fL1Wc6lxRRY0Gc4kzj-1" vertex="1">
          <mxGeometry x="540" y="195" width="180" height="45" as="geometry" />
        </mxCell>
        <mxCell id="LznhTQ9dqOKY5q1OOb8f-2" value="&lt;font style=&quot;font-size: 14px;&quot;&gt;Product_Dim&lt;/font&gt;" style="rounded=1;whiteSpace=wrap;html=1;" parent="13fL1Wc6lxRRY0Gc4kzj-1" vertex="1">
          <mxGeometry x="550" y="277.5" width="180" height="45" as="geometry" />
        </mxCell>
        <mxCell id="LznhTQ9dqOKY5q1OOb8f-3" value="&lt;font style=&quot;font-size: 14px;&quot;&gt;ProductCategiry_Dim&lt;/font&gt;" style="rounded=1;whiteSpace=wrap;html=1;" parent="13fL1Wc6lxRRY0Gc4kzj-1" vertex="1">
          <mxGeometry x="550" y="370" width="180" height="45" as="geometry" />
        </mxCell>
        <mxCell id="LznhTQ9dqOKY5q1OOb8f-4" value="&lt;font style=&quot;font-size: 14px;&quot;&gt;Month_Dim&lt;/font&gt;" style="rounded=1;whiteSpace=wrap;html=1;" parent="13fL1Wc6lxRRY0Gc4kzj-1" vertex="1">
          <mxGeometry x="550" y="475" width="180" height="45" as="geometry" />
        </mxCell>
        <mxCell id="LznhTQ9dqOKY5q1OOb8f-5" value="" style="endArrow=classic;html=1;rounded=0;exitX=1;exitY=0.25;exitDx=0;exitDy=0;entryX=0;entryY=0.5;entryDx=0;entryDy=0;" parent="13fL1Wc6lxRRY0Gc4kzj-1" source="13fL1Wc6lxRRY0Gc4kzj-4" target="zG8-U_q89gB3uUhX_xqN-18" edge="1">
          <mxGeometry width="50" height="50" relative="1" as="geometry">
            <mxPoint x="340" y="340" as="sourcePoint" />
            <mxPoint x="390" y="290" as="targetPoint" />
          </mxGeometry>
        </mxCell>
        <mxCell id="LznhTQ9dqOKY5q1OOb8f-6" value="" style="endArrow=classic;html=1;rounded=0;exitX=1;exitY=0.5;exitDx=0;exitDy=0;entryX=0;entryY=0.5;entryDx=0;entryDy=0;" parent="13fL1Wc6lxRRY0Gc4kzj-1" source="13fL1Wc6lxRRY0Gc4kzj-4" target="zG8-U_q89gB3uUhX_xqN-19" edge="1">
          <mxGeometry width="50" height="50" relative="1" as="geometry">
            <mxPoint x="340" y="340" as="sourcePoint" />
            <mxPoint x="390" y="290" as="targetPoint" />
          </mxGeometry>
        </mxCell>
        <mxCell id="LznhTQ9dqOKY5q1OOb8f-7" value="" style="endArrow=classic;html=1;rounded=0;exitX=1;exitY=0.75;exitDx=0;exitDy=0;entryX=0;entryY=0.5;entryDx=0;entryDy=0;" parent="13fL1Wc6lxRRY0Gc4kzj-1" source="13fL1Wc6lxRRY0Gc4kzj-4" target="zG8-U_q89gB3uUhX_xqN-20" edge="1">
          <mxGeometry width="50" height="50" relative="1" as="geometry">
            <mxPoint x="340" y="340" as="sourcePoint" />
            <mxPoint x="390" y="290" as="targetPoint" />
          </mxGeometry>
        </mxCell>
        <mxCell id="LznhTQ9dqOKY5q1OOb8f-8" value="" style="endArrow=classic;html=1;rounded=0;exitX=1;exitY=0.5;exitDx=0;exitDy=0;entryX=0.125;entryY=0.614;entryDx=0;entryDy=0;entryPerimeter=0;" parent="13fL1Wc6lxRRY0Gc4kzj-1" source="13fL1Wc6lxRRY0Gc4kzj-3" target="zG8-U_q89gB3uUhX_xqN-14" edge="1">
          <mxGeometry width="50" height="50" relative="1" as="geometry">
            <mxPoint x="340" y="340" as="sourcePoint" />
            <mxPoint x="390" y="290" as="targetPoint" />
          </mxGeometry>
        </mxCell>
        <mxCell id="LznhTQ9dqOKY5q1OOb8f-10" value="" style="endArrow=classic;html=1;rounded=0;exitX=1;exitY=0.75;exitDx=0;exitDy=0;entryX=0.125;entryY=0.773;entryDx=0;entryDy=0;entryPerimeter=0;" parent="13fL1Wc6lxRRY0Gc4kzj-1" source="13fL1Wc6lxRRY0Gc4kzj-3" target="zG8-U_q89gB3uUhX_xqN-14" edge="1">
          <mxGeometry width="50" height="50" relative="1" as="geometry">
            <mxPoint x="340" y="340" as="sourcePoint" />
            <mxPoint x="390" y="290" as="targetPoint" />
          </mxGeometry>
        </mxCell>
        <mxCell id="LznhTQ9dqOKY5q1OOb8f-9" value="" style="endArrow=classic;html=1;rounded=0;exitX=1;exitY=0.5;exitDx=0;exitDy=0;entryX=0;entryY=0.5;entryDx=0;entryDy=0;" parent="13fL1Wc6lxRRY0Gc4kzj-1" source="13fL1Wc6lxRRY0Gc4kzj-10" target="zG8-U_q89gB3uUhX_xqN-23" edge="1">
          <mxGeometry width="50" height="50" relative="1" as="geometry">
            <mxPoint x="340" y="340" as="sourcePoint" />
            <mxPoint x="390" y="290" as="targetPoint" />
          </mxGeometry>
        </mxCell>
        <mxCell id="LznhTQ9dqOKY5q1OOb8f-12" value="" style="endArrow=classic;html=1;rounded=0;exitX=1;exitY=0.5;exitDx=0;exitDy=0;" parent="13fL1Wc6lxRRY0Gc4kzj-1" source="zG8-U_q89gB3uUhX_xqN-18" edge="1">
          <mxGeometry width="50" height="50" relative="1" as="geometry">
            <mxPoint x="340" y="340" as="sourcePoint" />
            <mxPoint x="540" y="208" as="targetPoint" />
          </mxGeometry>
        </mxCell>
        <mxCell id="vv-xCNZbP0c1ekZd4yFC-1" value="" style="endArrow=classic;html=1;rounded=0;entryX=0;entryY=0.5;entryDx=0;entryDy=0;exitX=1;exitY=0.5;exitDx=0;exitDy=0;" parent="13fL1Wc6lxRRY0Gc4kzj-1" source="zG8-U_q89gB3uUhX_xqN-19" target="LznhTQ9dqOKY5q1OOb8f-1" edge="1">
          <mxGeometry width="50" height="50" relative="1" as="geometry">
            <mxPoint x="340" y="340" as="sourcePoint" />
            <mxPoint x="390" y="290" as="targetPoint" />
          </mxGeometry>
        </mxCell>
        <mxCell id="4NmXVr11dC-fUOmPpz1J-1" value="" style="endArrow=classic;html=1;rounded=0;entryX=0;entryY=0.75;entryDx=0;entryDy=0;exitX=1;exitY=0.5;exitDx=0;exitDy=0;" parent="13fL1Wc6lxRRY0Gc4kzj-1" source="zG8-U_q89gB3uUhX_xqN-20" target="LznhTQ9dqOKY5q1OOb8f-1" edge="1">
          <mxGeometry width="50" height="50" relative="1" as="geometry">
            <mxPoint x="340" y="350" as="sourcePoint" />
            <mxPoint x="390" y="300" as="targetPoint" />
          </mxGeometry>
        </mxCell>
        <mxCell id="4NmXVr11dC-fUOmPpz1J-2" value="" style="endArrow=classic;html=1;rounded=0;entryX=0;entryY=0.5;entryDx=0;entryDy=0;exitX=1;exitY=0.25;exitDx=0;exitDy=0;" parent="13fL1Wc6lxRRY0Gc4kzj-1" source="zG8-U_q89gB3uUhX_xqN-21" target="LznhTQ9dqOKY5q1OOb8f-2" edge="1">
          <mxGeometry width="50" height="50" relative="1" as="geometry">
            <mxPoint x="340" y="350" as="sourcePoint" />
            <mxPoint x="390" y="300" as="targetPoint" />
          </mxGeometry>
        </mxCell>
        <mxCell id="4NmXVr11dC-fUOmPpz1J-3" value="" style="endArrow=classic;html=1;rounded=0;entryX=0;entryY=0.5;entryDx=0;entryDy=0;exitX=1;exitY=0.5;exitDx=0;exitDy=0;" parent="13fL1Wc6lxRRY0Gc4kzj-1" source="zG8-U_q89gB3uUhX_xqN-22" target="LznhTQ9dqOKY5q1OOb8f-3" edge="1">
          <mxGeometry width="50" height="50" relative="1" as="geometry">
            <mxPoint x="340" y="350" as="sourcePoint" />
            <mxPoint x="390" y="300" as="targetPoint" />
          </mxGeometry>
        </mxCell>
        <mxCell id="zG8-U_q89gB3uUhX_xqN-1" value="" style="swimlane;startSize=0;strokeColor=#00CCCC;" parent="1" vertex="1">
          <mxGeometry x="40" y="160" width="240" height="600" as="geometry" />
        </mxCell>
        <mxCell id="zG8-U_q89gB3uUhX_xqN-2" value="" style="rounded=1;whiteSpace=wrap;html=1;dashed=1;dashPattern=8 8;strokeColor=#787878;" parent="zG8-U_q89gB3uUhX_xqN-1" vertex="1">
          <mxGeometry x="40" y="120" width="160" height="240" as="geometry" />
        </mxCell>
        <mxCell id="zG8-U_q89gB3uUhX_xqN-3" value="&lt;font style=&quot;font-size: 14px;&quot;&gt;Продукты&lt;/font&gt;" style="rounded=1;whiteSpace=wrap;html=1;" parent="zG8-U_q89gB3uUhX_xqN-1" vertex="1">
          <mxGeometry x="60" y="280" width="120" height="50" as="geometry" />
        </mxCell>
        <mxCell id="zG8-U_q89gB3uUhX_xqN-4" value="&lt;font style=&quot;font-size: 14px;&quot;&gt;Заказы&lt;/font&gt;" style="rounded=1;whiteSpace=wrap;html=1;" parent="zG8-U_q89gB3uUhX_xqN-1" vertex="1">
          <mxGeometry x="60" y="195" width="120" height="50" as="geometry" />
        </mxCell>
        <mxCell id="zG8-U_q89gB3uUhX_xqN-5" value="&lt;font style=&quot;font-size: 14px;&quot;&gt;&lt;b&gt;CRM&lt;/b&gt;&lt;/font&gt;" style="text;html=1;align=center;verticalAlign=middle;resizable=0;points=[];autosize=1;strokeColor=none;fillColor=none;" parent="zG8-U_q89gB3uUhX_xqN-1" vertex="1">
          <mxGeometry x="90" y="150" width="60" height="30" as="geometry" />
        </mxCell>
        <mxCell id="zG8-U_q89gB3uUhX_xqN-6" value="&lt;b&gt;&lt;font style=&quot;font-size: 14px;&quot;&gt;Source&lt;br&gt;Systems&lt;/font&gt;&lt;/b&gt;" style="text;html=1;align=center;verticalAlign=middle;resizable=0;points=[];autosize=1;strokeColor=none;fillColor=none;" parent="zG8-U_q89gB3uUhX_xqN-1" vertex="1">
          <mxGeometry x="80" y="30" width="80" height="50" as="geometry" />
        </mxCell>
        <mxCell id="zG8-U_q89gB3uUhX_xqN-7" value="" style="rounded=1;whiteSpace=wrap;html=1;dashed=1;dashPattern=8 8;strokeColor=#787878;" parent="zG8-U_q89gB3uUhX_xqN-1" vertex="1">
          <mxGeometry x="40" y="400" width="160" height="160" as="geometry" />
        </mxCell>
        <mxCell id="zG8-U_q89gB3uUhX_xqN-8" value="&lt;font style=&quot;font-size: 14px;&quot;&gt;&lt;b&gt;Auth&lt;/b&gt;&lt;/font&gt;" style="text;html=1;align=center;verticalAlign=middle;resizable=0;points=[];autosize=1;strokeColor=none;fillColor=none;" parent="zG8-U_q89gB3uUhX_xqN-1" vertex="1">
          <mxGeometry x="90" y="430" width="60" height="30" as="geometry" />
        </mxCell>
        <mxCell id="zG8-U_q89gB3uUhX_xqN-9" value="&lt;font style=&quot;font-size: 14px;&quot;&gt;Покупатели&lt;br&gt;&lt;/font&gt;" style="rounded=1;whiteSpace=wrap;html=1;" parent="zG8-U_q89gB3uUhX_xqN-1" vertex="1">
          <mxGeometry x="60" y="470" width="120" height="50" as="geometry" />
        </mxCell>
        <mxCell id="zG8-U_q89gB3uUhX_xqN-11" value="" style="endArrow=classic;html=1;rounded=0;exitX=1;exitY=0.5;exitDx=0;exitDy=0;entryX=0;entryY=0.5;entryDx=0;entryDy=0;" parent="1" source="zG8-U_q89gB3uUhX_xqN-4" target="13fL1Wc6lxRRY0Gc4kzj-4" edge="1">
          <mxGeometry width="50" height="50" relative="1" as="geometry">
            <mxPoint x="450" y="460" as="sourcePoint" />
            <mxPoint x="500" y="410" as="targetPoint" />
          </mxGeometry>
        </mxCell>
        <mxCell id="zG8-U_q89gB3uUhX_xqN-12" value="" style="endArrow=classic;html=1;rounded=0;exitX=1;exitY=0.5;exitDx=0;exitDy=0;entryX=0;entryY=0.5;entryDx=0;entryDy=0;" parent="1" source="zG8-U_q89gB3uUhX_xqN-3" target="13fL1Wc6lxRRY0Gc4kzj-3" edge="1">
          <mxGeometry width="50" height="50" relative="1" as="geometry">
            <mxPoint x="450" y="460" as="sourcePoint" />
            <mxPoint x="500" y="410" as="targetPoint" />
          </mxGeometry>
        </mxCell>
        <mxCell id="zG8-U_q89gB3uUhX_xqN-13" value="" style="endArrow=classic;html=1;rounded=0;exitX=1;exitY=0.5;exitDx=0;exitDy=0;entryX=0;entryY=0.5;entryDx=0;entryDy=0;" parent="1" target="13fL1Wc6lxRRY0Gc4kzj-10" edge="1">
          <mxGeometry width="50" height="50" relative="1" as="geometry">
            <mxPoint x="220" y="652" as="sourcePoint" />
            <mxPoint x="390" y="652" as="targetPoint" />
          </mxGeometry>
        </mxCell>
        <mxCell id="4NmXVr11dC-fUOmPpz1J-7" value="&lt;font color=&quot;#ffffff&quot; style=&quot;font-size: 18px;&quot;&gt;&lt;b style=&quot;background-color: rgb(204, 0, 102);&quot;&gt;&amp;nbsp; &amp;nbsp; &amp;nbsp; &amp;nbsp; &amp;nbsp;С х е м а&amp;nbsp; &amp;nbsp;ETL - п р о ц е с с а&amp;nbsp; &amp;nbsp; &amp;nbsp; &amp;nbsp; &amp;nbsp;&lt;/b&gt;&lt;/font&gt;" style="text;html=1;strokeColor=none;fillColor=none;align=center;verticalAlign=middle;whiteSpace=wrap;rounded=0;" parent="1" vertex="1">
          <mxGeometry x="300" y="90" width="470" height="40" as="geometry" />
        </mxCell>
        <mxCell id="NZPXZ5PT1lkwQo3yOnv8-1" value="&lt;font style=&quot;&quot;&gt;&lt;font style=&quot;font-size: 18px;&quot;&gt;&lt;b&gt;Проектирование компонентов DWH.&lt;/b&gt;&lt;br&gt;Source Systems -&amp;gt;DWH&lt;b&gt;&amp;nbsp;&lt;/b&gt;&lt;/font&gt;&lt;br&gt;&lt;/font&gt;" style="text;html=1;strokeColor=none;fillColor=none;align=left;verticalAlign=middle;whiteSpace=wrap;rounded=0;" parent="1" vertex="1">
          <mxGeometry x="40" y="30" width="720" height="40" as="geometry" />
        </mxCell>
      </root>
    </mxGraphModel>
  </diagram>
</mxfile>
